<svg width="52" height="52" viewBox="0 0 52 52" fill="none" xmlns="http://www.w3.org/2000/svg">
<g opacity="0.3">
<path fill-rule="evenodd" clip-rule="evenodd" d="M17.7943 40.3027C18.138 39.959 18.3312 39.4927 18.3312 39.0065C18.3312 38.5203 18.138 38.0541 17.7943 37.7103L6.12828 26.0443L17.7943 14.3783C18.138 14.0346 18.3312 13.5683 18.3312 13.0821C18.3312 12.5959 18.138 12.1297 17.7943 11.7859C17.4505 11.4421 16.9842 11.249 16.498 11.249C16.0119 11.249 15.5456 11.4421 15.2018 11.7859L2.23962 24.7481C1.89584 25.0919 1.70271 25.5581 1.70271 26.0443C1.70271 26.5305 1.89584 26.9968 2.23962 27.3405L15.2018 40.3027C15.5456 40.6465 16.0119 40.8397 16.498 40.8397C16.9842 40.8397 17.4505 40.6465 17.7943 40.3027Z" fill="#333333"/>
<path fill-rule="evenodd" clip-rule="evenodd" d="M51.0902 26.0442C51.0905 25.803 51.0433 25.5642 50.9511 25.3414C50.859 25.1186 50.7238 24.9161 50.5533 24.7456C50.3828 24.5751 50.1803 24.4399 49.9575 24.3478C49.7347 24.2557 49.4959 24.2084 49.2548 24.2087L3.53587 24.2087C3.04908 24.2087 2.58222 24.4021 2.23801 24.7463C1.8938 25.0905 1.70042 25.5574 1.70042 26.0442C1.70042 26.5309 1.8938 26.9978 2.23801 27.342C2.58223 27.6862 3.04908 27.8796 3.53587 27.8796L49.2548 27.8796C49.4959 27.8799 49.7347 27.8326 49.9575 27.7405C50.1803 27.6484 50.3828 27.5132 50.5533 27.3427C50.7238 27.1722 50.859 26.9697 50.9511 26.7469C51.0433 26.5241 51.0905 26.2853 51.0902 26.0442Z" fill="#333333"/>
</g>
</svg>
