<svg width="52" height="51" viewBox="0 0 52 51" fill="none" xmlns="http://www.w3.org/2000/svg">
<path fill-rule="evenodd" clip-rule="evenodd" d="M36.2848 38.466C35.9732 38.1545 35.7982 37.7319 35.7982 37.2913C35.7982 36.8507 35.9732 36.4282 36.2848 36.1166L46.8571 25.5443L36.2848 14.972C35.9732 14.6604 35.7982 14.2379 35.7982 13.7973C35.7982 13.3567 35.9732 12.9341 36.2848 12.6226C36.5963 12.311 37.0189 12.136 37.4595 12.136C37.9001 12.136 38.3226 12.311 38.6342 12.6226L50.3812 24.3696C50.6928 24.6812 50.8678 25.1037 50.8678 25.5443C50.8678 25.9849 50.6928 26.4075 50.3812 26.719L38.6342 38.466C38.3226 38.7776 37.9001 38.9526 37.4595 38.9526C37.0189 38.9526 36.5963 38.7776 36.2848 38.466Z" fill="#333333"/>
<path fill-rule="evenodd" clip-rule="evenodd" d="M1.33741 25.5442C1.33713 25.3256 1.37997 25.1092 1.46347 24.9073C1.54696 24.7053 1.66947 24.5219 1.82399 24.3674C1.9785 24.2128 2.16198 24.0903 2.36392 24.0068C2.56585 23.9233 2.78228 23.8805 3.00079 23.8808L49.2065 23.8808C49.6477 23.8808 50.0707 24.056 50.3827 24.368C50.6946 24.6799 50.8699 25.103 50.8699 25.5442C50.8699 25.9853 50.6946 26.4084 50.3827 26.7203C50.0707 27.0323 49.6477 27.2075 49.2065 27.2075L3.00079 27.2075C2.78227 27.2078 2.56585 27.165 2.36391 27.0815C2.16198 26.998 1.9785 26.8755 1.82399 26.721C1.66947 26.5664 1.54696 26.383 1.46347 26.181C1.37997 25.9791 1.33713 25.7627 1.33741 25.5442Z" fill="#333333"/>
</svg>
