<svg width="147" height="147" viewBox="0 0 147 147" fill="none" xmlns="http://www.w3.org/2000/svg">
<g style="mix-blend-mode:multiply">
<rect y="20.9733" width="81.0346" height="129.82" rx="20" transform="rotate(-15 0 20.9733)" fill="#924A91"/>
</g>
<rect x="15.1423" y="1.87613" width="131.739" height="131.739" rx="20" fill="white"/>
<path d="M84.5964 107.873C77.6488 107.873 71.9964 102.22 71.9964 95.2727V78.8919C71.9964 73.6237 67.7106 69.3378 62.4423 69.3378C57.1741 69.3378 52.8883 73.6237 52.8883 78.8919V83.9092H49.385V78.8919C49.385 71.692 55.2426 65.8345 62.4423 65.8345C69.642 65.8345 75.4997 71.692 75.4997 78.8919V95.2727C75.4997 100.289 79.5805 104.37 84.5964 104.37C89.6124 104.37 93.6933 100.289 93.6933 95.2727V93.4194L86.5912 76.6565L86.4003 76.5499C85.6326 76.122 84.8991 75.6453 84.2201 75.133C80.96 72.6739 78.644 69.2988 77.5222 65.3726L71.1827 43.1844C70.3374 40.2269 70.9153 37.1224 72.7674 34.6667C74.6199 32.2112 77.4464 30.8029 80.5222 30.8029H82.5467V29.3698C82.5467 28.404 83.3325 27.6181 84.2981 27.6181C85.2639 27.6181 86.0498 28.404 86.0498 29.3698V35.7392C86.0498 36.705 85.2639 37.4908 84.2981 37.4908C83.3325 37.4908 82.5467 36.705 82.5467 35.7392V34.306H80.5222C78.5555 34.306 76.7484 35.2064 75.5643 36.7765C74.3799 38.3464 74.0108 40.3313 74.5511 42.2223L80.8906 64.4104C82.7373 70.8745 88.7223 75.3887 95.4446 75.3887C102.167 75.3887 108.152 70.8743 109.999 64.4104L116.338 42.2225C116.879 40.3315 116.509 38.3466 115.325 36.7766C114.141 35.2065 112.334 34.3062 110.367 34.3062H108.343V35.7394C108.343 36.7051 107.557 37.491 106.591 37.491C105.625 37.491 104.84 36.7051 104.84 35.7394V29.3699C104.84 28.4041 105.625 27.6183 106.591 27.6183C107.557 27.6183 108.343 28.4041 108.343 29.3699V30.8031H110.367C113.443 30.8031 116.27 32.2114 118.122 34.667C119.974 37.1228 120.552 40.2274 119.707 43.1846L113.367 65.3727C112.245 69.2991 109.929 72.6742 106.669 75.133C105.99 75.6458 105.257 76.1225 104.489 76.5501L104.298 76.6566L97.1962 93.4196V95.2728C97.1964 102.22 91.544 107.873 84.5964 107.873ZM95.4447 88.5739L99.7418 78.4318L98.5951 78.6264C97.5558 78.8025 96.4957 78.892 95.4449 78.892C94.3941 78.892 93.334 78.8025 92.2947 78.6264L91.148 78.4318L95.4447 88.5739Z" fill="#924A91"/>
<circle cx="52.124" cy="94.0075" r="7.98251" stroke="#FF8300" stroke-width="5"/>
</svg>
