<svg width="147" height="147" viewBox="0 0 147 147" fill="none" xmlns="http://www.w3.org/2000/svg">
<rect y="20.9733" width="81.0346" height="129.82" rx="20" transform="rotate(-15 0 20.9733)" fill="#733072"/>
<rect x="15.1423" y="1.87613" width="131.739" height="131.739" rx="20" fill="white"/>
<path d="M99.4898 108.214C87.4028 108.214 77.5686 98.3796 77.5686 86.292C77.5686 74.2045 87.4028 64.3699 99.4898 64.3699C111.577 64.3699 121.411 74.2045 121.411 86.292C121.411 98.3796 111.577 108.214 99.4898 108.214ZM99.4898 67.7425C89.261 67.7425 80.9411 76.0628 80.9411 86.292C80.9411 96.5213 89.261 104.842 99.4898 104.842C109.719 104.842 118.038 96.5213 118.038 86.292C118.038 76.0628 109.719 67.7425 99.4898 67.7425Z" fill="#FF8300"/>
<path d="M69.1374 91.351C68.7057 91.351 68.274 91.1858 67.9435 90.8586L47.7086 70.6228C47.0509 69.9652 47.0509 68.896 47.7086 68.2384C48.3662 67.5807 49.4353 67.5807 50.0929 68.2384L70.3279 88.4742C70.9855 89.1318 70.9855 90.201 70.3279 90.8586C70.0007 91.1858 69.569 91.351 69.1374 91.351Z" fill="#924A91"/>
<path d="M96.1173 44.1341C95.6856 44.1341 95.2539 43.9689 94.9234 43.6417C94.2658 42.9841 94.2658 41.915 94.9234 41.2573L108.413 27.7667C109.071 27.1091 110.14 27.1091 110.798 27.7667C111.455 28.4244 111.455 29.4935 110.798 30.1512L97.3078 43.6417C96.9806 43.9689 96.5489 44.1341 96.1173 44.1341Z" fill="#924A91"/>
<path d="M65.7648 87.9784C65.3332 87.9784 64.9015 87.8131 64.571 87.486C63.9134 86.8283 63.9134 85.7592 64.571 85.1015L68.1795 81.4928C68.8372 80.8352 69.9063 80.8352 70.5639 81.4928C71.2215 82.1505 71.2215 83.2196 70.5639 83.8773L66.9553 87.486C66.6282 87.8131 66.1965 87.9784 65.7648 87.9784Z" fill="#924A91"/>
<path d="M52.2749 74.4879C51.8432 74.4879 51.4115 74.3226 51.081 73.9954C50.4234 73.3378 50.4234 72.2687 51.081 71.611L83.4232 39.2674C86.7046 35.9859 92.0399 35.9859 95.318 39.2674L99.2975 43.2471C102.579 46.5287 102.579 51.8642 99.2975 55.1424L97.0717 57.3684C96.414 58.026 95.3449 58.026 94.6873 57.3684C94.0297 56.7107 94.0297 55.6416 94.6873 54.9839L96.9132 52.758C98.8793 50.7917 98.8793 47.5945 96.9132 45.6316L92.9336 41.6519C90.9674 39.6856 87.7737 39.6856 85.8075 41.6519L53.4653 73.9954C53.1382 74.3226 52.7065 74.4879 52.2749 74.4879Z" fill="#924A91"/>
<path d="M47.2161 93.0373C46.7845 93.0373 46.3528 92.8721 46.0223 92.5449C45.3646 91.8873 45.3646 90.8182 46.0223 90.1605L57.826 78.3563C58.4836 77.6986 59.5527 77.6986 60.2104 78.3563C60.868 79.0139 60.868 80.083 60.2104 80.7407L48.4066 92.5449C48.0795 92.8721 47.6478 93.0373 47.2161 93.0373Z" fill="#924A91"/>
<path d="M52.2749 98.0963C51.8432 98.0963 51.4115 97.931 51.081 97.6039L40.9636 87.486C40.3059 86.8283 40.3059 85.7592 40.9636 85.1015C41.6212 84.4439 42.6903 84.4439 43.3479 85.1015L53.4654 95.2194C54.123 95.8771 54.123 96.9462 53.4654 97.6039C53.1383 97.931 52.7066 98.0963 52.2749 98.0963Z" fill="#924A91"/>
<path d="M79.2548 54.2521C78.8231 54.2521 78.3914 54.0868 78.0609 53.7597L74.6884 50.387C74.0308 49.7293 74.0308 48.6602 74.6884 48.0026C75.3461 47.3449 76.4151 47.3449 77.0728 48.0026L80.4453 51.3752C81.1029 52.0329 81.1029 53.102 80.4453 53.7597C80.1181 54.0868 79.6864 54.2521 79.2548 54.2521Z" fill="#924A91"/>
<path d="M75.8824 64.3699C75.4507 64.3699 75.019 64.2047 74.6885 63.8775L67.9435 57.1323C67.2859 56.4746 67.2859 55.4055 67.9435 54.7478C68.6012 54.0902 69.6703 54.0902 70.3279 54.7478L77.0729 61.4931C77.7305 62.1508 77.7305 63.2199 77.0729 63.8775C76.7457 64.2047 76.3141 64.3699 75.8824 64.3699Z" fill="#924A91"/>
<path d="M65.7649 67.7426C65.3332 67.7426 64.9015 67.5773 64.571 67.2502L61.1985 63.8775C60.5409 63.2199 60.5409 62.1507 61.1985 61.4931C61.8562 60.8354 62.9253 60.8354 63.5829 61.4931L66.9554 64.8657C67.613 65.5234 67.613 66.5925 66.9554 67.2502C66.6283 67.5773 66.1966 67.7426 65.7649 67.7426Z" fill="#924A91"/>
<path d="M104.248 80.2579V80.2578C104.248 79.8172 104.187 79.3786 104.066 78.9539H92.2727C92.0146 78.9539 91.7668 78.8545 91.5838 78.6772C91.4008 78.4998 91.2977 78.2589 91.2977 78.0073C91.2977 77.7557 91.4008 77.5148 91.5838 77.3374C91.7668 77.16 92.0146 77.0607 92.2727 77.0607H103.033C102.58 76.5446 102.019 76.1267 101.387 75.8349C100.721 75.5278 99.9937 75.3681 99.2566 75.3675H92.2727C92.0146 75.3675 91.7668 75.2681 91.5838 75.0907C91.4008 74.9133 91.2977 74.6724 91.2977 74.4208C91.2977 74.1693 91.4008 73.9283 91.5838 73.7509C91.7668 73.5736 92.0146 73.4742 92.2727 73.4742H108.923C109.181 73.4742 109.429 73.5736 109.612 73.7509C109.795 73.9283 109.898 74.1693 109.898 74.4208C109.898 74.6724 109.795 74.9133 109.612 75.0907C109.429 75.2681 109.181 75.3675 108.923 75.3675H104.057C104.587 75.8608 105.035 76.4321 105.382 77.0607H108.923C109.181 77.0607 109.429 77.16 109.612 77.3374C109.795 77.5148 109.898 77.7557 109.898 78.0073C109.898 78.2589 109.795 78.4998 109.612 78.6772C109.429 78.8545 109.181 78.9539 108.923 78.9539H106.08C106.271 79.9158 106.246 80.9067 106.005 81.8586C105.758 82.8302 105.294 83.737 104.643 84.5139C103.993 85.2908 103.174 85.9186 102.244 86.3524C101.315 86.7862 100.298 87.0153 99.2663 87.0234L99.2659 87.0234L95.4839 87.0234L104.852 97.4115C104.943 97.5034 105.014 97.6122 105.061 97.7315C105.107 97.8512 105.129 97.9788 105.123 98.1067C105.118 98.2346 105.085 98.36 105.028 98.4754C104.972 98.5908 104.891 98.6937 104.792 98.7781C104.694 98.8624 104.578 98.9263 104.453 98.9662C104.329 99.006 104.197 99.021 104.066 99.0101C103.935 98.9992 103.807 98.9627 103.691 98.9028C103.576 98.8431 103.473 98.7612 103.391 98.6621L92.5964 86.7021L104.248 80.2579ZM104.248 80.2579C104.25 81.5442 103.727 82.7793 102.791 83.6926C101.856 84.606 100.585 85.1231 99.2565 85.1302C99.2565 85.1302 99.2564 85.1302 99.2564 85.1302L93.3272 85.1302H93.3272M104.248 80.2579L93.3272 85.1302M93.3272 85.1302C93.1401 85.1304 92.957 85.1829 92.7997 85.2814M93.3272 85.1302L92.7997 85.2814M92.7997 85.2814C92.6423 85.38 92.5174 85.5206 92.4401 85.6865M92.7997 85.2814L92.4401 85.6865M92.4401 85.6865C92.3627 85.8524 92.3363 86.0366 92.3641 86.2168M92.4401 85.6865L92.3641 86.2168M92.3641 86.2168C92.3918 86.397 92.4726 86.5655 92.5963 86.7021L92.3641 86.2168Z" fill="#FF8300" stroke="#FF8300" stroke-width="0.1"/>
</svg>
