<svg width="147" height="147" viewBox="0 0 147 147" fill="none" xmlns="http://www.w3.org/2000/svg">
<rect y="20.9733" width="81.0346" height="129.82" rx="20" transform="rotate(-15 0 20.9733)" fill="#733072"/>
<rect x="15.1426" y="1.87613" width="131.739" height="131.739" rx="20" fill="white"/>
<path d="M62.3342 109.518C61.6015 109.517 60.9406 109.091 60.6496 108.431L52.9647 91.0061L34.1707 86.5975C33.8935 86.5324 33.6326 86.4037 33.4152 86.2241C32.6411 85.5855 32.5402 84.4469 33.1904 83.6866L50.0977 63.896L49.9983 63.3591C49.8102 62.3419 49.68 61.4354 49.6008 60.5894L49.5771 54.7681C50.9846 39.6471 63.1707 27.6946 78.5733 26.3372C79.5355 26.2524 80.5105 26.2094 81.471 26.2094C89.4224 26.2094 97.0549 29.1159 102.963 34.3936C108.892 39.6907 112.558 46.9253 113.288 54.769L113.27 60.5905C113.191 61.4342 113.061 62.3407 112.872 63.3596L112.773 63.8963L129.68 83.6863C129.863 83.9001 129.994 84.1564 130.06 84.4283C130.174 84.8961 130.095 85.3795 129.838 85.7895C129.581 86.1994 129.178 86.4862 128.701 86.5981L109.906 91.0067L102.221 108.432C102.108 108.688 101.934 108.918 101.717 109.096C101.382 109.372 100.975 109.517 100.54 109.517C99.9949 109.517 99.4823 109.283 99.1327 108.873L82.2552 89.1179H80.6144L63.7372 108.873C63.5544 109.087 63.3204 109.259 63.0604 109.369C62.8288 109.467 62.5842 109.518 62.3342 109.518ZM37.9112 83.7775L54.7082 87.7201C55.2664 87.8512 55.7362 88.2384 55.9642 88.7559L62.8362 104.321L76.0802 88.8096L74.2539 88.3079L74.2266 88.3018C73.0928 88.0455 71.9619 87.7239 70.866 87.3453C70.7364 87.3012 70.6133 87.2532 70.49 87.2053C70.3879 87.1658 70.2862 87.1265 70.1832 87.0891C69.4085 86.7997 68.619 86.4702 67.8454 86.1132L67.6913 86.0428C67.4041 85.9121 67.1171 85.7814 66.8346 85.6402C65.9392 85.1901 65.0852 84.7104 64.2996 84.2156C64.0067 84.0378 63.731 83.8446 63.4396 83.6401C63.3009 83.5428 63.1625 83.4454 63.0234 83.3507C62.9143 83.2746 62.7957 83.1964 62.6767 83.1177C62.5247 83.0175 62.3729 82.9178 62.2262 82.8089C62.1656 82.7647 62.1194 82.7217 62.0715 82.6804C61.9878 82.6069 61.9035 82.534 61.8133 82.4654C61.6636 82.3513 61.5151 82.2478 61.3654 82.1441C61.1897 82.0224 61.0235 81.9073 60.8622 81.7743C60.6859 81.6287 60.5144 81.4634 60.333 81.2882C60.2055 81.1653 60.0783 81.0424 59.9452 80.9218C59.5196 80.545 59.159 80.2109 58.8318 79.889C58.3792 79.447 57.882 78.9287 57.4297 78.4264C57.0164 77.967 56.6186 77.499 56.2148 76.9952C55.8693 76.5521 55.5504 76.1404 55.2472 75.7151C54.8046 75.0933 54.3772 74.446 53.9764 73.7908C53.7897 73.4814 53.588 73.1435 53.3987 72.8013C52.9307 71.9674 52.5254 71.1583 52.156 70.3209C52.116 70.2303 52.0699 70.1417 52.0231 70.0536C52.0036 70.017 51.9832 69.9807 51.9663 69.9424L51.2058 68.2148L37.9112 83.7775ZM87.97 90.1999L100.036 104.321L106.907 88.7475C107.136 88.23 107.605 87.8427 108.164 87.7117L124.96 83.7691L111.652 68.189L110.901 69.9444C110.888 69.9746 110.872 70.0037 110.857 70.0336C110.814 70.1181 110.756 70.2309 110.703 70.3686C110.337 71.1937 109.926 72.0127 109.483 72.8033C109.319 73.1113 109.139 73.4222 108.903 73.8065C108.516 74.4475 108.092 75.0893 107.637 75.7226C107.264 76.2363 106.954 76.6468 106.664 77.0103C106.252 77.5202 105.852 77.9894 105.448 78.4383C105.003 78.9325 104.535 79.4218 104.056 79.8921C103.741 80.1987 103.381 80.5319 102.926 80.9387C102.776 81.0691 102.616 81.2225 102.458 81.3745C102.3 81.527 102.151 81.6711 102.018 81.7809C101.895 81.8832 101.747 81.9852 101.591 82.0933C101.422 82.2104 101.247 82.3312 101.071 82.473C101 82.5279 100.915 82.6008 100.83 82.6743C100.771 82.7252 100.713 82.7772 100.65 82.8237C100.489 82.939 100.313 83.0538 100.138 83.1688C100.021 83.2458 99.9033 83.3225 99.7861 83.4021L99.4539 83.634C99.1587 83.8414 98.8797 84.0373 98.5969 84.2127C97.8222 84.7017 96.9762 85.1785 96.0042 85.675C95.7726 85.793 95.53 85.9025 95.2735 86.0187L95.0626 86.114C94.3024 86.4708 93.496 86.8081 92.6541 87.1222C92.5595 87.1553 92.4471 87.1986 92.3347 87.2416C92.2293 87.2826 92.1237 87.323 92.0164 87.3598C90.9526 87.7285 89.8629 88.0409 88.7698 88.291H86.3667L87.97 90.1999ZM80.2422 85.4435C80.6256 85.4638 81.022 85.4853 81.4299 85.4853C81.8378 85.4853 82.2342 85.4641 82.6173 85.4435L82.9025 85.4289L82.9655 85.4272C84.4324 85.3505 85.9067 85.1602 87.3473 84.8615L87.5771 84.8162C88.1865 84.6898 88.7675 84.5283 89.2804 84.3859L89.4129 84.3493C89.5922 84.2993 89.7715 84.2496 89.9486 84.1941C90.2788 84.0948 90.6296 83.9696 90.9393 83.8592L91.1508 83.7839C91.5144 83.6555 91.8735 83.5279 92.2347 83.3789C92.4263 83.3025 92.6269 83.2136 92.8278 83.1238L92.9866 83.0532C93.4771 82.8443 93.9554 82.6203 94.4343 82.3742C94.5086 82.3367 94.5887 82.2932 94.6692 82.249L94.7813 82.1886C95.3984 81.8663 95.9648 81.5441 96.5047 81.208L96.5621 81.174C97.1593 80.7998 97.7332 80.4076 98.4239 79.9029C99.0389 79.4534 99.5947 78.9674 100.132 78.4976L100.272 78.3752C100.984 77.7523 101.669 77.0899 102.31 76.4051C102.397 76.3118 102.487 76.2215 102.576 76.1311C102.734 75.9713 102.898 75.8063 103.06 75.6195C103.933 74.6087 104.737 73.5282 105.451 72.4056C105.536 72.278 105.612 72.1467 105.687 72.0165C105.717 71.9645 105.745 71.9128 105.776 71.862C106.431 70.7902 107.018 69.655 107.517 68.4958C107.571 68.3886 107.626 68.2674 107.675 68.146C108.217 66.8293 108.66 65.4559 108.992 64.068C109.015 64.0145 109.034 63.9631 109.05 63.9099L109.061 63.873L109.07 63.8355C109.539 61.8079 109.776 59.7259 109.775 57.648C109.766 42.3099 97.0528 29.8315 81.437 29.8315H81.419C65.7931 29.8408 53.0884 42.3346 53.0978 57.6817C53.0966 59.7352 53.3274 61.7942 53.7838 63.7998L53.7983 63.8559C53.8172 63.9224 53.8397 63.9814 53.8607 64.0296C54.1926 65.4216 54.6378 66.799 55.1848 68.125C55.2099 68.1858 55.2371 68.2471 55.2649 68.3095C55.2827 68.3491 55.3004 68.3889 55.3176 68.429C55.8243 69.6146 56.4183 70.7678 57.0859 71.8628L57.1137 71.9064C57.1623 71.9785 57.2046 72.0517 57.2466 72.1234C57.2974 72.2106 57.3477 72.2966 57.4019 72.3806C58.1145 73.5038 58.9226 74.5901 59.8 75.6047C59.9713 75.8014 60.1437 75.9754 60.3109 76.1439C60.3963 76.2305 60.4824 76.3171 60.5655 76.4048C61.1918 77.0774 61.8695 77.7343 62.572 78.3503C63.1213 78.8328 63.7461 79.3814 64.43 79.8817C65.5958 80.7454 66.8459 81.5296 68.1392 82.2092L68.3678 82.333C68.913 82.6125 69.4413 82.8501 69.8972 83.0526C70.122 83.1624 70.3512 83.2656 70.5968 83.3684C70.9713 83.521 71.3242 83.6494 71.7407 83.7961L71.9764 83.8792C72.2758 83.9852 72.5855 84.0951 72.907 84.1936C73.0597 84.2415 73.2224 84.2863 73.386 84.3307L73.5933 84.3879C74.0793 84.5251 74.6576 84.6828 75.2602 84.8121L75.5312 84.8665C76.9576 85.1608 78.428 85.3502 79.8938 85.4275L79.9654 85.4292L80.2422 85.4435Z" fill="#924A91"/>
<path d="M77.692 46.8025V54.2909H70.2036V61.7792H77.692V69.2676H85.1804V61.7792H92.6688V54.2909H85.1804V46.8025H77.692Z" fill="#FF8300"/>
</svg>
