<svg width="34" height="34" viewBox="0 0 34 34" fill="none" xmlns="http://www.w3.org/2000/svg">
<path d="M17.0042 0H16.9958C7.62238 0 0 7.6245 0 17C0 20.7188 1.1985 24.1655 3.23638 26.9641L1.11775 33.2796L7.65213 31.1908C10.3403 32.9715 13.5469 34 17.0042 34C26.3776 34 34 26.3734 34 17C34 7.62663 26.3776 0 17.0042 0Z" fill="#4CAF50"/>
<path d="M26.896 24.0061C26.4859 25.1643 24.8582 26.1248 23.5598 26.4053C22.6715 26.5944 21.5113 26.7453 17.6055 25.126C12.6097 23.0563 9.39242 17.9796 9.14167 17.6503C8.90155 17.3209 7.12292 14.9621 7.12292 12.5226C7.12292 10.0831 8.3618 8.89527 8.86117 8.38527C9.2713 7.96664 9.94917 7.77539 10.5994 7.77539C10.8098 7.77539 10.9989 7.78602 11.1689 7.79452C11.6683 7.81577 11.919 7.84552 12.2484 8.63389C12.6585 9.62202 13.6573 12.0615 13.7763 12.3123C13.8974 12.563 14.0185 12.903 13.8485 13.2324C13.6892 13.5724 13.5489 13.7233 13.2982 14.0123C13.0474 14.3013 12.8094 14.5223 12.5587 14.8325C12.3292 15.1024 12.0699 15.3914 12.3589 15.8908C12.6479 16.3795 13.6467 18.0094 15.1172 19.3184C17.0148 21.0078 18.5533 21.5475 19.1037 21.777C19.5138 21.947 20.0025 21.9066 20.3022 21.5879C20.6825 21.1778 21.1522 20.4978 21.6303 19.8284C21.9703 19.3481 22.3995 19.2886 22.85 19.4586C23.309 19.618 25.7379 20.8186 26.2373 21.0673C26.7367 21.318 27.066 21.437 27.1872 21.6474C27.3062 21.8578 27.3062 22.8459 26.896 24.0061Z" fill="white"/>
</svg>
