<?xml version="1.0" encoding="utf-8"?>
<!-- Generator: Adobe Illustrator 21.0.0, SVG Export Plug-In . SVG Version: 6.00 Build 0)  -->
<svg version="1.1" id="Layer_1" xmlns="http://www.w3.org/2000/svg" xmlns:xlink="http://www.w3.org/1999/xlink" x="0px" y="0px"
	 viewBox="0 0 928 810" style="enable-background:new 0 0 928 810;" xml:space="preserve">
<style type="text/css">
	.st0{clip-path:url(#SVGID_2_);}
	.st1{fill:#E6DAE7;}
	.st2{fill:#81C4E8;}
	.st3{fill:#68AED3;}
	.st4{fill:#75B9DE;}
	.st5{fill:#5CA3C8;}
	.st6{fill:#F4CA9D;}
	.st7{fill:#E3B488;}
	.st8{fill:#F49598;}
	.st9{fill:#E17F82;}
	.st10{fill:#CA6A6D;}
	.st11{fill:#B8E6F4;}
	.st12{fill:#F8F492;}
	.st13{fill:#D8D871;}
	.st14{fill:#D7A87D;}
	.st15{fill:#7F6040;}
	.st16{fill:#967758;}
	.st17{fill:#745432;}
	.st18{fill:#9AD7F5;}
	.st19{fill:#756573;}
	.st20{fill:#8C7D8C;}
	.st21{fill:#6A5966;}
	.st22{fill:#464C4E;}
	.st23{fill:#F4A2A5;}
	.st24{fill:#F5F5B9;}
	.st25{fill:#8ED0F2;}
	.st26{fill:#F5D6AA;}
	.st27{fill:#F7E8F2;}
	.st28{fill:#E4CDE1;}
	.st29{fill:#C86EA8;}
	.st30{fill:#D478B1;}
	.st31{fill:#B15890;}
	.st32{fill:#CAB5D0;}
	.st33{fill:#B29FBF;}
	.st34{fill:#F19C1B;}
	.st35{fill:#F3BD35;}
	.st36{fill:#E08823;}
	.st37{fill:#FFFFFF;}
	.st38{fill:#F3B5DB;}
	.st39{clip-path:url(#SVGID_4_);}
</style>
<g id="surface1">
	<g>
		<defs>
			<rect id="SVGID_1_" x="40" y="34.9" width="851.1" height="714.1"/>
		</defs>
		<clipPath id="SVGID_2_">
			<use xlink:href="#SVGID_1_"  style="overflow:visible;"/>
		</clipPath>
		<g class="st0">
			<path class="st1" d="M852.3,452.7c-1.5-40.2,24.2-76,29.4-91.5c15.5-39.7,10.4-82.9-5.2-119.2C854.4,191,772.8,67.5,536.1,39.9
				c-160.4-18.7-376.6,11.3-444,161.2c-39.7,88.4,16.4,154.9,32,215.3c7,27.8-37.8,72.7-68.2,127.8c-14.9,26.9-22.5,72-8.2,94
				c53.6-34.5,99.8-61.2,167.2-45.6c86.4,20.7,181.4,96.7,259.2,133c65.7,31.1,117.5,24.2,190.1,15.5c53.6-5.2,130.4-2.9,173.6-37.4
				c43.2-34.5,61.3-99,47.5-156C882.5,537.3,853.8,492.9,852.3,452.7"/>
		</g>
	</g>
	<path class="st2" d="M408.3,305.7c-2.9-11-6.4-22.3-12.4-32c-0.9-1.5-2.7-2.5-4.4-1.6c-17.7,9.4-37,0.3-54.3-4.9
		c-14.5-4.4-29.4-3.8-44.3-2.7c-14.3,1.1-28.5,2.7-42.6,5.5c-4.7,0.9-10.4,2-15.7,3.9c-0.5-0.3-1.1-0.4-1.7,0.1
		c-0.7,0.5-1.4,1-2.1,1.6c-2.5,1.2-4.8,2.7-6.7,4.6c-13.3,8.5-27.7,15.2-39.8,25.4c-15.8,13.2-22.5,30.8-25.9,50.6
		c-4.2,24.7-3.6,50.1-1.3,74.9c2.3,25,5.6,51.4,13.4,75.3c0.5,1.6,3.1,2.1,4.2,0.9c10.7-11.5,20.7-27.1,37.2-30.1
		c20.7-3.7,31,16,39.2,31.1c8.7,16.1,18.6,29.7,32.2,42.2c13.3,12.2,29.2,23.2,45.3,31.4c13.5,6.9,21.8-5.8,23.8-18
		c1.2-7.7,0.5-15.6,0.6-23.3c0.2-9.8,0.9-19.7,1.2-29.5c1.1-39.4,3.5-78.1,27.7-111c14.1-19.1,32.2-33.8,32.8-59.4
		C414.8,329,411.2,316.9,408.3,305.7"/>
	<path class="st3" d="M234.8,467.6c-19.8-1-39.4,4.1-54.1,15.1c-18.1-36.1-25.9-78.2-23.6-119.2c-3,22.4-2.3,45.2-0.2,67.6
		c2.3,25,5.6,51.4,13.4,75.3c0.5,1.6,3.1,2.1,4.2,0.9c10.7-11.5,20.7-27.1,37.2-30.1c9.7-1.8,17.2,1.7,23.2,7.4
		C235,478.9,234.9,473.2,234.8,467.6"/>
	<path class="st4" d="M263.3,338.6c6,1.5,9-13.5,13.5-22.5c9,6,19.5,10.5,30,13.5c0-7.5,4.5-13.5,6-19.5c9,3,15,12,24,15
		c0.7-19.3,2-38.2,6.6-55.9c-2.1-0.7-4.2-1.4-6.3-2c-14.5-4.4-29.4-3.8-44.3-2.7c-14.3,1.1-28.5,2.7-42.6,5.5
		c-4.7,0.9-10.4,2-15.7,3.9c-0.5-0.3-1.1-0.4-1.7,0.1c-0.2,0.1-0.4,0.3-0.6,0.4C229.4,299.7,242.5,334.4,263.3,338.6"/>
	<path class="st3" d="M408.3,305.7c-2.9-11-6.4-22.3-12.4-32c-0.9-1.5-2.7-2.5-4.4-1.6c-7,3.7-14.3,4.5-21.6,3.8
		c-3,19.9-0.6,41.1-1.5,61.2c0,4.5-1.5,10.5-6,13.5c-13.5,4.5-27,13.5-34.5,27c-9,15-13.5-15-21-21c-3,19.5,0,45-13.5,55.5
		c-10.5,7.5-34.5,0-45,13.5c12,4.5,22.5-4.5,34.5-1.5c-7.5,9-16.5,18-13.5,30c3,7.5,12,10.5,19.5,9c-7.5,7.5-19.5,13.5-25.5,7.5
		c-9-6-12-19.5-19.5-27c-24-21-10.5-60-6-90c-22.5,30-27,70.5-10.5,105c3,6.7,2.3,13.9,1.3,21.2c10.2,5.7,16.8,18.2,22.4,28.4
		c8.7,16.1,18.6,29.7,32.2,42.2c13.3,12.2,29.2,23.2,45.3,31.4c13.5,6.9,21.8-5.8,23.8-18c1.2-7.7,0.5-15.6,0.6-23.3
		c0.2-9.8,0.9-19.7,1.2-29.5c1.1-39.4,3.5-78.1,27.7-111c14.1-19.1,32.2-33.8,32.8-59.4C414.8,329,411.2,316.9,408.3,305.7"/>
	<path class="st5" d="M317.3,419.6c-18,27,0,57-3,87c0,6,1.5,13.5-1.5,15c-13.5,3-28.5,1.5-37.5-9C249,483.9,228,449,217.4,412.1
		c-0.4,15.8,2.8,31.7,9.9,46.5c3,6.7,2.3,13.9,1.3,21.2c10.2,5.7,16.8,18.2,22.4,28.4c8.7,16.1,18.6,29.7,32.2,42.2
		c13.3,12.2,29.2,23.2,45.3,31.4c13.5,6.9,21.8-5.8,23.8-18c1.2-7.7,0.5-15.6,0.6-23.3c0.2-9.8,0.9-19.7,1.2-29.5
		c1.1-39.4,3.5-78.1,27.7-111c2-2.7,4-5.3,6.1-7.8C360.6,391.1,333.1,395.9,317.3,419.6"/>
	<path class="st6" d="M478.3,367.3c-0.7-0.9-1.5-1.6-2.3-2.1c-11.2-1-25.2-1.3-25.2-15.7c12.6-9.7,17.1-22,20.3-37.2
		c0.8-5.4,3-15.1,3.4-20.6c0.1-10.6-0.2-18.7-4.1-28.1c-3.4-9.2-10.5-17.6-19.6-23.1c-0.4,0.1-0.7,0.2-1.1,0.4c-1,0-2,0.6-2.2,1.9
		c-1.5,7.8-12,11.5-18.2,14.6c-7.5,3.7-12.9,8.1-18.8,14.1c-12.2,12.5-23.2,27.8-15.4,45.7c3.8,8.7,4,10.9,5.7,20.5
		c2.1,11.5,16.2,24.8,19.6,36c2.8,9.3,3.2,18.1,8.8,26.3c7,10.4,14.7,19.6,12.6,32.9c-0.4,2.3,2,4,4.1,3.7c8.4-1.2,14-9.1,18.5-15.6
		c5.8-8.5,10.9-17.8,13.7-27.7C479.9,386.5,483.3,373.5,478.3,367.3"/>
	<path class="st7" d="M478.3,367.3c-0.7-0.9-1.4-1.5-2.2-2c-1.3,17.3-7.4,35.1-19.2,48.3c-4.4,5.2-10.6,6-16.9,4
		c1.8,4.6,2.7,9.5,1.8,15.1c-0.4,2.3,2,4,4.1,3.7c8.4-1.2,14-9.1,18.5-15.6c5.8-8.5,10.9-17.8,13.7-27.7
		C479.9,386.5,483.3,373.5,478.3,367.3"/>
	<path class="st7" d="M409.4,280.6c-3.4,2.3-3.4,7.1-4.4,11.9c10.1-9.2,23-14.2,36-10.4C433.4,273.1,419.9,274.6,409.4,280.6"/>
	<path class="st7" d="M455.4,316.1c0,1.2-2.4,0.9-3.9,2.8c3.4,0.2,7.1,1.2,10.5-1.5c-2.9-9.9-6.3-18.6-3.6-28.3
		c1.3-6.5,8.2-10.7,15.8-9.8c-0.2-1.7-0.4-3.4-0.7-5.1C450.9,275.7,451.2,295.2,455.4,316.1"/>
	<path class="st7" d="M437.4,392.6c6-18-9-33-19.5-45c10.5,6.3,23.9,13.3,34.6,9.3c-1.1-1.9-1.7-4.3-1.7-7.4c1.4-1.1,2.8-2.3,4-3.5
		c-21.4,5.3-42.5-9.7-50.5-27c-12-27,18-48,42-60c3-1.5,9-6,7.5-12c13.5,11.1,18,26.2,20.6,40.8c0-8.8-0.7-16-4.1-24.3
		c-3.4-9.2-10.5-17.6-19.6-23.1c-0.4,0.1-0.7,0.2-1.1,0.4c-1,0-2,0.6-2.2,1.9c-1.5,7.8-12,11.5-18.2,14.6
		c-7.5,3.7-12.9,8.1-18.8,14.1c-12.2,12.5-23.2,27.8-15.4,45.7c3.8,8.7,4,10.9,5.7,20.5c2.1,11.5,16.2,24.8,19.6,36
		c2.8,9.3,3.2,18.1,8.8,26.3c7,10.4,14.7,19.6,12.6,32.9c-0.4,2.3,2,4,4.1,3.7c2.7-0.4,5.1-1.4,7.2-2.9
		C457,418.3,457.3,394,437.4,392.6"/>
	<path class="st8" d="M491.1,511.1c8-15.1,18-28.9,21-46.1c3.1-17.7-12.1-31.1-19.4-45.3c-3.9-7.5-4.1-15.1-3.6-23.3
		c0.2-3.1-0.5-14.3,2.5-16.2c0.5-0.3,2.5-3.4,2.8-3.8c-4.9-6.9-13.8-9.8-22.1-11.7c4.1,20.5,5,43.4-12.4,56.4
		c-27,21-58.5-15-75.1-39c-1.2-1.2-2.2-2.7-3.3-3.9c-1,0.3-1.9,1.2-2.4,2.2c-9.9,19.7-15.2,41.2-20.6,62.6
		c-5.3,21.1-8.4,42.2-8.9,64c-0.4,19.8-0.1,41.9,8.8,60c8.4,17.2,24.3,30.3,38.8,42.1c16.4,13.4,35.6,23.5,51.2,37.9
		c6.5,6,20.5,21.8,30.6,14c5.8-4.5,8.5-13.5,11.3-20.1c4.2-9.9,7.9-20,11-30.3c2.3-7.6,2.6-14.8,0-22.3
		c-3.3-9.8-12.7-17.6-18.1-26.3c-5.1-8.3-6.9-17.5-4.3-27C481.4,526.5,487,518.9,491.1,511.1"/>
	<path class="st9" d="M488,568.6c-1.1,7.1-3.5,14-7.1,20.6c-4.5,10.5-15,19.5-16.5,33c-30-6-45-34.5-69-52.5
		c-18-13.5-19.5-30-18-49.5c22.5,22.5,54,7.5,78.1-7.5c9.5-6.4,22.8-4.5,33.5,2.4c0.8-1.3,1.5-2.7,2.3-4c4.9-9.3,10.6-18,14.9-27.4
		c-15.3,10.1-41.7-1.4-59.6,6.5c-6,3-10.5,9-16.5,12c-1.5,0-7.5,1.5-6-1.5c1.5-21,15-39,24-58.5c2.6-5.7,2.9-10.9,1.8-15.7
		c-24.4,7-50.4-23.3-64.9-44.3c-1.2-1.2-2.2-2.7-3.3-3.9c-1,0.3-1.9,1.2-2.4,2.2c-9.9,19.7-15.2,41.2-20.6,62.6
		c-5.3,21.1-8.4,42.2-8.9,64c-0.4,19.8-0.1,41.9,8.8,60c8.4,17.2,24.3,30.3,38.8,42.1c16.4,13.4,35.6,23.5,51.2,37.9
		c6.5,6,20.5,21.8,30.6,14c5.8-4.5,8.5-13.5,11.3-20.1c4.2-9.9,7.9-20,11-30.3c2.3-7.6,2.6-14.8,0-22.3
		C498.9,581.1,493.1,574.9,488,568.6"/>
	<path class="st10" d="M380.4,428.6c1.5,24-25.5,48-4.5,73.5c12,15,30,30,51,21c-30.9-26.8,0.7-64.5,14.1-95.8
		c-21.7-1-43.4-26.7-56.2-45.3c-1.2-1.2-2.2-2.7-3.3-3.9c-1,0.3-1.9,1.2-2.4,2.2c-5.1,10.1-8.9,20.6-12.2,31.3
		C374.6,415.8,380.4,420.8,380.4,428.6"/>
	<path class="st11" d="M280.6,304.1c-7.6-8.9-19.4-17.4-20.9-29.7c-0.7-6.1,0.3-15.9-5.6-19.9c-1.1-0.7-2.2-0.7-3.1-0.2
		c-0.4,0-0.9,0.1-1.4,0.3c-12.2,5.4-25.1,21.3-20.9,35.2c2.7,8.8,8.1,16.7,12.6,24.6c4.3,7.6,7.1,15.7,14.3,21.2
		c1.3,1,3.3,0.6,4.2-0.7c4.7-6.9,8.2-25.5,18.3-25.7C280.5,309.1,282.5,306.3,280.6,304.1"/>
	<path class="st11" d="M343.4,271.5c-9-10-18-16.8-30-21.2c-0.3,5.1,2.3,10.9,3.3,15.3c2.8,12.2-5.4,24.1-9.4,35.1
		c-1,2.8,1.8,4.7,4.2,3.8c9.5-3.2,19.2,13,26,17.9c1.3,0.9,3.3,0.6,4.2-0.7c0.8-1.2,1.4-2.4,1.9-3.6
		C345.3,302.7,344.9,286.9,343.4,271.5"/>
	<path class="st12" d="M545.1,563c-1.7-12.3-6-24.3-8.9-36.4c-3.2-13.1-5.7-26.4-7.7-39.7c-2.1-13.9-3.6-28.1-3.5-42.2
		c0.1-13.7,2.4-27.2,1.8-40.9c-0.7-17.5-17.2-29.9-33.5-32.4c-0.5-0.1-0.9,0-1.3,0c-7.5,15.7-9,34.7-4.4,51
		c10.9,13.3,21.8,26.4,17.4,45.1c-9,36-48,75-15,114.1c2.7,4-4.1,12.7-5.7,21.9c0.5,0.3,1,0.6,1.6,0.9c4.4,1.9,9.1,1.5,13.7,2.4
		c8.6,1.6,12.9,7.5,17.6,14.2c1.1,1.5,3.9,1.8,5.2,0.4c7.7-7.9,14.3-16.4,19.2-26.2C546.6,585.2,546.6,573.9,545.1,563"/>
	<path class="st13" d="M536.2,526.7c-0.3-1.3-0.6-2.7-0.9-4c-4.9,18.1-7.8,36.9-9.3,56.1c0,7.5-7.5,15-10.5,22.5
		c-3-9-12-12-19.5-10.5c10.5-63,27-130.6-3-189.1c3.8,12.4,6.2,25,6.8,37.4c5,8.4,7.8,17.5,5.2,28.7c-3.9,15.4-13.2,31.4-20.1,47.7
		c8.9-5.9,15.6-15.3,20.1-25.2c-8.2,25.9-10.2,54.3-24,77.3c2.1,4.7,5,9.5,9,14.2c2.7,4-4.1,12.7-5.7,21.9c0.5,0.3,1,0.6,1.6,0.9
		c4.4,1.9,9.1,1.5,13.7,2.4c8.6,1.6,12.9,7.5,17.6,14.2c1.1,1.5,3.9,1.8,5.2,0.4c7.7-7.9,14.3-16.4,19.2-26.2
		c5-10.1,5.1-21.3,3.6-32.3C543.4,550.7,539.1,538.7,536.2,526.7"/>
	<path class="st12" d="M378.9,565.8c-12.3-6.7-17.9-22.1-16.6-35.1c6-39,7.5-76.5,12-115.6c3.1,3.1,7,6.3,11.6,7.4
		c0.8-1.8,1.5-3.6,2.3-5.4c3.6-8.4,4.9-16.6,2-25.3c-4.8-14.6-21.6-19.4-35.5-16.9c-0.3-1.1,0.6,7.1-0.9,7.3
		c-17.1,2.6-30.4,11.5-36,27c-3.8,10.5-1.6,17.8,1.5,28c4.2,14.1,3.9,31.6,4.9,46.2c1.1,15.1-0.1,30.3-1.4,45.4
		c-1,12.8-2.9,26.1-1.2,38.9c2.7,20.4,20.3,33.7,35.7,45c2,1.5,4.3,0.3,5.3-1.7c5.6-11,9.8-27.2,24.3-28.3c2.7-0.2,3.7-3.8,2.1-5.7
		C385.7,573.2,382.1,569.6,378.9,565.8"/>
	<path class="st13" d="M378.9,565.8c-12.3-6.7-17.9-22.1-16.6-35.1c6-39,7.5-76.5,12-115.6c3.1,3.1,7,6.3,11.6,7.4
		c0.8-1.8,1.5-3.6,2.3-5.4c3.6-8.4,4.9-16.6,2-25.3c-4.8-14.6-21.6-19.4-35.5-16.9c-0.3-1.1,0.6,7.1-0.9,7.3
		c-3.2,0.5-6.3,1.2-9.3,2.1c3.7,12.7,10.4,25.2,14.8,35.4c16.5,37.5,0,79.5-7.5,121.5c0,4.5-9,6-15,4.5c15,9,30,16.5,42,28.5
		c-6,1.5-13.5,1.5-15,9c-9-9-19.5-16.5-31.5-21c-4.9-1.6-8.5-6-11.2-11.3c-0.2,5.6-0.2,11.2,0.5,16.7c2.7,20.4,20.3,33.7,35.7,45
		c2,1.5,4.3,0.3,5.3-1.7c5.6-11,9.8-27.2,24.3-28.3c2.7-0.2,3.7-3.8,2.1-5.7C385.7,573.2,382.1,569.6,378.9,565.8"/>
	<path class="st7" d="M311.8,273.5c-4.8,13.4-19.9,16.9-31.7,10.5c-10.4-5.6-15.9-17.3-25.6-23.9c-3.1-2.1-6.4,2.4-3.8,4.7
		c1.1,17.9,14.8,28.9,29.6,40.3c8,6.1,14.7,16.1,23.4,19c2.1,0.7,3.9-0.6,4.3-2.7c2.7-15.8,9.6-30.3,10-46.5
		C318,271.4,313.1,270,311.8,273.5"/>
	<path class="st14" d="M299.3,310.1c-4.5,0-10.5-4.5-12-12c3,1.5,7.5,3,10.5,1.5c8.6-7.3,17.1-15.7,20-25.8
		c-0.8-2.6-4.8-3.4-5.9-0.3c-4.8,13.4-19.9,16.9-31.7,10.5c-10.4-5.6-15.9-17.3-25.6-23.9c-3.1-2.1-6.4,2.4-3.8,4.7
		c1.1,17.9,14.8,28.9,29.6,40.3c8,6.1,14.7,16.1,23.4,19c2.1,0.7,3.9-0.6,4.3-2.7c1.1-6.3,2.9-12.5,4.6-18.6
		C308.9,306.7,304.7,309.5,299.3,310.1"/>
	<path class="st6" d="M465.9,644.2c-6.2-5-13.3-8.9-20-13.1c-8-5-14.7-11.4-22.1-17.2c-8.3-6.4-15.9-12.7-23-20.4
		c-4-4.3-9.9-12.4-16.3-13c-5.5-0.5-11.1,5.4-14.4,9c-5.2,5.8-7.5,13.8-9.4,21.3c-1.7,0.6-3,2.4-2.2,4.5
		c4.3,10.9,20.7,12.9,30.5,15.6c9.1,2.5,18.1,5.3,26.9,8.8c7.8,3.1,17.7,7,23.8,12.9c2.7,2.6,3.9,6.1,5.4,9.4
		c1.6,3.5,4.2,6.7,6.7,9.5c4.9,5.4,10.8,10,16.3,14.7c8,6.7,17.2,7.1,17.7-5.2C486.6,666.6,476.5,652.8,465.9,644.2"/>
	<path class="st7" d="M462.9,676.2c-7.5-6-12-15-13.5-27c0-3-6-6-9-7.5c-28.2-9.9-52.4-26.3-75.1-44.5c-2,4.3-3.3,9.1-4.5,13.6
		c-1.7,0.6-3,2.4-2.2,4.5c4.3,10.9,20.7,12.9,30.5,15.6c9.1,2.5,18.1,5.3,26.9,8.8c7.8,3.1,17.7,7,23.8,12.9
		c2.7,2.6,3.9,6.1,5.4,9.4c1.6,3.5,4.2,6.7,6.7,9.5c4.9,5.4,10.8,10,16.3,14.7c8,6.7,17.2,7.1,17.7-5.2c0.1-1.7,0-3.3-0.2-5
		C478.7,680.2,470.1,681.4,462.9,676.2"/>
	<path class="st6" d="M515.8,612c-0.9-8.2-19.8-10.8-25.6-11.1c0,0-0.1,0-0.1,0c-0.5-0.6-1.6-0.9-2.3,0c-6.8,7.8-5,20.4-9.9,29.5
		c-2.8,5.2-7.5,8.7-11.8,12.5c-0.4,0.4-0.8,0.8-1.3,1.2c13.9,6.2,19.4,22.3,20.2,38.8c3.5-1.4,4.7-6.4,5.5-10
		c0.9-4.2,1.1-8.6,1.6-12.8c0.6-6.1,2.9-11.8,5.6-17.3c3.4-7.1,8.3-13.5,13.2-19.6C513.6,619.8,516.3,616.5,515.8,612"/>
	<path class="st7" d="M515.8,612c-0.4-3.9-4.9-6.5-10.2-8.3c-7.1,16.6-12.8,33.1-21.7,48.4c-1.3-7.7-5.3-12.7-10.7-15.7
		c-2.2,2.2-4.7,4.2-7,6.3c-0.4,0.4-0.8,0.8-1.3,1.2c13.9,6.2,19.4,22.3,20.2,38.8c3.5-1.4,4.7-6.4,5.5-10c0.9-4.2,1.1-8.6,1.6-12.8
		c0.6-6.1,2.9-11.8,5.6-17.3c3.4-7.1,8.3-13.5,13.2-19.6C513.6,619.8,516.3,616.5,515.8,612"/>
	<path class="st15" d="M473.9,251.7c-2.6-14.9-9.8-26.9-22.2-35.5c-13.5-9.3-31.3-14.4-47.4-9.9c-11.7,3.3-23,12.6-28.3,23.6
		c-5.8,12.1-6,25.4-5.4,38.6c0.4,9.3,1.5,18.7,2.2,28c4.8,26.2,7.9,53.3-13.5,73.6c-4.6,4.6-7.2,11.3-8,18.5
		c1.3,7.9,5.8,15.2,12.1,20.7c13.6,11.6,36.8,19,25.2,41c-7.7,14.5-16.1,26.1-13.8,43.2c1.2,9.1,6.7,15.5,13.4,20.8
		c-0.2,0.4,15.6,7.5,23.9,8.5c0.2-0.1,0.4-0.1,0.7-0.2c2.2-0.8,2.2-3.5,1.1-5.1c-10.8-15.6,4.7-39.6,13-53.2
		c9-14.7,19.4-29.3,18-47.3c-0.6-7.7-5.2-16.6-11.2-21.5c-2.1-1.7-5.8-3.3-5.6-6.3c0.3-4.9,1.2-9.6,1.3-14.5
		c-2.8-7.4-6.5-14.9-11.5-21c-12-16.5-24-34.5-21-57c4.5-24,27.5-29,45.5-42.5c3.1-2.1,5.9-8.6,7.5-13.5c13.7,6.9,21,21.6,24.4,37.5
		C476,269.3,475.3,259.5,473.9,251.7"/>
	<path class="st16" d="M413.9,220.3c11.9-4,24.7-0.7,36.9,0.7c-1.1-0.9-2.2-1.8-3.4-2.6c-10.9-7.5-25.4-11.7-38.5-8.1
		c-9.5,2.7-18.7,10.3-23,19.2c-4.7,9.8-4.9,20.7-4.4,31.3c0.4,7.6,1.2,15.2,1.8,22.8c0.1,0.8,0.3,1.5,0.4,2.3
		C390.6,261.3,388.6,230.8,413.9,220.3"/>
	<path class="st17" d="M451.8,227.8c0.2-1.1,0.4-2.2,0.6-3.3C451.9,225.4,451.8,226.6,451.8,227.8"/>
	<path class="st17" d="M451.8,227.8c-1.7,7.8-4.8,15.1-11.4,17.8c-9,3-4.5-10.5-6-15c-9,21-28.5,36-36,55.5c-9,22.5-15,49.5-7.5,75
		c4.5,16.5,21,25.5,28.5,42c-3-18-15-33-24-48c-4.4-8.9,0.2-18.6,7.7-24.9c-5-10.2-7.9-21.2-6.2-33.7c4.5-24,27.5-29,45.5-42.5
		c3.1-2.1,5.9-8.6,7.5-13.5c13.7,6.9,21,21.6,24.4,37.5c1.3-6.4,1.2-13.3,0.5-19.6c-5-9-13.2-17.1-20.9-24.9
		C452.8,233.5,451.8,230.6,451.8,227.8"/>
	<path class="st17" d="M412.9,522.6c-20.8-4.6-36.3-24.5-22.1-44.4c10.5-15,19.5-30,16.5-48c-3-15-18-16.5-30-22.5
		c-12-6-24-19.5-18-34.5c0.8-1.8,1.6-3.7,2.5-5.6c-0.8,0.9-1.7,1.7-2.5,2.6c-4.6,4.6-7.2,11.3-8,18.5c1.3,7.9,5.8,15.2,12.1,20.7
		c13.6,11.6,36.8,19,25.2,41c-7.7,14.5-16.1,26.1-13.8,43.2c1.2,9.1,6.7,15.5,13.4,20.8c-0.2,0.4,15.6,7.5,23.9,8.5
		c0.2-0.1,0.4-0.1,0.7-0.2C412.8,522.6,412.9,522.6,412.9,522.6"/>
	<path class="st6" d="M369,609.8c-9.7-3.6-19-7.6-23.2-17.6c7.5,6.2,16,2.1,24.7,0.5c-0.2-0.3-0.4-0.7-0.6-1
		c-8.6-1.1-16.7-7.1-23.9-12.8c-4.4-0.8-8.8-1.2-13-1.8c-1.4-0.2-2.8-0.4-4.1-0.6c-3.4,0.9-6.4,1.3-8.6,0.6
		c-27-24.5-51.5-49.1-72.9-78.8c-10,2-20.5,8.4-28.6,13.2c-8.8,5.2-17.4,11.7-23.6,20c43.9,30.7,95.3,50.2,135.6,87.6
		c13.3,11,32.2,14.8,50.9,11.8c1.3-0.9,1.7-2.6,1.1-4.2C380,619.5,374.8,614.4,369,609.8"/>
	<path class="st7" d="M382.8,626.8c-1.9-4.8-4.8-8.6-8.2-12c-9.6,1.1-19.2,5.3-28.8,1.4c-27-13.5-49.5-36-76.6-51
		c-18-9.7-36-18.1-51.6-31.1c7.5-14.4,22.9-20.6,38.6-23.9c-3-3.8-5.9-7.7-8.8-11.7c-10,2-20.5,8.4-28.6,13.2
		c-8.8,5.2-17.4,11.7-23.6,20c43.9,30.7,95.3,50.2,135.6,87.6c13.3,11,32.2,14.8,50.9,11.8C383,630.1,383.4,628.3,382.8,626.8"/>
	<path class="st11" d="M240.5,478.1c-7-5.8-19.3-5.5-27.8-4.5c-8.8,1-18,7.7-25.1,12.5c-7.2,4.9-16.1,11.7-18,20.7
		c-0.3,1.4,0.3,2.4,1.2,2.9c4.4,12.7,14,22,25.7,28.4c1.7,1,3.7,0.5,4.5-1.4c7.9-18,28.3-26,46.3-30.1c1.3-0.3,2.5-1.3,2.5-2.7
		C250,496.4,246.6,483.2,240.5,478.1"/>
	<path class="st18" d="M209.2,511.2c-7.5,4.5-18-1.5-22.5-7.5c-3.4-3.4-5.8-7.6-6.5-12.1c-5,4.1-9.4,9.2-10.7,15.3
		c-0.3,1.4,0.3,2.4,1.2,2.9c4.4,12.7,14,22,25.7,28.4c1.7,1,3.7,0.5,4.5-1.4c7.9-18,28.3-26,46.3-30.1c1.3-0.3,2.5-1.3,2.5-2.7
		c0.1-2.4-0.2-5.4-0.9-8.6C235.1,498.9,221.8,504.4,209.2,511.2"/>
	<path class="st6" d="M319.2,222.4c-0.5-9.4-1.5-18.8-3-28.1c-1.1-7.4-4.3-15-3.4-22.5c0.3-2.2-1.6-3.1-3.2-2.6
		c-1.6-1.2-4.4-1.2-5.6,1.2c-9.1,18.1-33,22.3-50.7,16.2c-2.8-1-5,1.8-4,4.4c3.6,9.6,5.7,17.9,5,28.2c-0.5,7.4,0.8,14.7,1.1,22.1
		c-1-1.4-1.3-3.6-2-5.9c-1.1-3.6-2-7.3-3.7-10.7c-3.4-6.8-9.3-2.3-11,3c-2.8,8.9,1,19.8,8.1,25.4c6.2,4.9,7.1,12.3,11.4,18.6
		c4.3,6.4,9.8,12.2,16,16.6c9.5,6.7,22.8,7.7,32.4-0.2c8.5-6.9,10.3-17.5,11.6-27.8C320.1,247.9,319.9,234.8,319.2,222.4"/>
	<path class="st7" d="M266.3,220c-6.1,1.2-6.3,6.3-6.9,12.2c8.8-9.4,20.8-14.8,33.9-12.2C285.8,209.5,275.3,215.5,266.3,220"/>
	<path class="st7" d="M314.1,184.4c-1-4.2-1.7-8.4-1.2-12.6c0.3-2.2-1.6-3.1-3.2-2.6c-1.6-1.2-4.4-1.2-5.6,1.2
		c-9.1,18.1-33,22.3-50.7,16.2c-2.8-1-5,1.8-4,4.4c3.6,9.6,5.7,17.9,5,28.2c-0.5,7.4,0.8,14.7,1.1,22.1c-1-1.4-1.3-3.6-2-5.9
		c-1.1-3.6-2-7.3-3.7-10.7c-3.4-6.8-9.3-2.3-11,3c0,0,0,0.1,0,0.1c1.1,0.2,2.2,0.6,3.4,1.3c10.5,4.5,10.5,25.5,25.5,24
		c-9-19.5,1.5-39-3-60C281,196.8,300.3,195.3,314.1,184.4"/>
	<path class="st7" d="M312.8,250.1c-4.5,1.5-7.5,1.5-12,3c6.2,3.7,12.3,0.3,18.5-1c0.1-1.6,0.2-3.3,0.3-5
		c-6.4-7.6-12.3-15.5-9.7-25.6c0.6-6.3,3.8-10.7,8.3-13.3c-0.3-2.6-0.6-5.1-0.9-7.6C293.5,208.7,304.4,231.9,312.8,250.1"/>
	<path class="st19" d="M319.8,143.5c-0.2-2.9-3.9-2.9-5.5-1.2c-14.3,16.1-34.1,22.3-55.1,22.3c-9.6,0-26.2-0.1-28.2,11.6
		c-16.9,1.5-15.1,27.8-13.3,39.8c1.6,10.9,4.8,22,9.8,31.8c2.8,5.6,7.2,12.6,13.9,14c0.5,0.3,1.2,0.4,1.9,0.2
		c2.6-0.5,4.4-2.2,7.2-1.9c2.9,0.3,4.1-3,2.7-5.1c-0.7-0.9-1.3-1.9-2-2.8c-9.4-6-15.1-16.1-11.9-27.7c1.5-4.5,7.5,0,10.5,3
		c2.6,5.3,4.1,10.6,3.4,15.8c1.1,2.7,2.8,5.1,5.5,6.5c2.5,1.3,4.8-1.9,3.8-4.2c-7.1-15.6,5.8-40.1-2.7-55.1
		c13.7,0.8,27.8,0.1,40.3-5.7C316.5,177.2,321.1,160.2,319.8,143.5"/>
	<path class="st20" d="M239.2,187c-1.5-6-1.5-13.5,1.5-13.5c24.1-3.8,52.5-5.5,67-24.9c-13.5,11.4-30.6,15.9-48.5,15.9
		c-9.6,0-26.2-0.1-28.2,11.6c-9,0.8-12.7,8.5-13.9,17.5C222.2,187.5,229.4,184,239.2,187"/>
	<path class="st21" d="M287.3,181c-13.5,6-28.5,3-42,3c9,10.5,6,24,4.5,36c-7.5,0-15-4.5-18,3c-6,12,3,22.5,12,30
		c-4.4,0-8.7,0-12.5,1.2c2.6,3.6,5.9,6.8,10.1,7.6c0.5,0.3,1.2,0.4,1.9,0.2c2.6-0.5,4.4-2.2,7.2-1.9c2.9,0.3,4.1-3,2.7-5.1
		c-0.7-0.9-1.3-1.9-2-2.8c-9.4-6-15.1-16.1-11.9-27.7c1.5-4.5,7.5,0,10.5,3c2.6,5.3,4.1,10.6,3.4,15.8c1.1,2.7,2.8,5.1,5.5,6.5
		c2.5,1.3,4.8-1.9,3.8-4.2c-7.1-15.6,5.8-40.1-2.7-55.1c13.7,0.8,27.8,0.1,40.3-5.7c14-6.6,19.4-20,19.8-34.3
		C310.5,162,301.1,173.2,287.3,181"/>
	<path class="st22" d="M396.9,310.8c0.8-0.5,2.1,11.5,14.7,23.9c6.2,6,15.4,11.8,26.6,13.8c5.6,0.9,11.9,0.8,16.4-3.4
		c4.5-4,7.8-9.8,10.3-15.9c8.7-24.8,11.6-50.7,4.7-66.7c-7.9-15.6-19.7-19.9-18.7-20.7c-0.6,0.4,11.4,3.9,20.2,20.1
		c7.4,16.8,4.8,42.7-4.1,68.2c-2.6,6.3-5.9,12.3-11,16.7c-5.2,4.7-12.5,4.8-18.2,3.8c-11.8-2.2-21.2-8.4-27.4-14.7
		C397.7,322.7,397.1,310.5,396.9,310.8"/>
	<path class="st22" d="M394.4,317.3c-0.3,0.1-2.7-6.4-1.2-17.2c1.1-10.9,9.7-24.9,23.2-34.3c13-10.2,29.1-12.9,31.6-23.2
		c3.1-9.4,1-16.3,2-16.3c0.2-0.1,3.6,6.2,1.1,17.3c-1.3,5.5-6.4,11.3-12.9,14.3c-6.1,3.3-12.7,7-19,11.6
		c-12.8,9.1-20.9,21.3-22.7,31.3C394.1,310.7,395.2,317.3,394.4,317.3"/>
	<path class="st22" d="M394.6,517.2c0,0.1-5.3-1.6-12.2-8.6c-7.5-6.8-10.4-23.8-1.6-39.2c3.7-8,10.8-15,13.8-23.9
		c3.7-9.4-5-17.4-14-23.6c-9.2-6.4-19.5-13.8-25.7-25.4c-3-5.7-4.4-13.1-2.1-19.8c1.9-6.7,7-12.1,11.4-16.6
		c9.1-8.8,10.6-21.7,9.8-33.7c-0.6-12.1-2.2-24-2.8-35.3c-1.1-22.5-0.9-43.8,6.4-60c7-16.6,21.1-24.3,30.4-26c9.6-2,15-0.5,14.9-0.4
		c0,0.5-5.4-0.4-14.5,2.1c-8.9,2.2-21.7,9.8-27.9,25.6c-6.6,15.4-6.5,36.2-5.2,58.5c0.7,11.2,2.4,22.9,3.1,35.4
		c1,12.1-0.7,27.1-10.9,37c-9.8,8.5-14.8,20.8-8.6,31.3c5.4,10.4,15,17.6,24.2,24.1c4.6,3.4,9.1,6.9,12.5,11.6
		c3.6,4.6,4.5,11.4,2.6,16.5c-3.8,10.3-10.9,16.7-14.5,24.2c-8.7,14.7-6.5,29.8,0.1,36.6C389.9,514.4,394.9,516.7,394.6,517.2"/>
	<path class="st22" d="M419.4,438.9c-0.7-0.1,3-6.6,2.5-17.8c0-11.3-6.9-25.6-17.5-39.1c-5-6.9-11-12.9-13.9-20.1
		c-3-7.1-3.3-14.3-2.5-19.9c1.8-11.4,5.9-17.4,5.9-17.4c0.5,0.2-3,6.5-4.4,17.6c-0.6,5.5-0.1,12.3,2.9,18.9
		c2.8,6.7,8.6,12.6,13.8,19.6c10.7,13.5,17.7,28.7,17.3,40.4C423.5,432.7,419.3,439,419.4,438.9"/>
	<path class="st22" d="M413.6,517.4c-0.1,0.2-2.6-1.4-5.9-5.4c-3.3-3.8-7.2-11.9-4.3-21.5c4.9-19.2,29.6-34.2,39.4-58.5
		c3.4-13.1-7.6-23.1-13.6-33.8c-1.4-2.9-2.8-6-2.5-9.5c-0.2-2.9,0.3-5.3-0.5-7.9c-0.8-5.1-2.5-9.7-4.3-13.8
		c-7.4-16.4-14.6-25.5-13.8-25.9c0.3-0.2,8.3,8,16.7,24.6c2,4.2,4.1,8.9,5.1,14.5c1.3,6-0.3,11.4,2.9,16
		c5.2,9.4,18.2,20.6,14.3,36.8c-4.6,14.7-15.3,23.5-22.9,32.8c-8,8.9-15.1,17.3-17.8,25.6c-2.9,8.3-0.1,15.5,2.7,19.5
		C411.8,515.1,413.9,517.1,413.6,517.4"/>
	<path class="st22" d="M473.7,263.1c-2,0.4,0-19.2-12.4-37.2c-12.7-18.3-32.5-20.3-32.1-20.6c-1-2.3,21.7-2.2,35.8,18
		C478.5,243.3,474,263.6,473.7,263.1"/>
	<path class="st22" d="M324.3,572.9c-0.7,0.1-2.1-11.6-1.8-30.4c0.2-18.9,3.5-44.6-0.1-72.9c-1.5-14.1-3.7-27.5-6-39.7
		c-1-5.9-2.8-12.1-1.5-18.1c1.1-5.9,4-10.7,7.2-14.4c13.6-13.9,24.8-18,24.8-18c0.8,0.9-10.2,6.4-22.3,20
		c-6.3,7.2-7.9,17.4-4.1,29.7c2.5,12.2,4.9,25.7,6.4,40c3.7,28.8-0.2,55-1.1,73.5C324.5,561.3,324.9,572.9,324.3,572.9"/>
	<path class="st22" d="M387.4,578.9c-0.2,0.2-5.9-6-14.4-16.7c-3.7-5.1-11-11.8-10.1-21.5c-0.2-9.1,0.6-18.9,1.4-29.3
		c3-41.3,8.6-74.6,9.5-74.4c0.3,0.1-4.3,33.3-7.3,74.6c-0.8,10.3-1.6,20.1-1.6,29c-1,9.3,5.5,14.9,9.2,20.6
		C382.4,572.1,387.6,578.7,387.4,578.9"/>
	<path class="st22" d="M451.1,428.6c-0.3-0.6,3.7-1.6,8.2-5.9c4.6-4.2,8.7-11.9,10.6-21.3c3.8-18.8,0.9-34.6,1.8-34.6
		c0.4-0.2,4.3,15.6,0.4,35.1c-1.9,9.7-6.5,17.9-11.7,22C455.3,428.1,451.1,428.6,451.1,428.6"/>
	<path class="st22" d="M467.7,364.8c0.1,0.3-6.7,1.6-13.9-2.9c-7.8-5.9-3-14.4-2.8-13.4c0.8-0.2-2.1,7.2,4.1,11.6
		C461.1,364,467.9,364,467.7,364.8"/>
	<path class="st22" d="M490.4,373.9c-0.5,0.3-3.8-2.4-9.1-4.5c-5.1-2.2-9.4-3.9-9.2-4.5c0.2-0.6,4.8,0.2,10.1,2.5
		C487.8,369.4,491,373.5,490.4,373.9"/>
	<path class="st22" d="M488.9,580.9c0.2,0.3-10.9-8.3-14.5-28.9c-1.6-10.1-0.3-22.8,5.5-35.2c6.1-12.1,14.7-23.8,20.4-37.5
		c7.6-13.8,2.8-27.5-3.8-38.8c-3.1-5.7-6.6-10.9-9.6-16c-3.5-5.6-3.5-11.7-3.5-16.7c1-20.4,6.3-32,6.9-31.7c0.6,0.1-3.5,12-3.7,31.7
		c-1.3,10.3,6.6,18.8,13.5,30.6c3.3,5.8,6.6,12.3,8,19.8c1.9,7.7-0.8,15.9-3.7,22.8c-6,14.4-14.9,26.3-20.9,37.6
		c-5.6,11.5-7.3,23.4-6.1,33C480.1,571.1,490,580.4,488.9,580.9"/>
	<path class="st22" d="M536,545.9c-0.7,0-0.9-10.6-4.2-27.4c-2.5-17-9.8-39.5-10.6-66.5c0.7-13.1,1.1-25.5,1-36.7
		c-0.8-10.8,0.9-22.7-5.7-27.1c-13.4-10-24.1-12.9-23.8-13.4c0.1-0.7,11.1,1,25.8,10.9c4.1,2.3,6.3,8.4,6.6,13.2
		c0.7,5.1,1,10.5,1.2,16.3c0.4,11.4,0.1,24-0.7,37c0.7,25.4,7.5,48.8,9.2,65.8C537.4,535.1,536.5,546,536,545.9"/>
	<path class="st22" d="M516.2,611.7c-0.2,0.2-3.7-5.2-13.6-6.6c-4.7-1.3-10.4-0.4-17-3.7c-2-1.3-1.6-4.2-0.6-5.7
		c0.7-1.4,1.3-2.9,1.8-4.6c1.1-3.2,2-6.7,2.9-10.3c6.7-28.8,9.5-52.6,9.5-52.6c1.2,0-0.6,24.2-7.3,53.1c-0.9,3.6-1.8,7.1-3,10.5
		c-0.8,3.4-4,6.9-2,8c4.9,2.6,11.5,2.4,16,3.7C513.1,605.3,516.7,611.7,516.2,611.7"/>
	<path class="st22" d="M388.4,580.2c0,0.5-8,0.9-14.8,7.8c-7,6.4-11.1,13.1-11.7,12.7c-0.5-0.2,2.8-7.7,10.2-14.4
		C379.3,578.9,388.7,579.4,388.4,580.2"/>
	<path class="st22" d="M453.1,667.7c0.1-0.1,2.1,1.7,5.4,5.3c3.4,3.5,7.1,9.7,15.1,13.1c3.1,1.4,10,4.3,11,0.4
		c0.7-4.6-0.5-10.2-1.9-15.5c-1.6-11.9-11.7-19.7-22.9-26.7c-23.3-13.1-39.4-31.4-52.5-42.5c-12.7-11.8-20.2-19.3-20-19.6
		c0.2-0.2,8.2,6.9,21.1,18.4c13.4,10.8,29.7,28.9,52.6,41.8c11,6.6,22.3,15.9,23.7,28.1c1.3,5.6,2.5,11,1.7,16.5
		c-0.4,3.7-5.1,3.5-7,3c-2.4-0.6-4.6-1.4-6.5-2.4c-8.3-3.7-12-10.4-15.1-13.9C454.9,669.8,453,667.9,453.1,667.7"/>
	<path class="st22" d="M450.9,666.5c-0.5,0.6-3.9-3.2-6.3-10c-0.7-1.4-1.5-4-2.5-3.9c-1.7-0.9-3.7-1.9-5.9-2.8
		c-4.3-1.9-9.1-4-14.2-6.1c-20.3-8.6-36.6-15.9-36.2-17.1c0.4-1.1,17.5,4.3,37.9,12.9c5.1,2.2,9.9,4.3,14.2,6.5
		c2.2,1.1,4.2,2.2,6.1,3.5c3,2.2,2.5,4.3,3.4,6C449.3,662.5,451.2,666,450.9,666.5"/>
	<path class="st22" d="M469.7,645.5c-0.2-0.2,1.2-2.4,3.8-5.8c1.1-1.6,3.3-3.7,4.6-5.6c1.1-2.3,2-5.3,2.9-8.3
		c3.4-12.3,5.6-22.5,6.3-22.4c0.6,0.1-0.7,10.5-4.1,23c-0.9,3.1-1.8,6.1-3.2,8.7c-2,2.6-3.7,3.9-5.2,5.6
		C471.7,643.8,469.9,645.7,469.7,645.5"/>
	<path class="st22" d="M487.7,676c-0.6-0.1-0.8-4-0.2-10.2c0.6-5.8,1.1-15.9,7.1-23.9c10.1-16.3,19.7-28.4,20.7-27.7
		c1.1,0.7-6.9,14-16.8,30c-5.7,7.6-6.1,15.7-7.8,22C489.3,672.3,488.3,676.1,487.7,676"/>
	<path class="st22" d="M475.7,508.2c0,1.2-18-0.5-36.5,10.1c-17.9,11-30.4,23.5-30,23.7c-2.5-1.4,8.9-16.1,27.8-27.6
		C456.9,503,476.3,506.9,475.7,508.2"/>
	<path class="st22" d="M255.8,330.7c-1,0.5-11.8-15.2-21.7-36.8c-1.2-2.8-2.3-5.4-3-8.4c-1.1-3.3,0.4-7,1.6-9.1
		c2.6-4.7,5.5-8.4,8.2-11.3c5.1-5.9,10.1-8.2,10.4-7.2c0,0.3-3.5,3-8,9.2c-2.2,3-4.8,6.8-6.9,11.1c-2.8,4.3-0.4,8,1.8,13.9
		C247.8,313.2,257,330.1,255.8,330.7"/>
	<path class="st22" d="M277.5,303.7c-0.1,0.3-10.9-5.9-19.7-18.2c-9.6-12.5-7-26.4-5.8-25.7c0-0.1-1.5,12.5,7.6,24.4
		C268.1,296.1,278.1,303,277.5,303.7"/>
	<path class="st22" d="M279,306.7c-0.3-0.3-7.8,1.8-12.4,11.1c-4.9,8.5-7.7,16.1-7.9,15.9c-1-0.1,0.9-8.3,6-17.1
		c2.6-4.3,5.7-8,8.9-9.6C276.8,305.4,279.2,306.5,279,306.7"/>
	<path class="st22" d="M309,305.9c0.3,0,0.3,2.5-0.5,6.5c-0.4,2-0.9,4.3-2.1,6.9c-0.7,1.2-1.3,2.9-3.6,3.4c-2.3,0-3.4-1.1-4.8-1.9
		c-10-7.5-16-15.3-15.7-15.7c0.5-0.6,7.4,6.7,16.9,13.8c5.2,5.2,6.3-4.3,7.7-6.9C308.1,308.3,308.7,305.9,309,305.9"/>
	<path class="st22" d="M310.6,301.8c-0.5-0.5,4.5-5.1,5.5-13.4c1.5-8,0.6-14.6,1.3-14.7c0.6-0.2,2.5,6.7,1,15.2
		C317.2,297.7,310.7,302.4,310.6,301.8"/>
	<path class="st22" d="M340.6,324.3c-0.5,0.4-6.5-6-13.3-14.4c-3.3-4-7.1-7.3-10.3-7.5c-3.1-0.1-4.7,2-5,1.6c-0.2,0.1,0.8-2.8,5-3.2
		c4.2-0.1,8.5,3.5,12,7.6C335.9,316.9,341,323.9,340.6,324.3"/>
	<path class="st22" d="M341.3,318.7c-1.3-0.1-0.3-17.4,1-38.4c0-3,0.6-4.6-0.7-6.2c-1.1-1.8-2.7-3.6-4.2-5.2
		c-3.1-3.2-6.2-5.9-8.8-8.1c-5.3-4.5-8.8-6.6-8.7-7.1c0.2-0.7,4.7,0.6,10.5,4.5c3,1.9,6.4,4.4,9.8,7.7c1.7,1.6,3.5,3.4,5.1,5.8
		c2,2.6,1.6,6.6,1.5,8.7C345.5,301.9,342.5,318.8,341.3,318.7"/>
	<path class="st22" d="M172.1,493.2c-2.4,0.2-15.6-45.7-11.2-109.2c1.1-15.9,2.3-31,4.4-44.8c1-15,12.5-24.5,20-31
		c16.5-13.2,40.7-24.2,40.9-23.7c0.3,0.6-23.3,12.5-38.8,26.1c-7.3,7-17.4,15.5-17.9,29.2c-1.8,13.5-2.9,28.6-4,44.5
		C161,447.7,172.1,493.1,172.1,493.2"/>
	<path class="st22" d="M235.9,474c0.8-0.1-10.7-24.8-11.4-56.1c1.4-15.8,6.7-29,9.2-38.8c3-9.7,4-15.8,4.1-15.9
		c0.6,0,0.1,6.4-2.6,16.3c-2.2,9.9-7.2,23.3-8.5,38.4C227.4,448.7,237.9,474.1,235.9,474"/>
	<path class="st22" d="M234,478.1c0,1.7-17.3-3.1-34.8,6.9c-17.1,10-25.5,25.3-26.8,24.2c-0.8-0.1,5.8-17.1,24.6-28.1
		C216.6,470.2,234.9,477.6,234,478.1"/>
	<path class="st22" d="M198.3,531.8c-0.2,0,1.6-5,8.1-9.7c6.3-4.8,16.2-9.5,27.2-14c5.3-2.4,11-4.4,14.4-7.4
		c1.6-2.8-2.3-8.3-3.6-11.3c-3.8-6.7-6.6-10.7-6.3-10.9c0.2-0.2,3.4,3.5,7.7,10.1c1.3,3.6,6.2,6.9,3.8,13.4c-4.3,4-9.7,5.6-15.1,8.1
		c-11,4.5-20.8,8.9-27.1,13.2C200.9,527.6,198.7,532,198.3,531.8"/>
	<path class="st22" d="M192,528.8c-0.8,0.9-5.5-1.9-9.7-6.8c-4.3-4.9-6.6-9.7-5.6-10.4c1-0.7,4.9,2.7,9,7.5
		C189.7,523.8,192.8,527.8,192,528.8"/>
	<path class="st22" d="M351.5,594.1c0.1-0.3,2.2,1.1,6.5,1c2.1,0,4.7-0.4,7.2-1.8c4-2.4-2.3-1.3-5.3-3.6c-7-3.1-13.7-11.1-23.7-10.9
		c-5-0.1-10.3,0.4-16,0c-5.9,0.6-11.8-3.9-14.9-8.6c-30.6-35.6-54.8-65-54.3-65.4c0.5-0.4,25.4,28.3,56,63.9
		c6.2,11.4,19.5,7.1,29.2,8c11.2,0.1,17.8,8.5,24.4,11.6c1.7,1,3.2,1.4,4.9,1.8c0.7,0.1,2.5,0.5,2.3,2.2c-0.4,1.2-1.3,1.6-1.9,2.1
		c-2.9,1.5-5.7,1.7-7.9,1.6C353.5,595.7,351.4,594.1,351.5,594.1"/>
	<path class="st22" d="M345.3,590.5c0.3-0.2,2.5,2.8,7.2,7.4c4.4,4.9,13.6,8.3,23.3,15.9c2.4,1.8,4.9,3.8,7.3,6.4
		c0.9,1.5,2.9,2.2,2.5,6c-2.1,3.5-4.4,2.5-6.1,3.1c-7.3,0.8-14.8,0.4-22.8-0.3c-7.7-1.3-16.7-0.5-24.7-6.5
		c-7.1-5.3-13.5-11.5-20.4-17.3c-60.7-39-112.5-68.7-111.1-70.7c0.1,0.1,52.1,27.5,114,67.3c7,5.9,13.4,12.2,20.1,17.2
		c5.8,4.9,15.1,4.7,22.5,5.9c7.7,0.8,15.3,1.3,22,0.7c4.3-0.6,3.8,0.3,1.4-3.1c-2-2.3-4.4-4.3-6.6-6.2c-8.9-7.5-18.2-11.5-22.6-17.2
		C346.8,594,345,590.7,345.3,590.5"/>
	<path class="st22" d="M297.3,458.1c0.1,0.4-5.3,3.1-15.3,4.8c-2.5,0.3-5.4,0.8-8.9-0.8c-4.2-2.2-3.7-7.6-2.2-10.6
		c3.1-6.9,9.5-11,14-16.3c4.9-5.7,6-11.7-0.7-12.7c-5.6-1.5-11.6-0.9-16.2-0.4c-9.6,1.1-14.7,4-15.1,3.5c-0.5-0.5,4.7-4.7,14.6-6.7
		c4.9-0.9,10.9-2,17.8-0.5c3.1,0.5,8.3,3.3,8.2,8.5c-0.2,4.6-2.6,7.9-5,11.1c-5.2,6-11.3,10-13.6,15.1c-3.3,6,2,6.9,7,6.6
		C291.1,458.9,297.1,457.3,297.3,458.1"/>
	<path class="st22" d="M313.3,405.1c-0.3-0.1,0.3-17.9-4.5-39.6c-4.6-21.8-4.2-40-3.5-39.9c0.5,0.1,1.1,17.8,5.7,39.6
		C315.9,386.9,314.2,405.3,313.3,405.1"/>
	<path class="st22" d="M454.9,554.7c-0.2,0.6-11.5-2.1-25.4,1.3c-13.8,3.2-24.4,7.9-24.7,7.2c-0.2-0.4,10.1-6.2,24.2-9.4
		C443.4,550.3,455.3,554.1,454.9,554.7"/>
	<path class="st22" d="M254.3,260.1c0.4-0.4,1.6,11,14.5,21.6c6.3,4.9,14.7,11.7,25.6,8.7c12-0.1,17.8-11.8,22.1-23.4
		c4.2-49.3-2.4-90.8-2.1-90.5c0.8-0.3,8.7,40.4,4.2,91.2c-2.1,6.1-4.9,11.7-8.5,16.6c-3.2,5.8-10.3,7.1-15.3,8.1
		c-11.6,3.1-21-4.5-27-9.5C254.7,271.5,254.1,259.7,254.3,260.1"/>
	<path class="st22" d="M249.3,186c-0.4,0.8,21.4,4.3,45.9-3.6c11.7-4.7,17.1-16,19.2-23.9c2.2-8.1,2.2-13.5,2.9-13.5
		c0.6-0.1,1.7,5.4,0.2,14.3c-1.3,8.4-7,21.9-20.6,27.4C270.6,195.2,247.7,189,249.3,186"/>
	<path class="st22" d="M261.3,245.5c-0.5,0.3-2.6-2.1-4.8-6.7c-1.1-2.3-2.2-5.2-2.8-8.7c-0.9-3.6,0.9-8.1,1.1-10.9
		c0.3-14.3-2.5-26.6-1-26.8c0.9-0.2,5.8,11.2,5.5,27.2C254.6,234.1,263.3,244.9,261.3,245.5"/>
	<path class="st22" d="M261.8,247.6c-0.1,0.6-2.1,0.9-4.5,0.7c-2.4-0.2-4.3-0.9-4.3-1.5s2.1-1,4.5-0.7
		C259.9,246.3,261.8,246.9,261.8,247.6"/>
	<path class="st22" d="M252.3,252.3c0.4,0-4.5,1.5-8.1-3.9c-2.5-5-7-11.8-6.2-21.2c-0.5-5.7,8.6-7.3,10.4-2.9
		c2.3,3.4,2.8,6.8,3.3,9.6c0.8,5.6,0.4,9.1,0.1,9.1c-0.3,0-0.6-3.4-1.7-8.8c-0.6-2.6-1.4-5.9-3.3-8.6c-1.8-2.7-6.5-2.3-6.5,2
		c-0.8,7.9,3.3,15.2,5.3,20C248.1,252.4,252.5,251.7,252.3,252.3"/>
	<path class="st22" d="M243.3,260.1c-0.6,0.9-15.7-15.1-20.3-40.8c-2.4-12.5-2.3-24.7,1.3-32.8c3.7-8.5,10.5-9.4,10.3-8.9
		c0.5,0.7-4.9,2.5-7.3,10.1c-2.5,7.4-2.2,18.7,0.1,30.8C231.7,242.8,244.5,259.3,243.3,260.1"/>
	<path class="st22" d="M314.3,144.7c0.3-0.1,0.5,5.9-5.9,12c-6.3,6.3-18.4,9.1-30.7,9.6c-12.4,0.4-23.4,0.5-31.1,1.9
		c-8.1,1-9.1,6.6-9.8,6.3c-0.8,0.5-0.2-7.4,9.1-9.4c8-2.3,19.5-2.9,31.6-3.3c12.1-0.5,23-2.6,28.8-7.5
		C312.4,149.7,313.4,144.4,314.3,144.7"/>
	<path class="st22" d="M366.3,277.8c-0.1,0.6-4,0.4-8.6-0.5c-4.6-0.9-8.3-2.1-8.2-2.7c0.1-0.6,4-0.4,8.6,0.5
		C362.8,276,366.5,277.2,366.3,277.8"/>
	<path class="st22" d="M459.7,316.3c-0.2-0.1-5-10.3-7.9-24.9c0.1-8,6.4-13.4,10.9-14.6c4.7-1.5,7.8-0.6,7.7-0.6c0,0.5-3,0.3-7.1,2
		c-4.1,1.6-9.2,6.4-9.3,13.1C456.7,304.8,460.7,316.2,459.7,316.3"/>
	<path class="st22" d="M439.9,281.6c-0.3,0.5-6.1-2-13.9-0.8c-7.9,0.7-12.7,4.6-13.1,4.3c-0.8-0.4,4.4-5.9,12.9-6.5
		C434,277.2,440.4,281.1,439.9,281.6"/>
	<path class="st22" d="M458.4,317.6c0.4,0.5-1.4,1.6-3.2,1.5c-1.7,0-2.9,0.1-3.3-0.5c-0.3-0.5,1.2-1.7,3.2-1.7
		C456.9,316.9,458,317,458.4,317.6"/>
	<path class="st22" d="M449.4,328.6c0.3,0.6-3.4,2.2-7.7,1.1c-4.1-1-7.1-2.2-7.1-2.8c0.1-0.7,3.6-0.4,7.6,0.6
		C446.1,328.4,449.1,328,449.4,328.6"/>
	<path class="st22" d="M446.9,334.6c0.4,0.3-0.7,2.4-3.4,2.9c-2.6,0.3-4.3-0.9-4.2-1.4c0.2-0.7,2-0.6,3.8-0.8
		C445,334.9,446.4,334.1,446.9,334.6"/>
	<path class="st22" d="M312.3,248.8c-0.1,0-7-8.8-11-22.3c-2-6.9,0.8-14.2,4.8-16.8c3.8-2.8,6.7-3.3,6.7-3.1
		c1.2,0.3-13.3,5.1-9.3,19.5C307.2,238.7,313.3,248.4,312.3,248.8"/>
	<path class="st22" d="M310.8,253.3c-0.6,0.5-1.8-0.1-3.4,0.1c-1.8,0.4-3.7,0.5-3.8-0.1c-0.1-0.6,1.2-1.7,3.5-2.1
		C309.9,250.8,311.3,253.1,310.8,253.3"/>
	<path class="st22" d="M308.5,262.6c0.2,0.6-4.3,2.6-10.2,3.1c-6.1,0.8-10.9-2.3-10.3-2.9c0.4-0.3,4.3,1.3,10.1,0.6
		C303.8,262.9,308.3,261.9,308.5,262.6"/>
	<path class="st22" d="M301.5,270.8c0.3,0.5-1.4,1.6-3.6,1.6c-2.1,0-3.7-0.8-3.6-1.4c0.1-0.6,1.7-0.9,3.6-0.9
		C299.8,270.2,301.3,270.2,301.5,270.8"/>
	<path class="st22" d="M290.3,216.3c-0.2,0.8-6.1-1.7-12.9,1c-6.5,2.8-11.5,6.7-11.9,6c-0.3-0.3,3.9-5,11.1-8.1
		C284.4,212.2,290.7,216,290.3,216.3"/>
	<path class="st22" d="M411.3,270.1c-0.6-0.8,8.6-5.8,16.2-15.3c7.7-9.7,9.8-19.8,10.4-19.6c0.6-0.1-0.6,10.8-8.6,21
		C421.2,266.3,411.4,270.4,411.3,270.1"/>
	<path class="st23" d="M494.4,455.4c-3.9-6-7.1-12.4-10-19c-1.3-2.9-3.8-3.9-6.4-3.7c-4.8-4.3-14.3-0.4-12.3,7.5
		c0.1,0.4,0.2,0.7,0.3,1.1c-1.6,1.2-2.7,3.1-2.5,5.9c0,0.4,0.1,0.8,0.1,1.1c-0.9,0.4-1.7,0.9-2.4,1.5c-4.1-0.2-8.6,2.5-8.6,7.4
		c0,2.3,0.7,4.4,1.7,6.3c-1.7,0.7-3.3,1.5-5,2.2c-7.6,3.7-2.2,16.7,5.8,13.7c0.6-0.2,1.2-0.4,1.8-0.7c1,0.2,2.1,0.1,3.2-0.3
		c1.5-0.6,3-1.1,4.5-1.8c6.3,0.9,12.4,0.8,18.5-1.2c4.1-1.4,5.7-5.3,5.2-8.7c0.6-0.1,1.2-0.2,1.8-0.3
		C494.7,465.7,496.8,459.1,494.4,455.4"/>
	<path class="st23" d="M463.4,527.4C463.4,527.4,463.4,527.4,463.4,527.4c-2.2-4.5-8.5-4.6-11.8-1.5c-0.9,0.8-1.7,1.6-2.6,2.2
		c-2,0.9-3.9,1.8-5.8,2.8c-2.4-1.2-5.3-0.9-7.6,1.9c-0.5,0.6-1,1.2-1.5,1.8c-7.1,4.9-2.7,15.4,5.8,13.7c0.9-0.2,1.9-0.4,2.8-0.7
		c0.2,0,0.3-0.1,0.5-0.1l4.2,17.3c-2.8,0.5-5.3,2.4-5.7,5.3c-0.1,1-0.3,2-0.4,3c-2.1,0.7-3.9,2.3-4.6,5c-2.4,8.7-0.9,16.4,4.9,23.3
		c1.8,2.1,4.8,2.6,7.4,1.8c0.1,0.2,0.3,0.4,0.4,0.6c5.7,7.7,18.7,0.3,13-7.6c-2.9-3.9-4.8-8.1-6.1-12.7c-0.1-0.6-0.2-1.3-0.3-1.9
		c1.6,0,3.1-0.4,4.4-1c4.7,3.3,12,1.1,12-5.7c0.1-15.5,0.2-30.3-6-44.8C465.8,529,464.7,528,463.4,527.4"/>
	<path class="st24" d="M349.8,477.5c0-1,0-2.1-0.1-3.1c0.5-0.4,0.9-1.1,1-1.9c1-9.3,0.8-18.5-0.1-27.8c-0.2-1.9-1.8-2.5-3.2-2.1
		c-0.7-2.2-1.5-4.4-2.4-6.6c0-0.3-0.1-0.6-0.1-0.9c-0.3-6.5-0.9-12.9-1.8-19.3c-0.3-1.9-2.2-2.2-3.4-1.5c-0.2,0-0.4,0.1-0.7,0.2
		c-0.5,0.3-1.1,0.5-1.7,0.9c-0.1-0.1-0.2-0.2-0.3-0.3c0-3.3-0.3-6.7-0.9-10.1c-0.2-1.5-2.8-1.5-2.8,0.1c0.1,2.7,0.2,5.5,0.5,8.2
		c0,1.9-0.2,3.8-0.4,5.7c0,0-0.1,0.1-0.1,0.1c-0.1,0.3-0.1,0.7-0.1,1c-0.1,0.6-0.2,1.3-0.3,1.9c-0.1,0.8,0.4,1.5,1.1,1.8
		c0.6,10.7,2.9,21.3,6.4,31.5c0.2,0.7,0.8,1.1,1.4,1.3c0.5,3.9,1.1,7.7,1.9,11.5c0.1,3.9,0.2,7.7,0.2,11.6c-0.2,0.4-0.3,0.8-0.3,1.3
		c0,0.4,0,0.8,0,1.3c-0.1,0.2-0.1,0.5-0.1,0.7c0,3.6-0.2,7.2-0.5,10.7c-0.8,4.1-1.5,8.2-2.4,12.3c-0.3,1.3,0.3,2.2,1.3,2.7
		c-0.2,3.1-0.4,6.2-0.4,9.3c-0.1,4.1,6.2,4.7,6.3,0.6c0-2.8,0.2-5.7,0.4-8.5c0.9-0.4,1.6-1.2,1.6-2.5c0-3.7,0-7.4,0-11.1
		c0.6-5.3,1.2-10.6,1.8-15.9C351.9,478.8,351,477.8,349.8,477.5z M338.9,420.2C338.9,420.1,338.9,420.1,338.9,420.2
		c0.1,0,0.1,0.1,0.1,0.2C338.9,420.3,338.9,420.2,338.9,420.2"/>
	<path class="st24" d="M517.2,400.2c-3.4-3.5-6.6-7.3-10.1-10.7c-0.7-0.7-1.6-1-2.4-0.9c-1.2-0.5-2.6,0.5-2.5,1.6
		c-0.9,0.9-1.3,2.3-0.3,3.5c1.4,1.8,2.2,3.9,3,6c-1,0.4-1.9,1.3-1.6,2.8c0.4,2.2,0.8,4.3,1.3,6.4c0.1,1.9,0.3,3.7,0.6,5.6
		c0.2,1.2,1,1.9,1.8,2.1c0.1,0.2,0.1,0.3,0.2,0.5c0.1,3.8,0.4,7.6,1.6,10.9c0.6,1.8,3.6,1.6,4.1-0.2c1.7-5.3-0.1-11.1-0.3-16.5
		c-0.1-1.7-1.3-2.7-2.6-2.9c-0.1-0.3-0.2-0.7-0.3-1c-0.1-1.9,0-3.7,0.2-5.6c1,0.9,2.1,1.8,3.1,2.7
		C515.8,406.8,519.6,402.6,517.2,400.2"/>
	<path class="st24" d="M524,511.2c-0.2-0.5-0.6-0.8-1-1c-0.2-0.7-0.4-1.4-0.6-2c0-4.8-0.3-9.6-1.2-14.4c-0.5-2.5-4.6-2.5-4.6,0.2
		c0,0.4,0,0.8,0,1.2c-0.9,0.2-1.6,0.8-1.9,1.9c-1.5,7.2-1.1,14.2,1.3,20.8c0.1,2.5,0.3,5,0.5,7.5c-2.1,6.4-2.4,13.1-2.7,19.9
		c-0.7,4.1-1.1,8.3-0.9,12.7c0,0,0,0.1,0,0.1c0,0,0,0,0,0c0,0.2,0,0.4,0,0.6c0,0.3,0.1,0.6,0.2,0.8c-0.1,0.4-0.1,0.8-0.2,1.2
		c-1.8,4.6-4.1,9-7.2,13.1c-2.2,2.8,2.5,6.1,4.5,3.2c1.3-1.8,2.4-3.6,3.4-5.5c0.3,0,0.5,0,0.8,0c1,0.4,2.2,0.1,2.6-1.3
		c2.2-8.4,3.9-16.8,4.7-25.3c0.5-4.4,0.7-8.8,0.8-13.3c0.1-0.3,0.1-0.7,0.2-1c0.4,0.9,0.9,1.8,1.2,2.8c0.8,2,4.4,1.5,4.3-0.8
		C528.1,525,527.1,518,524,511.2"/>
	<path class="st25" d="M215.5,320.6c7.7-5.7,0.2-18.7-7.6-13c-1.3,0.9-2.5,1.9-3.8,2.8c-1.6,0.1-3.3,0.8-4.7,2.4
		c-1,1.1-2.1,2.2-3.2,3.4c-5.3,4-10.3,8.2-14.6,13.3c-7.2,8.7-10.3,19.6-11.9,30.5c-3.1,21.1-0.7,42.5-0.4,63.7
		c-0.2,0.8-0.2,1.7,0,2.7c0,2.6,0,5.2-0.1,7.8c-0.1,3.8,1.9,6,4.4,6.8c1.2,3.4,2.7,6.7,4.5,9.8c-0.2,5.8,0.5,11.6,1.3,17.3
		c0.6,4.1,5.7,6.2,9.2,5.2c4.3-1.2,5.8-5.2,5.2-9.2c-0.3-2-0.5-4-0.7-6c5.7,1.4,11.9,1.5,17.5,1.5c9.7,0,9.7-15,0-15
		c-5.2,0-11.8,0.5-16.5-2.1c-0.1-1.2-0.5-2.3-1.2-3.3c0.2-2.8,0.4-5.6,0.4-8.4c2.6-1.2,4.6-3.7,4.8-6.7c0.4-10.3-0.3-20.6-1.2-30.9
		c2.5-0.6,4.6-2.3,5-5.2c2-14.3-2.8-27.9-8-41c-0.2-0.4-0.4-0.8-0.6-1.2c4.1-7.1,9-13.6,14.3-19.8
		C210.4,324.2,213,322.4,215.5,320.6"/>
	<path class="st25" d="M296.9,380.2c-1.5-11.6-0.1-23.4-1.9-35.1c-1.2-7.5-12.8-6.8-14.5,0c0,0,0,0,0,0c-2.3-0.6-4.9-0.1-6.8,1.5
		c-3.9-2-9.2-1-10.3,4.5c-0.3,1.3-0.5,2.5-0.7,3.8c-3.5,0.3-6.8,2.7-6.6,7.2c0,0.2,0,0.4,0,0.6c-5.7,0.4-9.3,7.5-4.9,12.8
		c3.1,3.6,6.7,6.1,10.8,8.3c2.4,4.3,8.2,4.8,11.6,2c-1.2,2.7-2.7,5.3-4.5,7.7c-5.8,7.8,7.2,15.2,13,7.6c2.4-3.2,4.4-6.8,5.9-10.5
		c4.4,0.6,9.7-2.1,9.1-7.3C297.2,382.1,297,381.2,296.9,380.2"/>
	<path class="st25" d="M349.6,317.1c-2,4.8-4,9.6-6.7,14.1c-1.4,2.4-2.4,3.5-3.6,3.6c-0.7-4.6-5.8-9-11.3-6.1
		c-1.8,0.9-3,2.1-3.9,3.6c-1.7,1.7-2.5,4.2-1.6,6.9c0.1,0.2,0.1,0.4,0.2,0.6c0.4,6.1,3.3,13,4.8,17.4c3.1,9.2,16.3,5.5,14.5-4
		c-0.2-1.1-0.5-2.1-0.7-3.2c3-0.3,5.9-1.6,8.7-4.1c7.1-6.4,10.4-16.1,14-24.7C367.8,312.1,353.2,308.3,349.6,317.1"/>
	<path class="st26" d="M446.2,318.7c0.4-0.2,0.8-0.5,1-0.9c0.5-0.6,0.7-1.4,0.4-2.3c0-0.1,0-0.1,0-0.2c-0.6-3.6-1.5-7.1-2.2-10.7
		c-0.4-1.8-2-2.3-3.3-1.8l-3.3-9c1.3-0.5,2.2-1.9,1.5-3.6c-4-9.6-18.8-4.9-25.6-1.4c-1.1,0.6-1.6,1.7-1.5,2.9
		c-0.6,0.3-1.2,0.7-1.4,1.5c-0.1,0.2-0.1,0.5-0.2,0.7c-3.6,3.4-4.8,7.9-3.8,12.8c0.2,1,0.8,1.7,1.6,2c1,5.7,5.1,10.9,9.2,14.9
		c0.3,0.2,0.5,0.4,0.8,0.6c0.8,1.5,1.7,2.9,2.8,4.2c0.1,0.2,0.3,0.4,0.4,0.5c0.4,0.5,0.8,1,1.2,1.4c2.6,2.8,7-0.1,5.5-3.6
		c-0.4-0.8-0.7-1.7-1.1-2.5c0.2-1.4,0.5-2.8,0.7-4.2c0.9-0.1,1.8-0.3,2.6-0.6c1.2,0.3,2.5,0.6,3.8,0.8c0.3,0.1,0.6,0.1,0.9,0
		c0.7,0,1.3-0.2,1.9-0.5c1.4,0,2.8-0.7,3.3-2c0-0.1,0.1-0.2,0.1-0.3c0.2,0.2,0.4,0.4,0.6,0.7C443.2,319.4,444.9,319.4,446.2,318.7"
		/>
	<path class="st26" d="M444,274.5c0.5,1.3,1.9,1.9,3.3,1.7c-0.1,0.6-0.1,1.1-0.1,1.7c0.1,2.1,2.9,3.8,4.3,1.6
		c1.4-2.2,2.4-4.6,3.4-6.9c0.7-0.2,1.4-0.7,1.6-1.7c0.3-0.8,0.5-1.7,0.7-2.5c0.3,0.2,0.5,0.3,0.8,0.4c0.3,0.1,0.6,0.2,1,0.2h0
		c0.2,0,0.4,0,0.5,0c-0.1,0-0.2,0-0.3,0c1.2,0.1,2.3-0.9,2.5-2c0.4-1.3-0.1-2.5-0.9-3.7c-0.6-0.9-1.3-2.1-2.2-2.6
		c-1.4-0.8-3-0.4-3.8,0.6c-0.8-0.4-1.6-0.5-2.3-0.2c-1.3-1.4-4.2-1-4.5,1.5c0,0.3-0.1,0.5-0.2,0.8c-1.8-1.7-6,0.1-5.1,2.9
		C442.7,269.1,443.1,271.9,444,274.5"/>
	<path class="st26" d="M459,269L459,269c0,0,0.1,0,0.3,0c0,0-0.1,0-0.2,0C459.1,269,459,269,459,269"/>
	<path class="st26" d="M469.5,288.6c0-0.1,0-0.3,0-0.4c-0.3-2.9-4.2-2.3-4.6,0.2c0,0,0,0-0.1,0c-0.1,0.8-0.1,1.5-0.1,2.3
		c0,0,0,0,0,0c-0.9,0-1.9,0.4-2.3,1.3c-0.5,0.2-0.9,0.6-1.2,1.3c-1.3,2.9-0.9,6.3,0.4,9.1c1.3,2.9,5.3,1.3,5.1-1.6
		c-0.1-0.9-0.1-1.8-0.2-2.7c0.7-0.2,1.3-0.7,1.5-1.4c0.2-0.7,0.4-1.3,0.5-2c0.5-0.3,1-0.7,1.2-1.3c0.3-1,1-2.5,0.7-3.6
		C470,289.3,469.8,288.9,469.5,288.6"/>
	<path class="st26" d="M457.2,334.9c1.2,0,2.4-0.8,2.4-2.1c0-1,0.1-2,0.2-2.9c0.8-0.3,1.5-1,2-2c1.5-2.6-2.4-5.4-3.9-2.7
		c-0.1,0.1-0.1,0.1-0.1,0.2c-1,0-2,0.6-2.3,1.6c-0.2,0.1-0.4,0.3-0.6,0.5c-0.4-0.1-0.8-0.1-1.2,0c-1,0.2-1.8,1.3-1.9,2.2
		c-0.2,2.2-0.3,4.3-0.3,6.5c0,4,5.9,3.6,5.5,0c0-0.3,0-0.7,0-1C457.2,335.1,457.2,335,457.2,334.9"/>
	<path class="st26" d="M463.3,372c-1.3,0.3-2.6,0.5-3.9,0.8c-2.1-0.4-4.1-1-6.1-1.8c-0.1,0-0.1,0-0.2,0c-0.1-0.5-0.2-1-0.4-1.5
		c-0.5-1.9-2.8-2.6-4.2-1.9c-0.1,0-0.2,0-0.2,0c0-0.6-0.1-1.3-0.1-1.9c-0.2-2.9-4.9-2.6-5.1,0.2c-0.5,5.9-1,12.6,2.1,18
		c0.4,0.7,0.9,1.1,1.5,1.4c0.1,0.6,0.3,1.1,0.4,1.7c0.8,2.9,5.5,3.3,5.9,0.2c0.7,0,1.4-0.3,2-0.8c0.5,0.1,1.1,0.1,1.7,0.2
		c0,0.2,0,0.3,0,0.5c0,0.4-0.1,0.8-0.1,1.1c-0.2,3.3-0.3,6.6,0.1,9.7c0.4,3.3,5.1,2.8,5.6-0.2c0.7-4.5,1.2-9.5,0.9-14.3
		c0.3-1.3,0.7-2.7,1.3-3.9c1.2-0.6,1.9-1.9,1.9-3.2C467.5,374.2,465.6,371.5,463.3,372"/>
	<path class="st26" d="M294,280.3c-5.4,0.3-9.5-1.3-12.7-4.3c-0.8-1.9-1.8-3.7-3-5.4c2,0.2,4.1-1.1,3.4-3.4c-1-3.1-1.7-6.2-2.2-9.4
		c-0.1-2.2-0.2-4.3-0.6-6.5c-0.2-1.3-1.2-2-2.2-2.3c0.3-0.3,0.5-0.8,0.6-1.3c0.1-0.9,0.2-1.7,0.2-2.6c0.1,0.1,0.1,0.2,0.2,0.3
		c1.3,2.2,5.5,2.2,5.5-1c0-0.4,0-0.8,0-1.1c1.6,0.1,3.4-1,3.4-2.7c0-1.3,0-2.6,0-3.9c2.4,0.6,4.9-0.4,7.3-3.4
		c1.4-1.7,0.1-4.8-2.2-4.8c-1.5,0-3.1,0.1-4.6,0.3c-0.4-0.2-0.8-0.5-1.2-0.7c-1.1-2.2-3.7-2.1-5-0.6c-0.3,0-0.7,0-1.1,0
		c-1,0.2-1.9,0.5-2.7,0.8c-0.7-0.7-1.8-0.9-2.9-0.3c-2.3,1.2-3.7,2.6-4.5,4.4c-0.9,0.4-1.5,1.1-1.5,2.2c0,8.2,1.1,15.7,4.3,23.1
		c-1.3-0.1-2.6,0.7-3.1,2c-0.3-0.3-0.6-0.7-0.9-1c-1.2-1.2-3-1.2-4.2-0.4c-2.3-2-6.4,0.8-4.8,3.7c2.2,3.9,4.5,7.6,7.2,10.9
		c0.1,0.1,0.1,0.2,0.2,0.3c3.1,4.5,7,8,11.1,11.6c1.3,1.1,2.9,0.7,4.1-0.3c3.8,1.9,8.2,2.9,13.3,2.6
		C299.7,286.9,298.5,280,294,280.3"/>
	<path class="st26" d="M308.5,193.7c-4.1,0.4-7.8,2.6-10.9,5.5c-1.4-0.9-3.4-0.7-3.9,1.2c-0.2,0.7-0.4,1.4-0.6,2.1c0,0,0,0,0,0
		c-0.4-0.9-1.3-1.4-2.3-1.4c-0.5-0.8-0.9-1.6-1.4-2.4c-1.4-2.1-5-0.3-4.4,2.1c0.1,0.4,0.2,0.7,0.3,1.1c-0.8,0.3-1.6,0.4-2.3,0.5
		c-1.4-0.7-3.4,0.2-3.2,2.3l0,0.3c0.1,0.8,0.7,1.5,1.4,1.7c2.1,0.8,4.4,0.4,6.5-0.3c0.2,0.2,0.3,0.4,0.5,0.6c0.4,0.5,1,0.8,1.7,0.9
		c0.4,0.8,0.8,1.6,1.2,2.4c1,2.3,4,1.7,4.9-0.2c0.5-1.1,1-2.2,1.4-3.3c0.6-0.1,1.2-0.5,1.7-1c3.1-3.8,7.5-5.2,11.2-8.2
		C312.1,196,310.5,193.5,308.5,193.7"/>
	<path class="st26" d="M315.7,221.1c-1.2-1.3-3.3-1-3.9,0.7c-0.3,0.8-0.3,2-0.1,2.8c0.2,0.9,0.5,1.8,1.1,2.4
		c0.1,0.2,0.3,0.4,0.4,0.6c0.7,0.9,2,0.7,2.7-0.1c0.3-0.3,0.4-0.7,0.6-1c0.3-0.6,0.5-1.3,0.4-2.1C316.7,223.4,316.5,222,315.7,221.1
		"/>
	<path class="st26" d="M261.1,527.9c-0.2-0.2-0.4-0.4-0.7-0.5c-1.3-2.1-2.5-4.2-3.5-6.5c-1-2.2-4.9-1.8-5,0.7
		c-0.2-0.6-0.4-1.2-0.6-1.8c-0.7-1.8-3.2-1.7-4.3-0.4c-0.8-1.2-2.6-1.8-3.6-0.3c-0.4,0.7-0.8,1.4-1.4,2c-1.1,1.6-0.2,3,1.2,3.6
		c0.3,5.2,1.1,10.5,2.8,15.4c0.9,2.7,4.8,1.5,5.1-0.9c0.1-1,0.2-2,0.3-3.1c0.2,0.4,0.4,0.8,0.6,1.2c1.4,2.3,4.6,1.8,5-0.9
		c0.2-1.1,0.3-2.2,0.3-3.3c0.2,0.3,0.4,0.6,0.6,1c0.6,1.1,1.6,1.5,2.6,1.5c4.1,4.2,8.3,8.2,12.6,12.2c6.2,5.9,11.3,12.6,17.2,18.8
		c1.2,1.2,3.8,0.4,3.3-1.5C289.7,549.2,271.8,539.1,261.1,527.9"/>
	<path class="st26" d="M342.9,585.3c-4.1-2.6-10.5-4-15.3-3.3c-1.3,0.2-2.5,1.7-2.1,3.1c0.2,0.9,0.9,1.8,1,2.7
		c0.4,2.6,4,2.1,4.3-0.2c3.8,0.6,7.7,2.3,11.4,1.1C343.6,588.2,344.5,586.3,342.9,585.3"/>
	<path class="st26" d="M410.6,612.6c-7.6-7.2-15.4-12.2-18.9-22.6c-0.4-1.3-1.5-1.7-2.5-1.6c-0.1-1-0.3-2.1-0.6-3.1
		c-0.7-3-4.5-2.8-5.4-0.4c-0.7,0.3-1.3,1-1.4,1.8c0,0,0,0,0,0c-0.3,4.8,0,8.9,1.5,13.5c0.5,1.4,2.1,1.8,3.5,1.4
		c1.1,1.6,3.3,1.6,4.4,0.4c4.2,6.2,9.9,10.9,15.8,16.7c5.9,5.8,13.6,15.7,22.7,15c2.5-0.2,2.9-3.7,1.1-5
		C423.7,623.3,417.1,618.7,410.6,612.6"/>
	<path class="st26" d="M496.7,610.8c-0.2-0.2-1-0.7-1.3-0.8c-0.9-0.4-2.3-0.2-3,0.5c-1.3,1.2-2,3-2.8,4.6c-1.7,3.6-2.6,7.3-3.5,11.2
		c-0.5,2.2,2.1,3.8,3.6,1.9c3.2-4.1,6-10,7.1-14.9C497.4,612.5,497.5,611.6,496.7,610.8z M495.8,613.9
		C495.8,613.9,495.8,613.9,495.8,613.9C495.8,613.9,495.8,613.9,495.8,613.9C495.9,613.9,495.8,613.9,495.8,613.9"/>
	<path class="st26" d="M495.4,610c0,0,0.1,0,0.1,0C495.4,609.9,495.4,609.9,495.4,610"/>
	<path class="st27" d="M789.1,381.4C776.4,370,761,359.6,761,359.6c1.1,8.3-1.9,49.5-21.4,78c-19.5,28.5-31.1,72-31.1,121.9
		c0,49.9,13.1,98.7,28.5,123.8c15.4,25.1,15,55.1,15,55.1s63.4-22.5,69-31.1c0,0-7.5-37.9-27.8-75c-20.3-37.1-28.9-73.9-27-93
		c1.9-19.1,46.5-124.2,43.2-133.6C807.8,401.5,799.7,391,789.1,381.4"/>
	<path class="st28" d="M759.8,680.8c4.7-15.2,24.8-24,38.5-38.5c-1.6-3.3-3.3-6.6-5.1-9.9c-20.3-37.1-28.9-73.9-27-93
		c0.8-8.6,10.3-34.5,20.2-61.3c-13.4-1.3-24.2-9.8-31.1-20.8c0,15,12,28.5,7.5,42c-7.9,19.1-31,18-50.3,10.5
		c-0.7,4.1-1.3,8.4-1.9,12.7c13.5,10.1,31.8,17.9,44.6,3.8c-6,22.5,13.5,45,4.5,64.5c-9.5,20-26.3,34.6-40,51
		c4.8,16.8,10.8,31.3,17.1,41.6c15.4,25.1,15,55.1,15,55.1s8.2-2.9,19.1-7.1C765.8,713.4,754.2,695.9,759.8,680.8"/>
	<path class="st27" d="M606.2,352.1c-7.8,1.1-33.7,6.4-38.2,40.5c-4.5,34.1-4.1,110.7-6.8,132.8c-2.6,22.1-15.4,75-16.1,76.2
		c-0.8,1.1,51.8-31.5,64.5-58.9c12.8-27.4,28.1-57.8,14.6-85.2c-13.5-27.4-11.6-57-9.8-67.2C616.5,380.3,606.2,352.1,606.2,352.1"/>
	<path class="st28" d="M624.4,457.6c-13.5-27.4-11.6-57-9.8-67.2c1.9-10.1-8.4-38.3-8.4-38.3c-1,0.1-2.2,0.3-3.6,0.7
		c0,6.9,0.3,13.8-0.4,20.4c0,12-7.5,15-19.5,12c28.5,25.5-15,54-6,84c1.5,6,9.8,13.5,16.5,21c-8.1,12.2-22.8,18.6-31.4,29.5
		c-0.2,2.2-0.3,4.1-0.5,5.7c-2.6,22.1-15.4,75-16.1,76.2c-0.8,1.1,51.8-31.5,64.5-58.9C622.5,515.3,637.9,484.9,624.4,457.6"/>
	<path class="st6" d="M710.3,251.2c-13.7-27.4-45.2-47.9-43.5-79.5c-14.3,9.7-35.5,27.8-36,49.4c-0.5,22.5,1.5,66,8.5,81.5
		c7,15.5,16.5,19,16.5,19s1.5,8.5-3.5,13.5c-5,5-22.5,8.5-22.5,8.5s-25.5,39,5.5,65c7.5,6.3,16.1,10.2,25.2,12.3
		c-1.3-15.5,1.9-31.1,9.4-43.3C690.8,338.6,731.3,297.7,710.3,251.2"/>
	<path class="st7" d="M647.3,236.6c10.5,13.5-12,30-9,46.5c1.5,6,10.5,12,19.5,7.5c-31.5-3-3-31.5-3-49.5
		c-1.4-11-12.9-15.7-24.1-14.1c0,1.8,0,3.7,0,5.7C637.1,230.7,643.4,231.4,647.3,236.6"/>
	<path class="st7" d="M710.3,251.2c-13.7-27.4-45.2-47.9-43.5-79.5c-13.2,8.9-32.3,25.1-35.5,44.4c8.2-11,16.1-22.9,27.9-31
		c-0.6,18.6,8.4,36.8,25.6,43.9c-6,3-13.5,4.5-18,9c21-9,36,7.5,40.5,27c5.1,28.2-7.3,53.2-16.6,78.6
		C708.9,314.8,725.3,284.4,710.3,251.2"/>
	<path class="st7" d="M710.9,305.5c-16.1,13.5-35.4,24.4-54.9,17.6c0.1,1.6,0.1,4.4-0.8,7.1c15.3,5.8,32.3,6.7,43.1-9.6
		c-13.5,28.5-52.5,43.5-46.5,79.5c-17.9-9-25.3-26.5-27.8-44.7c-5.1,13.6-9.1,36.2,11.3,53.2c7.5,6.3,16.1,10.2,25.2,12.3
		c-1.3-15.5,1.9-31.1,9.4-43.3C682.2,354.5,701.6,330.7,710.9,305.5"/>
	<path class="st6" d="M704.1,419.5c12.6-3.5,23.2-9.3,28.8-15.4c15-16.5,27.5-43.5,27.5-43.5l-17.2-12.3
		C722.1,368.2,704.5,390.6,704.1,419.5"/>
	<path class="st7" d="M722.3,394.2c0-18.1,13.4-30.7,22.8-44.3l-2-1.4c-21.1,19.8-38.6,42.2-39.1,71.2c12.6-3.5,23.2-9.3,28.8-15.4
		c15-16.5,27.5-43.5,27.5-43.5l-1.2-0.9C750.9,374.4,738,386.7,722.3,394.2"/>
	<path class="st29" d="M605.2,353.1c0,14.5,1,54.5-13.5,73c-14.5,18.5-15.4,39.5,0,52.5c15.5,13,21.5,15,8,24
		c-13.5,9-30.5,23.5-50,54c-19.5,30.5-31,78.5-27,119.5c4,41,14,58,14,58s130.6,49.5,216.2,4c0,0,1-28.5-24-77
		c-25-48.5-19-83-17-136.1s38-86.5,43-118.6c5-32,5.5-46,5.5-46l-4-4c0,0-3.5,46-49,52c-45.5,6-73.6-5-79.1-24
		c-5.5-19,1.5-41,1.5-41S605.2,347.6,605.2,353.1"/>
	<path class="st30" d="M661.8,574c-28.5,6-55.5-10.5-70.6-34.5c-1.6-3.3-2.7-6.6-3.3-10c-7.8,7.7-16.4,17.7-25.5,31.1
		C580.7,595.5,633.3,599.6,661.8,574"/>
	<path class="st30" d="M655.3,452.2c-18,1.5-34.5-3-49.5-13.5c-3.9-2.6-6.3-6.8-7.4-11.6c-0.9,1.7-2,3.2-3.1,4.6
		c-2,2.5-3.7,5.1-5.2,7.7C607.8,461.1,628.9,463,655.3,452.2"/>
	<path class="st31" d="M546.7,700.3c-7.5-16.5-8.3-24.4-12.8-42.4c10.5,16.5,26.3,22.9,47.3,22.9c-36.9-20.7-56.3-46.5-41.2-106
		c-13.4,29.5-20.6,67.9-17.3,101.5c4,41,14,58,14,58s45.1,17.1,99.7,22C602.1,743,565.1,735.6,546.7,700.3"/>
	<path class="st31" d="M754.8,406.7c1.9-12.1,3.1-21.6,4-28.8c-6.4,27-11.8,53.8-35,64.3c-15.2,7.6-17.6-15.9-17.9-33.3
		c-20.6,2.6-37.6,1.6-50.4-2c-3.1,15.6-0.3,32.1,9.8,45.8c10.5,12,27,19.5,43.5,24c-7.5,7.5-19.5,15-30,7.5
		c-19.5-18-42.8-20.6-66.8-10.1c-15.9,6.1-25.1-12.1-30.7-26.8c-2.5,11.9,0.7,23.2,10.4,31.4c15.5,13,21.5,15,8,24
		c-6,4-12.7,9.1-20,16.2c37.3-22,86.1-30.6,111.1,4.3c22.5,34.5,9,81,18,124.6c4.5,28.5-48,18-72.1,25.5c0,1.5-4.5,3-3,6
		c6,4.5,18,7.5,18,12c-5.5,16.5-27.5,11.6-42.7,17.6c1.4,8.7,13.9,14.1,20.1,15.4c18,4.5,36,12,54,6c13.5-6,25.5-18,36-28.5
		c12,16.5,1.5,37.5-13.5,45c-6.9,3.4-13.8,6.9-20.8,9.9c23.6-1.9,47.1-7.4,67.9-18.4c0,0,1-28.5-24-77c-25-48.5-19-83-17-136.1
		S749.8,438.7,754.8,406.7"/>
	<path class="st27" d="M808.6,401.3c3.1,5.8,12,50.6,13.9,67.2c1.9,16.5,18.8,111,10.9,123c-7.9,12-88.6,81.8-88.6,81.8l-22-22.5
		c0,0,58.4-69.4,60.7-83.3c2.2-13.9-16.1-76.9-23.3-102C753.1,440.3,799.6,384.4,808.6,401.3"/>
	<path class="st28" d="M824.7,483.9c2.6,33.8,10.6,68.2-4.9,97.8c-18.7,36.2-48.6,62-79.7,86.7l4.7,4.8c0,0,80.7-69.8,88.6-81.8
		C839.9,581.6,829.6,516.2,824.7,483.9"/>
	<path class="st6" d="M738.7,674.9c-1.2-1.4-2.4-2.7-3.6-4c-1.5-4.6-5.9-9.2-10.5-11.3c-2-1.5-4.2-2.4-7-2.3c-1.6,0-3.1,1.3-3.5,2.7
		c-4.4,2.7-8,6.6-12.1,9.7c-6,4.5-15.8-0.3-23,0.4c-8.7,0.9-16.7,2.9-25.5,2.8c-5.9-0.1-10.2-4-16.2-1.3c-6.8,3.1-4,9.2,1.3,11.8
		c6.9,3.5,14.6,4.4,21.8,6.8c-13,7.9-30.5,7.6-44.4,13.2c-1.9,0.8-1.9,3-1,4.5c4.7,7.2,14.3,8.6,22.2,9.5
		c11.1,1.3,22.7,2.8,33.8,1.9c13.3-1.1,23-8.4,32.3-17.2c9.8-9.2,21.9-17.1,34.4-22.2C739.6,679.2,740,676.5,738.7,674.9"/>
	<path class="st7" d="M738.7,674.9c-1.2-1.4-2.4-2.7-3.6-4c-1.5-4.6-5.9-9.2-10.5-11.3c-2-1.5-4.2-2.4-7-2.3c-0.7,0-1.4,0.3-2,0.7
		c4.6,3.8,8.9,8.4,12.8,12.3C696,697,661,713.1,619.7,712.6c5,3.2,11.6,4.1,17.3,4.8c11.1,1.3,22.7,2.8,33.8,1.9
		c13.3-1.1,23-8.4,32.3-17.2c9.8-9.2,21.9-17.1,34.4-22.2C739.6,679.2,740,676.5,738.7,674.9"/>
	<path class="st32" d="M722.8,650.8c-1.5-0.4-4.5,4.2-5.6,6.3c10.7,3.9,16.5,12.6,20.7,22.2c0.1,0.1,0.2,0.1,0.3,0.1
		c1.6,0.3,5.6-4.1,6-5.1C744.6,673.3,732.9,653.4,722.8,650.8"/>
	<path class="st33" d="M737.9,679.3c0.1,0.1,0.2,0.1,0.3,0.1c1.6,0.3,5.6-4.1,6-5.1c0.1-0.3-1.2-3-3.4-6.3c-2.1,1.6-4.1,3.3-6.2,4.9
		C735.9,674.9,736.9,677,737.9,679.3"/>
	<path class="st34" d="M636.3,290.6c-12.5-10.5-24-39.5-22.5-71.5c1.5-32,32-74.5,77.1-73.5c45,1,69.1,39,76.6,61.5
		c7.5,22.5,20.5,85.5,0.5,115.1c-20,29.5-34.5,33-52.3,64.2c-17.8,31.3-16.3,59.3,5.3,69.8c0,0-3.5,10.5-22.5,8
		c-19-2.5-40-20.5-39-55.5c1-35,41-69.5,49.5-93.5c8.5-24,11-47-1-65c-12-18-31-37.5-38-51s-2.5-27-2.5-27s-29.5,23-33.5,38
		C629.8,225.1,636.3,290.6,636.3,290.6"/>
	<path class="st35" d="M646.2,171.7c7.4-7,15.5-11.1,23.8-14.9c-1.4,0-2.7,0-4.2,0.2c-22.8,2.4-39.9,25.7-41,46.6
		C632.9,194.1,637.5,181.1,646.2,171.7"/>
	<path class="st35" d="M763.1,240.1c-1.4-20.3-7.5-37.6-11.1-44.6c-5.8-11.2-23.4-33.9-42.4-35.5c16.2,11.6,35.7,30.5,43.7,56.6
		c8.7,27.9,5.5,62.7,6.7,63.7C762.4,282.3,764.2,257.2,763.1,240.1"/>
	<path class="st36" d="M698.3,422.7c-6-30,15-52.5,30-76.5c-30,22.5-52.5,66-31.5,102c-15-4.5-24.4-15.8-27.4-30.8
		c-4.2-23.6,7.5-36.8,19.3-55.6c25.6-40,54.3-82,20.1-126.7c-15-19.5-45-40.5-34.5-63c4.8-11.4,25.6-18.2,37.8-23.3
		c-2.2-0.4-15-2.9-17.3-3.1c-28.7,11.2-49.6,38.7-67,65.3c-9,12-6,30-3,45c-4.8-1.6-7.4-5.7-9.3-10.4c3.6,20.6,11.9,37.4,20.8,44.9
		c0,0-6.5-65.5-2.5-80.5c4-15,33.5-38,33.5-38s-4.5,13.5,2.5,27s26,33,38,51c12,18,9.5,41,1,65c-8.5,24-48.5,58.5-49.5,93.5
		c-1,35,20,53,39,55.5c19,2.5,22.5-8,22.5-8c-10.1-4.9-15.8-13.7-17.1-24.8C701.1,429,699.2,426.2,698.3,422.7"/>
	<path class="st26" d="M668.5,247.3c-2,0.7-3.8,2.5-4.4,4.5c-0.8,2-0.9,4.2,0.2,6.1c0.8,1.8,2.1,3.4,3.8,4.6
		c-0.2,0.2-0.4,0.4-0.5,0.7c-2.4,3.2-1.5,6.6,0.6,9.7c-1,0.8-2,1.7-2.9,2.9c-0.5,0.6-0.8,1.2-1.1,1.8c-0.2,0.2-0.5,0.5-0.7,0.7
		c-5.9,6.4,1.5,15.7,9.1,11.8c3.7-1.9,4.8-0.7,8.5,0.8c0.1,0,0.2,0.1,0.3,0.1c0.3,0.5,0.7,0.9,1.1,1.4c-1.8,2.8-4.1,6-6.9,7.1
		c-9,3.3-5.1,17.8,4,14.5c16.6-6.2,28.2-29.4,22-46c-0.7-1.8-1.6-3.1-2.8-3.9c-0.1-0.1-0.1-0.2-0.2-0.3c-1.2-5.4-2.6-10.8-4.5-15.7
		c-2.7-6.9-9.5-8.6-16-6c-0.8,0.3-1.6,0.8-2.3,1.5c-2.1,0.5-4,1.8-5.2,3.5C669.8,246.8,669.2,247,668.5,247.3"/>
	<path class="st26" d="M638.7,219.1c0.4,0.7,1.2,1.1,2.2,1c1.2,0.5,2.5,1,3.7,1.3c2.7,2.1,5.6,3.6,9,4.5c-1.3,0.7-2.1,2.6-0.8,3.8
		c2.1,2,4.3,3.6,6.1,6c0.6,0.8,1.4,1,2.3,0.8c0,0.1,0,0.2,0,0.4c-0.7,3,4.2,3.5,4.8,0.5c0.5-2.4,0.2-4.5-0.5-6.6
		c0.3-0.7,0.3-1.6-0.3-2.4c-0.1-0.2-0.2-0.4-0.3-0.7c-0.3-1.5-0.8-2.8-1.7-4.3c-0.5-0.8-1.3-1.2-2.1-1.2c-1-6.9-2.8-13.7-3.3-20.7
		c0-0.1,0-0.1,0-0.2c0.2-1.9,0.4-3.8,0.4-5.7c0.1-2.9-3.8-3.1-4.4-0.4c0,0.2-0.1,0.4-0.1,0.6c-1-0.7-2.7-0.5-3.1,0.9
		c-0.1,0.5-0.3,1-0.4,1.6c0,0,0,0.1-0.1,0.1c-3.1,4.1-5.4,8.5-7.2,13.3c-0.9,0.7-1.7,1.5-2.5,2.4c-0.6,0.2-1.3,0.4-1.9,0.8
		C636.5,215.6,636.9,218.2,638.7,219.1"/>
	<path class="st26" d="M636.8,241.8C636.9,241.8,636.9,241.8,636.8,241.8c0.8,2,1.9,3.7,3.6,5.1c-0.2,0.1-0.3,0.3-0.4,0.5
		c0,0,0,0,0,0.1c-0.6,0.2-1.2,0.6-1.4,1.4c-0.1,0.2-0.1,0.4-0.1,0.6h0c0,0,0,0,0,0.1c-0.4,1.7-0.6,3.4-0.7,5.2c0,0,0,0,0,0
		c-0.4,2-1.1,3.8-1.4,5.8c-0.3,1.8,2.3,2.7,3.3,1.2c0.3-0.5,0.6-1,0.9-1.6c0.4-0.2,0.9-0.4,1.1-0.9c0.4-0.2,0.7-0.6,0.9-1
		c0.9-0.2,1.7-0.9,1.8-2.1c0.1-1.5,0.2-2.9,0.3-4.4c0.6-0.1,1.1-0.4,1.5-1c2.2-3.3,1.7-6.6-0.2-9.2c0.1-0.4,0.2-0.7,0-1.1
		c0.7-1,0.6-2.6-0.4-3.4c-0.7-0.6-1.4-1.1-2.3-1.5c-1.3-0.7-2.7-0.2-3.3,0.8c-1,0.1-2,0.3-3.1,0.7c-1.7,0.6-1.6,2.4-0.6,3.6
		C636.3,241,636.4,241.4,636.8,241.8"/>
	<path class="st26" d="M649.6,311.7c1,0.4,2.1,0.7,3.2,0.8c0.8,1.3,1.5,2.3,2.8,3.2c1.9,1.3,4.1-0.7,3.3-2.8c-0.2-0.5-0.5-1-0.8-1.5
		c0,0,0-0.1,0-0.1l0-0.3c0.1-0.8-0.4-1.9-1.3-2.1c-0.1,0-0.3,0-0.4-0.1c0-0.8-0.4-1.5-1.4-1.7c-1.5-0.4-2.9-1.1-4-2
		c-1.1-1.4-2.2-2.9-3.3-4.3c0-0.2,0-0.4,0-0.6c0-0.9-0.5-1.6-1.2-1.8c-0.5-1.8-3.2-2.5-3.9-0.3c-0.1,0.2-0.1,0.4-0.1,0.6
		c-0.6,0.6-0.8,1.5-0.3,2.4c0,0.1,0.1,0.1,0.1,0.2c0.1,0.8,0.4,1.6,0.8,2.5c0.3,0.5,0.6,0.8,1.1,1c0.1,0.1,0.2,0.3,0.3,0.4
		c0.1,0.1,0.1,0.2,0.2,0.3c0,0,0,0,0,0c0.6,0.6,1.3,1.2,1.9,1.8c0.6,0.7,1.2,1.4,1.8,2.1C648.2,310.3,648.7,311.3,649.6,311.7"/>
	<path class="st26" d="M664.8,346.3c0.7-0.5,1.1-1.3,1.2-2.2c1.6-0.4,3.2-0.9,4.9-1.6c3.1-1.2,1.4-6.6-1.8-5.6
		c-2.5,0.8-4.9,1.2-7.5,1.6c-0.5,0.1-1,0.3-1.4,0.6c-0.3-0.2-0.6-0.3-0.8-0.5c-1.5-0.9-3.1-0.4-4.1,0.6c-1.5-0.1-2.8,1.5-2.9,3.2
		c-1.6,0.6-3.2,1.3-4.8,2.3c-1,0.6-1.5,1.6-1.6,2.6c-0.3,0.1-0.6,0.3-0.8,0.6c0,0-0.1,0.1-0.1,0.1c-1.9,0.7-3.7,1.7-4.9,3.4
		c-1.5,0.6-3,1.8-4.5,3.8c-0.6,0.8-0.7,1.8-0.4,2.6c-1.2,0.2-2.2,1.2-1.9,2.5c0.3,1.1,0.7,2.3,1.2,3.4c0.3,2.6,1,5.2,1.3,6.6
		c1.3,5.8,2.7,14.8,7.7,18.8c1.4,1.2,4,0,4-1.9c0.1-2.7-0.5-5.2-1.4-7.6c1.2-2.6,1.2-5,0.5-7.4c0.4-0.3,0.8-0.8,1-1.3
		c1.1-2.3,1.1-4.7,0.8-7.1c0.3-0.4,0.6-0.9,0.7-1.4c0.4-2.4,0.1-4.6-0.4-6.8c2.4-1,4.6-3.4,7-4.8c0.1,0.1,0.1,0.2,0.2,0.3
		c1.6,2,4.6,0.9,5.1-1.2C663.3,350.2,665.2,348.4,664.8,346.3"/>
	<path class="st26" d="M748.9,359.2c-0.6-2-3.3-3.1-4.6-1c-0.4,0.7-0.6,1.3-0.7,2c0,0.1,0,0.2-0.1,0.3c-1.8-0.3-3.2,0.9-3.2,2.6
		c-2.6,0.4-2.7,3.9-2.5,6.7c0,0.5,0,0.9,0.1,1.4c0.6,3,4.5,2.8,5.4,0.5c1.3,0,2.6-0.9,2.9-2.5c0.2-1.3,0.3-2.5,0.1-3.7
		c0.5-0.3,0.9-0.6,1.3-1.1C748.5,363,749.3,360.8,748.9,359.2z M743.4,360.7C743.3,360.8,743.3,360.8,743.4,360.7"/>
	<path class="st26" d="M710.3,667.9c-1.9,1.1-12.1,11.8-13.6,10c-1-1.2-3-1.2-4.1-0.3c-1.6-0.5-3.4,0.6-3.6,2.4c-1-0.4-2-0.8-3-1.3
		c-0.6-0.7-1.1-1.4-1.6-2.2c-0.9-1.3-2.6-1.2-3.8-0.5c-0.3-0.1-0.7-0.2-1-0.3c-0.5-0.3-1.2-0.5-1.8-0.4c-2.4-0.3-4.7,0.1-6.7,2.1
		c-0.4,0.4-0.7,1.1-0.8,1.7c-1.9-0.2-4.2-0.4-5.3-1.3c-1.9-1.7-4.8,1.5-3,3.3c3.2,3.3,9.9,4.5,14.7,4.7c0.1,0.3,0.3,0.6,0.5,0.9
		c0.8,1.5,3.3,2,4.3,0.6c1.3,0.3,2.9-0.3,3.4-1.8c0.1-0.3,0.2-0.5,0.3-0.8c2.1,0.9,4.2,1.8,6.3,2.6c1.5,0.6,3-0.2,3.7-1.5
		c0.9-0.1,1.8-0.7,2.1-1.6c6-0.1,13.6-8.9,16.6-12.2C715.8,670.1,712.7,666.5,710.3,667.9"/>
	<path class="st37" d="M816.1,504.2c-0.4-1.9-1.4-3.2-2.7-4.1c-1.5-4.7-2.9-9.5-4.2-14.2c2.5-2.1,3.9-5.7,2.2-9.5
		c-1.8-4.1-3.8-8-5.9-11.9c-0.4-0.9-0.8-1.9-1.1-2.8c2.3-1.2,4.1-3.5,4.1-6.5c-0.1-10.2-0.7-20.4-1.8-30.5c1-1.5,1.3-3.4,0.5-5.5
		c-0.7-2-1.3-4-2-6c-0.9-2.5-2.6-4-4.4-4.8c-0.3-0.3-0.6-0.6-0.9-0.8c-3.4-11.9-11.3-22.5-21.2-29.9c-7.7-5.8-15.2,7.2-7.6,13
		c7.1,5.4,14.2,15.6,15.3,24.5c0.2,1.8,1,3.3,2,4.4c0,1.8,0,3.6,0,5.5c-1,3.3-1.7,6.6-2,10.1c-0.1,1.5,0.2,2.8,0.7,3.8
		c-2.6,1.6-4.4,4.6-3.4,8.2c0.5,1.8,1,3.5,1.5,5.3c-0.1,3.2-2.1,6.3-3.8,9c-1.6,2.6-1.3,5.4,0.1,7.6c0.5,3.6,3.2,7.1,7.3,6.7
		c0.1,0.8,0.3,1.6,0.5,2.5c-0.7,1.4-1,3.1-0.6,5c2.1,12,5.9,23.6,10,35c1,2.8,3.1,4.4,5.4,5c0.2,0.2,0.4,0.4,0.6,0.5
		c1.7,11.6,1.8,23.4-4.3,33.8c-4.9,8.4,8.1,15.9,13,7.6C824.3,546.2,820.6,524.4,816.1,504.2"/>
	<path class="st37" d="M793.5,590.2c2.6-2-0.6-5.7-3.3-3.9c-7.3,5.1-11.6,13-16.3,20.4c-0.2,0.1-0.4,0.3-0.5,0.5
		c-1.3,1.7-2.7,3.3-4.1,5c-0.4-0.1-0.8-0.2-1.2-0.3c-1.2-0.3-2.5,0.9-2.6,2.1c-0.1,0.9-0.2,1.9-0.4,2.7c-0.1-0.2-0.2-0.3-0.3-0.5
		c-1-1.8-4.1-1.6-4.2,0.7c-0.1,2-0.4,4-0.6,5.9c-0.5-0.3-0.9-0.5-1.4-0.8c-1.3-0.7-2.8,0.6-2.9,1.8c-0.2,1.4-0.5,2.8-0.8,4.2
		c-0.2-1.1-0.3-2-0.3-2.3c-0.3-1.9-3.4-1.8-3.4,0.1c0,0.9,0,1.7,0,2.6c-0.3,0.1-0.5,0.3-0.7,0.6c-2.2,3.1-4,5.8-5.2,9.4
		c-0.6,1.7,1.4,3,2.8,2c1-0.8,2-1.5,2.9-2.3c0,0.1,0,0.2,0,0.3c0.1,2.2,3.8,2,3.8-0.2c0-0.2,0-0.3,0-0.5c0-0.1,0.1-0.1,0.1-0.2
		c0.4,0,0.9-0.2,1.2-0.6c0.3-0.3,0.6-0.7,0.9-1c0.4-0.3,0.8-0.7,0.9-1.1c1.5-1.8,2.9-3.7,4.3-5.6c0.9-0.1,1.7-0.7,1.8-1.9
		c0-0.2,0-0.5,0.1-0.7c0.5-0.7,1-1.5,1.5-2.2c1,0.1,2-0.4,2.5-1.4c0.7-1.6,1.2-3.1,1.6-4.6c0.2-0.3,0.4-0.6,0.6-0.9
		c1,0.3,2-0.2,2.6-0.9C780.1,608.1,784.4,597.1,793.5,590.2"/>
	<path class="st37" d="M746,494c0.2-3.1,2.9-3.5,4.8-5.5c2.1-2.2,2-4.8,1-7.5c-0.6-1.7-2.8-0.9-3.1,0.6c-0.6,2.8-2.5,3.7-4.7,5.2
		c-0.7,0.5-1.2,1-1.7,1.6c-0.2-0.4-0.4-0.8-0.6-1.3c-0.9-2.3-3.5-1.7-4.5-0.1c-1.6-2-5.1,0.1-4.2,2.8c0.1,0.3,0.2,0.6,0.3,0.9
		c0.2,0.5,0.3,0.9,0.3,1.3c-0.6-0.9-1.2-1.8-1.8-2.8c-0.6-0.9-1.5-1.2-2.3-1.2c-1.1-0.8-2.7-0.4-3.2,0.9c-1.5,4.1-1.5,8.5-0.4,12.6
		c0.6,2.2,3.7,2.7,4.6,0.4c0.1-0.3,0.2-0.7,0.3-1c1.2,0.1,2.5-0.7,2.7-2c0.1,0.1,0.2,0.1,0.3,0.2c1.4,1,3.1,0.2,3.8-1.2
		c0-0.1,0.1-0.2,0.1-0.3c0.2,0.2,0.4,0.4,0.6,0.5c1.2,1.1,3.5,0.2,3.9-1.2c0.1-0.3,0.2-0.6,0.2-0.9C744,496.6,745.9,495.9,746,494"
		/>
	<path class="st37" d="M733.9,542.9c-1.6-1.5-4-0.9-4.7,0.8c-1.5-1.2-2.9-2.4-4.4-3.6c-1.1-0.9-2.5-0.5-3.3,0.4
		c-0.2-0.1-0.4-0.1-0.6-0.1c0-0.5-0.1-1-0.1-1.5c-0.1-2.3-3.9-2.1-4,0.2c-0.2,4.2-0.3,8.3-0.1,12.5c-0.1,2.6,0.1,5.2,0.6,7.8
		c0.1,10.2,2.9,20.1,7.7,29.1c-1.5,0.5-2.4,2.6-1.8,4.2c0.4,1.3,0.9,2.4,1.5,3.4c-1,1.1-1,2.9,0.4,4.2c-0.1,1.3-0.3,2.5-0.4,3.8
		c-2.2,2.3,0.6,5.7,3.2,3.7c3.3-2.4,4.5-5.1,3.7-7.8c0.7-0.6,1.2-1.4,1.2-2.2c1.9-0.3,3.2-2.8,1.8-4.8c-5.4-7.9-9.3-16.8-10.9-26.2
		c0.4-0.3,0.6-0.8,0.8-1.2c1.4,0.9,3.2-0.2,3.8-1.8c2.6,1.9,5.6-1.8,3.7-4.2c-0.2-0.3-0.4-0.5-0.6-0.8c0.6,0,1.3,0,2-0.1
		c2.2-0.2,3.1-3.4,1.5-4.8c0.3-0.1,0.7-0.2,1-0.2c1.3-0.4,2.7-1.7,2.3-3.2C737.2,547.3,736.2,545.1,733.9,542.9"/>
	<path class="st37" d="M591.3,365c-0.3,0-0.6,0.1-0.8,0.2c-0.8-0.7-1.9-0.9-3-0.3c-0.3,0.2-0.6,0.4-0.9,0.6c-1-0.6-2.2-0.7-3.2,0.4
		c-0.2,0.2-0.3,0.4-0.5,0.6h0c0,0,0,0,0,0c-1.6,1.8-3.1,3.6-4.8,5.3c-0.6,0.5-1.1,1.1-1.7,1.7c-0.9,0.9-1,2-0.8,3
		c-1.8-0.3-3.2,1.5-3,3.2c0.2,2,0.6,3.9,1.1,5.8c-1.1,0.6-1.7,2-1.2,3.4c0.7,2.1,1.2,3.9,1.4,5.8c-1.1,0.5-1.9,1.7-1.9,3.1
		c0.2,3.1,0.8,6,1.4,9c0.7,3.6,6.4,2.6,5.7-1c-0.3-1.4-0.6-2.8-0.9-4.2c0.7-0.4,1.2-1.1,1.3-2c0.1-3-0.2-5.8-1-8.5
		c0.9-0.6,1.6-1.7,1.3-2.7c-0.6-1.8-1.1-3.5-1.4-5.3c1.4,0,2.7-0.4,3.8-1.7c1.1-1.2,1.6-2.3,1.8-3.9c0.1-0.7,0.3-1.4,0.7-2.1
		c2.6-1.9,5.3-4.1,8.2-5.2C595.8,369,594.1,364.5,591.3,365"/>
	<path class="st37" d="M583.1,488.6c-0.5-1.2-1.3-2.4-1.9-3.5c-1.1-2.1-3.8-1.7-4.8-0.2c-0.3-0.4-0.6-0.7-0.9-1.1
		c-0.1-0.6,0-1.2,0.2-1.4c2.5-1.9-1.2-5.7-3.3-3c-1.2,1.6-1.7,3.5-1.7,5.4c0,0.1,0,0.1,0,0.1c0,0.1,0,0.2,0,0.3
		c0,1.4,0.2,2.8,0.5,4.2c0.3,1.6,0.7,3.3,1.2,4.9c0,0.1,0.1,0.2,0.1,0.3c0,0,0,0,0,0c0.1,0.2,0.1,0.5,0.2,0.7c0.7,2.3,4,1.8,5,0.1
		c0.1,0.2,0.3,0.3,0.4,0.5c2.1,2.2,6-0.1,4.6-2.9c-0.2-0.4-0.4-0.8-0.6-1.2C583.1,491.3,583.7,490.1,583.1,488.6"/>
	<path class="st37" d="M811.3,698.1c-0.1-0.2-0.1-0.4-0.2-0.6c-0.4-0.8-0.8-1.5-1.1-2.3c-0.2-0.4-0.3-0.7-0.5-1.1
		c-0.1-0.2-0.2-0.4-0.2-0.6c0.6-0.8,0.9-1.9,0.4-3.1c-1.8-4.7-3.9-9.2-6.1-13.6c-0.7-1.7-1.4-3.4-2.2-5.1c-0.1-0.3-0.5-0.9-0.9-1.5
		c-0.7-1.4-1.5-2.8-2.3-4.1c-0.1-0.3-0.1-0.6-0.2-0.8c-0.2-1-0.9-1.6-1.7-1.9c-1.8-1.9-5.5,0.5-4,2.9c0,0.1,0.1,0.1,0.1,0.2
		c-0.4,0.2-0.8,0.4-1.1,0.8c-1.4,0-2.8,1.2-2.7,2.6c-2.1,1.1-2.2,4.7,0.4,4.9c0,0,0,0.1,0,0.1c1.9,6.7,6.6,11.9,9.4,18.1
		c0,0.1,0.1,0.2,0.2,0.3c0.9,1.9,1.9,3.8,3.1,5.6c-0.8,0.4-1.4,1.1-1.4,2.1c0,0.5,0,1,0,1.5c0,0.9,0.3,1.6,0.8,2.1
		c-1.9,1.7-3.8,3.1-6,4.4c-0.9,0.4-1.8,0.8-2.7,1.3c-3,1.7-0.9,6.1,2.3,4.9c1.2-0.5,2.4-1,3.6-1.7c0.5,0.3,1.1,0.4,1.7,0.3
		c2.3-0.4,2.6-0.5,4.7-1.7c0.9-0.5,1.4-1.3,1.4-2c0.9-0.3,1.6-0.8,2.1-1.6c1.4,0.1,2.8-1.2,3.1-2.6c0.1-0.4,0.2-0.8,0.2-1.2
		c1.4-0.5,2.5-2,1.6-3.7C812.4,700.1,811.8,699.1,811.3,698.1"/>
	<path class="st22" d="M606.7,496.2c-0.3,0.2-6.2-6.2-15-17.5c-4.2-5.8-9.6-12.4-13-22c-2.8-10.8,3.8-21,9.1-30
		c10.7-18.4,14.1-37.9,15.8-51.8c1.6-14,1.8-22.8,2.6-22.8c0.5,0,1.4,8.8,0.6,23.1c-0.8,14.2-3.8,34.5-15.1,53.8
		c-5.6,9.1-11.1,18.4-9,26.6c2.7,8.3,7.8,15.4,11.6,21.2C602.3,488.5,607.4,495.7,606.7,496.2"/>
	<path class="st22" d="M627.8,344.1c0,0.7-4.8,1.4-10.3,3.3c-5.5,2.1-9.8,4.5-10.2,3.9c-0.3-0.4,3.5-3.8,9.4-6
		C622.6,343.3,627.8,343.6,627.8,344.1"/>
	<path class="st22" d="M657.8,409.7c0,0.4-4.7,1-12.2-1.2c-7.8-1.9-16.1-11.1-19-22.4c-6.3-23.2,1.9-41.4,2.2-41
		c2,0.1-3.8,18.7,2.1,39.6C636,408.2,659,408,657.8,409.7"/>
	<path class="st22" d="M528.7,708.3c-0.8,1.4-19.4-53.1,3.1-116.4c22.7-63,70.4-95,71.4-91.6c0.1-1.1-45,31.6-67.2,93.2
		C514,655,530.2,708.8,528.7,708.3"/>
	<path class="st22" d="M748.3,503.2c0.3,0.1-5.2,7.2-18.6,10.3c-13.3,3.3-32.1-0.6-50.5-7.8c-37.1-12.8-70.3-6.3-70-7.5
		c-0.8-1.2,32.7-10.1,71.6,3.2c18.3,7.2,35.8,11.2,48.4,8.9C741.7,508.4,747.8,502.4,748.3,503.2"/>
	<path class="st22" d="M558.7,536.7c-0.2-0.1,3.8-44.7,4.8-100.3c0.4-13.9,0.8-27.1,1.4-39.1c0-11.8,2.6-24.1,9.6-30.9
		c6.7-7,14.3-9.3,19.1-10.8c4.9-1.4,7.5-2.2,7.7-2c1.1,1.7-12.1,2.6-24.4,14.9c-6,6.6-8,16.9-7.8,29c-0.3,12-0.6,25.2-1,39.1
		C567,492.1,561,537.1,558.7,536.7"/>
	<path class="st22" d="M596.2,412.7c-0.7-0.1,0.4-5.5-0.3-11.8c-0.5-6.6-4.8-9.8-4.7-10.2c0.2-1.1,6.4,2.4,6.9,9.9
		C598.9,407.6,596.7,412.8,596.2,412.7"/>
	<path class="st22" d="M655.3,321.1c0.1-1,4.8,10.5-5.7,17.5c-9.8,5.1-18.5,5-18.6,5c-0.4-1.1,8.5-2.3,17.4-6.9
		C657.2,331.2,654.3,320.6,655.3,321.1"/>
	<path class="st22" d="M710.3,307.1c0,0-9.5,8.9-28.5,17.4c-9.7,5.4-23.9,1.2-34.3-7.6c-12.5-8.6-12.8-26.1-15.1-41
		c-3.2-30.4-7.2-62,8.4-78.5c12.9-16.4,24.4-22.9,24.5-22.6c0.2,0.2-10.9,7.1-23.2,23.5c-14.8,16.1-10.6,46.7-7.4,77.3
		c2.3,15.3,2.4,31.6,14.2,39.7c10.2,8.6,23,12.7,32.4,7.7C700.1,315,710,306.6,710.3,307.1"/>
	<path class="st22" d="M704.1,465.4c0,0.2-5.1,0.4-13.5-3c-8.2-3.3-19.8-11.4-26.7-26.3c-7-14.4-9.5-35.4-0.8-55.3
		c7.7-20.3,25.7-36.5,38.1-56.4c12-20,13.6-44.6,9.3-63.9c-5.8-19.5-21.6-31.8-31-44.5c-10-12.4-15.8-24.8-15.7-34.1
		c0-9.5,5.4-12.9,5.3-12.6c0.5,0.2-4.1,3.8-3.5,12.6c0.4,8.6,6.3,20.3,16.4,32.1c9.4,12.2,25.7,24.1,32.5,45.4
		c4.9,20.9,3.3,45.8-9.4,67.4c-13.2,20.9-30.7,36.3-38.1,55.7c-8.4,18.8-6.4,38.4-0.1,52.4c6.1,14.3,16.8,22.4,24.5,26
		C699.2,464.6,704.1,465.1,704.1,465.4"/>
	<path class="st22" d="M724.1,457.4c0.7-0.2-10.1,0.5-18-13c-6.5-13.1-7.4-37.2,6.8-59.8c6.8-11.3,16.3-22.2,27.2-32.9
		c11-10.7,24-20.8,29.7-36.8c6.2-15.5,6.7-33.7,5.4-52.1c-1.3-18.5-4.2-37.5-11.6-55.6c-13.6-36.1-47-64.8-81.7-58.6
		c-34.3,3.2-57.6,29.7-62.4,54.7c-6.5,24.9-1.5,46.2,2.6,59.7c4.4,13.7,8.5,20.7,8.1,20.9c-0.2,0.1-4.8-6.6-9.8-20.3
		c-4.7-13.5-10.4-35.2-4.1-61.1c3.2-12.6,8.9-26.7,20.5-37.5c11.1-11.1,27.1-18.3,44.5-20.6c17.2-2.2,37.2,1.6,52.1,14
		c15.2,11.7,26.8,28.5,34.3,47c7.6,18.6,10.6,38.3,11.8,56.9c1.2,18.6,0.7,37.4-6,53.9c-6.2,17-20.3,27.8-31,37.9
		c-10.9,10.5-20.3,21.1-27.1,31.9c-14.1,21.5-13.5,44.7-7.9,57.3C714.5,456.5,724.8,456.7,724.1,457.4"/>
	<path class="st22" d="M717.8,462.2c0.1,0.2-10-2-19.7-14.5c-9.8-12.4-12.9-35.9-4.1-57.9c9.9-21.5,24.8-36.5,34.8-47.6
		c10.4-10.8,17.2-17.1,17.6-16.8c0.5,0.5-5.5,7.6-15.2,18.9c-9.3,11.5-23.7,27-33,47.2c-8.2,20.7-5.9,42.6,2.6,54.4
		C709,457.9,718.4,461.3,717.8,462.2"/>
	<path class="st22" d="M692.3,458.7c0.4,0.4-18.6-14.2-23.6-41.6c-4.4-27.7,10.5-47.2,10.4-46.5c1.1,0-12.5,19.5-8.2,46.1
		C675.6,443.1,693.5,458.2,692.3,458.7"/>
	<path class="st22" d="M713.8,150.5c-0.2,1.2-10.3,0.9-21.7,6.3c-11.4,5-20,10.8-20.9,9.7c-0.7-0.8,6.9-8.5,19.1-13.8
		C702.6,146.9,714.3,149.2,713.8,150.5"/>
	<path class="st22" d="M756.3,358.6c-0.4,0.5-2.9-0.9-5.7-3.1c-2.8-2.2-4.7-4.4-4.3-4.9c0.4-0.5,2.9,0.9,5.7,3.1
		C754.8,356,756.7,358.2,756.3,358.6"/>
	<path class="st22" d="M757.8,360.6c0.8,0-2.2,17.7-17.1,33.4c-15.3,15.7-34.2,17.2-33.9,15.6c-0.3-1,16.6-4.2,30.7-18.8
		C751.4,376.4,756.3,360,757.8,360.6"/>
	<path class="st22" d="M721.8,648.8c-1.9,1.8-27.1-65.2-9.1-148c8.5-41.6,34.5-71.3,40.4-97.5c7.8-25.8,7.6-42.7,7.3-42.7
		c1.5-0.3,2.9,17.2-4.2,43.5c-5.4,27.4-31,57.2-39.1,97.7C699.4,582.9,722.2,649.6,721.8,648.8"/>
	<path class="st22" d="M744.8,673.3c-0.4-0.6,16.9-12.4,42.7-34.2c12.5-11.1,28.4-24.3,39.9-42.8c6-9.1,4.4-21.1,4.1-33.1
		c-0.6-12.1-1.9-24.6-3.3-37.4c-3-25.6-6.5-49.9-10.1-72c-1.8-11-3.6-21.5-5.5-31.2c-1.9-9.9-3.3-18.7-9-24.9
		c-22.4-24.8-41.4-35.3-40.3-36.5c-0.2,0.3,19.1,9.5,42.8,34.5c6.3,6.5,8.3,16.7,10.2,26.2c2,9.8,4,20.2,5.9,31.3
		c3.8,22.1,7.5,46.4,10.5,72.2c1.5,12.9,2.7,25.4,3.3,37.7c0.2,11.8,1.9,25.1-4.9,35.4c-12.4,19.6-28.6,32.2-41.5,43.2
		C763.1,662.9,745.1,673.7,744.8,673.3"/>
	<path class="st22" d="M724.3,648.3c-0.2-0.2,7.5-9.5,19.6-24.9c6-7.7,13.2-16.9,20.8-27.4c3.8-5.3,7.6-10.8,11.3-16.8
		c3.2-6,8.1-12.4,7.1-19.4c-10.7-58.5-27.9-104.4-27.3-104.5c0.5-0.3,18.7,45,29.5,104.3c1,8.3-4.2,14.7-7.5,20.8
		c-3.7,6-7.7,11.6-11.5,16.9c-7.7,10.5-15,19.6-21.2,27.2C732.7,639.5,724.5,648.5,724.3,648.3"/>
	<path class="st22" d="M773.9,572.7c-0.7,1.1-10.2-9.4-9.9-25.5c0.2-15.7,6.3-27,7.4-26.5c1.2,0.4-2.7,12-2.8,26.5
		C768.1,561.8,774.9,572,773.9,572.7"/>
	<path class="st22" d="M743.8,674.8c-0.8,0.3-2.8-7-8.7-13.6c-5.8-6.8-12.6-9.9-12.3-10.4c0.1-0.7,7.8,1.7,14,8.9
		C743.2,666.9,744.3,674.8,743.8,674.8"/>
	<path class="st22" d="M720.9,650.9c0.5,0.4,0.1,1.7-0.9,2.9c-1,1.2-2.1,1.9-2.6,1.5c-0.5-0.4-0.1-1.7,0.9-2.9
		C719.3,651.2,720.5,650.5,720.9,650.9"/>
	<path class="st22" d="M738.2,678.9c-0.6,0.2-3.1-6.1-8.8-12c-5.6-6-11.4-9.6-11.1-10.1c0.2-0.6,6.8,2.2,12.7,8.6
		C737.1,671.6,738.8,678.8,738.2,678.9"/>
	<path class="st22" d="M744.1,675.7c0.4,0.5-0.4,1.7-1.7,2.8c-1.4,1-2.8,1.5-3.1,1c-0.4-0.5,0.4-1.7,1.8-2.8
		C742.3,675.6,743.7,675.2,744.1,675.7"/>
	<path class="st22" d="M821,707.4c-1.3,0.2-4.5-15.8-11.5-34.6c-6.6-19-14.4-33.1-13.7-33.7c1.2-1,11.1,12.9,17.9,32.2
		C820.9,690.5,822.2,707.3,821,707.4"/>
	<path class="st22" d="M581.2,680.8c-0.1,0.8-16.8-6.5-27.3-25.6c-10.3-19.5-4.8-37.9-3.5-37c1.1,0-2,17.1,7.5,34.9
		C567.4,670.7,582.3,679.4,581.2,680.8"/>
	<path class="st22" d="M656.6,291.4c0,0.2-5.1,0.1-13-2.6c-2.5-0.3-3.8-4.2-2.6-6.3c0.6-2.4,1.5-4.8,2.4-7.3
		c1.8-5.1,3.9-10.6,6-16.4c4.8-10.9,7.2-23.9-0.9-27.6c-7.1-3.3-12.5-1.5-12.5-2c-0.2,0,5.1-2.6,13.2,0.6c4.1,1.7,7.2,7.1,6.7,12.7
		c-0.2,5.6-2.3,11.4-4.4,17.1c-2.1,5.8-4.3,11.3-6.2,16.3c-1.3,4.6-5.2,10.6-1,11.5C651.6,290.2,656.8,290.9,656.6,291.4"/>
	<path class="st22" d="M695.3,235.5c-0.3,0.7-5.6-2.4-12.6-1.9c-7,0.4-12.2,3.6-12.5,3c-0.5-0.4,4.5-4.8,12.4-5.2
		C690.4,230.8,695.7,235.2,695.3,235.5"/>
	<path class="st22" d="M673.2,300c0.1,0.6-5,1.7-11.3,1.4c-6.3-0.3-11.3-1.5-11.2-2.1c0.1-0.6,5.1-0.4,11.3-0.1
		C668.1,299.5,673.1,299.4,673.2,300"/>
	<path class="st22" d="M667.5,307c0.1,0.6-2.3,1.5-5.3,1.3c-3-0.2-5.3-1.1-5.2-1.7c0.1-0.6,2.5-0.7,5.3-0.6
		C665.1,306.2,667.4,306.4,667.5,307"/>
	<path class="st22" d="M667.1,689.4c0.4-0.9-6.6-2.4-18.5-3.6c-3-0.4-6.2-0.9-9.6-1.5c-1.7-0.4-3.6-0.8-5.4-1.7
		c-1.6-0.4-4.4-3.6-2.1-6c3.9-3.7,9-1.3,12.6-1.3c4.1,0.1,8.4-0.7,12.8-1.6c8.6-2.1,17.8-3.5,25.6-1.9c3.9,0.5,7.6,1.3,11,2.1
		c2.4,1.1,5.5-2.4,7.8-3.5c9.8-6.6,15.8-10.9,16-10.6c0.2,0.2-5.5,4.9-15.1,11.9c-2.7,1.2-4.5,4.8-9.1,4c-3.4-0.7-7-1.4-10.9-1.8
		c-7.8-1.5-15.9-0.1-24.9,2c-4.5,0.9-8.9,1.6-13.3,1.5c-4.5-0.2-8.6-1.9-11,0.5c-1.8,2,3.5,4.1,6.3,4.5c3.4,0.7,6.6,1.3,9.5,1.7
		C660.5,685.7,668.1,688,667.1,689.4"/>
	<path class="st22" d="M614.2,707.8c-0.2-0.5,10.6-4.5,24.1-9.2c13.4-4.6,24.5-7.9,24.7-7.3c0.2,0.6-10.5,4.9-24,9.5
		C625.6,705.4,614.4,708.4,614.2,707.8"/>
	<path class="st22" d="M735.1,679.3c0.3,0.6-6.2,3.8-15.9,10c-5.3,2.8-9,7.6-15.3,13.2c-6.2,5-13.8,9.3-22.3,12.5
		c-17.6,6.8-34.7,3.1-45.9,1.3c-11.5-2.2-18.4-5-18.1-5.8c0.2-0.4,7.1,1.3,18.6,2.6c11.4,1,27.7,4,43.8-2.4
		c8.1-3,15.4-7.1,21.3-11.5c5.3-4.5,10.8-10.3,16.2-12.6C727.9,680.9,734.8,678.8,735.1,679.3"/>
	<path class="st22" d="M753.1,734.1c-1.2-0.2-1-11.7-5.8-25.2c-4.5-13.5-10.3-23.7-9.2-24.4c1-0.7,8.7,8.8,13.5,22.9
		C756.6,721.7,754.3,734.4,753.1,734.1"/>
	<path class="st38" d="M129.4,681.3c21-15,107.1-32,177.1,15c70,47,78.1,49,120.1,48c0,0-70.1,17-109.1-7c-39-24-46.2-33.5-94.1-49
		C189.4,677.3,129.4,681.3,129.4,681.3"/>
	<path class="st38" d="M45.3,641.8c12-12.5,96.1-83.5,217.2-49.5c121.1,34,236.2,163.1,374.3,161.1c0,0-91.1,33-155.1-4
		c-64.1-37-186.1-100-251.2-122.1c-65-22-92.1-17-120.1-15C82.4,614.2,45.3,641.8,45.3,641.8"/>
	<path class="st22" d="M750.8,740.8c0.1-0.8-38.2,16.5-104.2,16.1c-32.8-0.4-71.7-7.3-112.4-22c-40.8-14.7-83.1-36.8-125.9-62.4
		c-43-25.2-81.1-54.3-121.9-69c-40.2-15.5-79.6-20.2-112-18c-66,4.3-99.6,32.9-98.4,33c-1.7-0.6,31.9-29.9,98.3-34.6
		c32.6-2.5,72.3,2.1,112.9,17.6c41.1,14.7,79.5,43.9,122.3,69c42.7,25.6,84.9,47.7,125.4,62.4c40.5,14.8,79.1,21.8,111.7,22.4
		C712.3,756.1,750.8,739.4,750.8,740.8"/>
	<g>
		<defs>
			<rect id="SVGID_3_" x="45" y="607" width="582.9" height="160.4"/>
		</defs>
		<clipPath id="SVGID_4_">
			<use xlink:href="#SVGID_3_"  style="overflow:visible;"/>
		</clipPath>
		<g class="st39">
			<path class="st22" d="M627.8,761.1c0.2-0.6-34.4,10.4-91.2,4.8c-28.3-3-61-13.9-94.3-30.9c-33.4-16.9-68.6-38.1-106.6-58.1
				c-38.1-19.9-74.8-38.4-110.1-50c-35.2-11.8-68.7-16.9-96.7-15.5c-57.4,2.4-84,31.6-83.5,30.6c-1.6,0.3,24.9-30.5,83.3-33.8
				c28.4-1.8,62.5,3.1,98.2,14.7c35.8,11.6,72.7,30.1,110.9,50c38.2,20.1,73.3,41.4,106.4,58.4c33,17.2,64.9,28.1,92.8,31.5
				C592.9,769,627.7,759.3,627.8,761.1"/>
		</g>
	</g>
	<path class="st22" d="M431.9,745.3c0.3-0.3-17.5,6-44.8-2c-27.5-7.3-59.2-30.4-95.8-51.6c-36.1-23.9-76.5-24.7-103.8-23.1
		c-27.9,1.4-44.1,8.3-43.8,8.8c-0.6-1,15.7-8.5,43.7-10.4c27.3-2.1,68.7-1.4,105,22.7c36.8,21.4,68.1,44.5,95.1,52.1
		C414.3,750.1,432,744.4,431.9,745.3"/>
	<path class="st22" d="M398.1,749.8c0.1,0.1-15.7,4-41.4,0.8c-26-2-59.2-18.5-90-42.1c-31.1-23.1-68.6-24.4-93.2-26.8
		c-25.4-1.7-40.9,1.4-40.8,1.6c-0.6-1.4,15.3-5.7,41-4.8c12.8,0.3,28.1,1.6,44.8,4.9c16.4,3.3,35.3,9.1,50.9,21.4
		c30.9,23.6,62.4,39.7,87.8,42.6C382.2,751.4,398.1,748.7,398.1,749.8"/>
	<path class="st22" d="M533.7,747.8c0,0.1-21.2-3.6-52.5-17.8c-31.5-13.8-72.7-37.6-116.5-66.1c-22-14.2-42.2-28.8-62.6-38.6
		c-20.3-9.9-39.4-17.2-55.8-21.9c-32.8-10.2-54.4-9.2-54.3-8.7c-0.3-1.2,21.7-2.8,54.8,7.1c16.6,4.6,35.8,11.7,56.3,21.6
		c20.6,9.8,41,24.4,62.9,38.6c43.8,28.5,84.7,52.4,115.9,66.6C512.9,743.1,533.8,747.3,533.7,747.8"/>
	<path class="st22" d="M365.6,741.3c0,0.1-8.6-1.7-21.6-7.4c-13-5.6-29.5-16.2-46.9-28.8c-34.8-25.5-70.4-31.3-70.1-31.3
		c-0.2-1.2,36.1,3.6,71.4,29.5c17.4,12.5,33.6,23.2,46.3,29.2C357.3,738.5,365.7,740.9,365.6,741.3"/>
	<path class="st37" d="M552.7,755.8c0.1,0.2-22.8,0.2-57.5-11c-34.7-10.7-80.5-32.6-125.3-65.3c-90.8-65.2-184.6-74-183.4-74.3
		c-1.1-1,93.4,6.8,184.8,72.5c44.6,32.5,90.1,54.5,124.5,65.6C530,754.8,552.8,755.3,552.7,755.8"/>
	<path class="st37" d="M366.1,744.3c0,0.3-11.8-0.9-29-8.6c-17.2-7.4-39.8-20.3-63.7-35.8c-22.5-18.4-49-21.8-67.3-24.1
		c-18.5-2.1-30.1-2.1-30.1-2.5c0-0.3,11.6-0.8,30.3,0.9c18.2,1.8,45.8,5.3,68.4,23.8c23.9,15.5,46.2,28.5,63.2,36.2
		C354.6,742.3,366.1,743.9,366.1,744.3"/>
</g>
</svg>
