<?xml version="1.0" encoding="utf-8"?>
<!-- Generator: Adobe Illustrator 21.0.0, SVG Export Plug-In . SVG Version: 6.00 Build 0)  -->
<svg version="1.1" id="Layer_1" xmlns="http://www.w3.org/2000/svg" xmlns:xlink="http://www.w3.org/1999/xlink" x="0px" y="0px"
	 viewBox="0 0 774.7 810" style="enable-background:new 0 0 774.7 810;" xml:space="preserve">
<style type="text/css">
	.st0{fill:#FBB03B;}
	.st1{fill:#F9CF98;}
	.st2{fill:#A5E7F9;}
	.st3{fill:#30C8FC;fill-opacity:0.298;}
	.st4{fill:#FFFFFF;fill-opacity:0.498;}
	.st5{clip-path:url(#SVGID_2_);}
	.st6{fill:#64DAF9;}
	.st7{clip-path:url(#SVGID_4_);}
	.st8{fill:#F5AC3A;}
	.st9{fill:#BDD829;}
	.st10{fill:#B2CF13;}
</style>
<g id="surface1">
	<path class="st0" d="M618.8,398.8c0,3.8-0.1,7.6-0.3,11.3c-0.2,3.8-0.5,7.6-0.8,11.3c-0.4,3.8-0.8,7.5-1.4,11.3
		c-0.6,3.7-1.2,7.5-1.9,11.2s-1.6,7.4-2.5,11.1c-0.9,3.7-1.9,7.3-3,10.9c-1.1,3.6-2.3,7.2-3.6,10.8c-1.3,3.6-2.6,7.1-4.1,10.6
		c-1.4,3.5-3,6.9-4.6,10.4c-1.6,3.4-3.3,6.8-5.1,10.1s-3.6,6.6-5.6,9.9c-1.9,3.2-4,6.4-6.1,9.6s-4.3,6.2-6.5,9.3s-4.6,6-7,8.9
		c-2.4,2.9-4.9,5.8-7.4,8.6c-2.5,2.8-5.1,5.5-7.8,8.2c-2.7,2.7-5.4,5.3-8.2,7.8c-2.8,2.5-5.7,5-8.6,7.4c-2.9,2.4-5.9,4.7-8.9,7
		c-3,2.3-6.1,4.4-9.3,6.5s-6.3,4.1-9.6,6.1c-3.2,1.9-6.5,3.8-9.9,5.6c-3.3,1.8-6.7,3.5-10.1,5.1c-3.4,1.6-6.9,3.1-10.4,4.6
		c-3.5,1.4-7,2.8-10.6,4.1s-7.2,2.5-10.8,3.6c-3.6,1.1-7.3,2.1-10.9,3c-3.7,0.9-7.4,1.8-11.1,2.5c-3.7,0.7-7.4,1.4-11.2,1.9
		c-3.7,0.6-7.5,1-11.3,1.4c-3.8,0.4-7.5,0.6-11.3,0.8c-3.8,0.2-7.6,0.3-11.3,0.3s-7.6-0.1-11.3-0.3c-3.8-0.2-7.6-0.5-11.3-0.8
		c-3.8-0.4-7.5-0.8-11.3-1.4s-7.5-1.2-11.2-1.9c-3.7-0.7-7.4-1.6-11.1-2.5c-3.7-0.9-7.3-1.9-10.9-3c-3.6-1.1-7.2-2.3-10.8-3.6
		s-7.1-2.6-10.6-4.1c-3.5-1.4-7-3-10.4-4.6c-3.4-1.6-6.8-3.3-10.1-5.1c-3.3-1.8-6.6-3.6-9.9-5.6c-3.2-1.9-6.4-4-9.6-6.1
		s-6.2-4.3-9.3-6.5c-3-2.3-6-4.6-8.9-7c-2.9-2.4-5.8-4.9-8.6-7.4c-2.8-2.5-5.5-5.1-8.2-7.8c-2.7-2.7-5.3-5.4-7.8-8.2
		c-2.5-2.8-5-5.7-7.4-8.6c-2.4-2.9-4.7-5.9-7-8.9s-4.4-6.1-6.5-9.3s-4.1-6.3-6.1-9.6c-1.9-3.2-3.8-6.5-5.6-9.9
		c-1.8-3.3-3.5-6.7-5.1-10.1c-1.6-3.4-3.1-6.9-4.6-10.4c-1.4-3.5-2.8-7-4.1-10.6c-1.3-3.6-2.5-7.1-3.6-10.8c-1.1-3.6-2.1-7.3-3-10.9
		c-0.9-3.7-1.7-7.4-2.5-11.1s-1.4-7.4-1.9-11.2s-1-7.5-1.4-11.3c-0.4-3.8-0.6-7.5-0.8-11.3c-0.2-3.8-0.3-7.6-0.3-11.3
		c0-3.8,0.1-7.6,0.3-11.3c0.2-3.8,0.5-7.5,0.8-11.3c0.4-3.8,0.8-7.5,1.4-11.3s1.2-7.5,1.9-11.2s1.6-7.4,2.5-11.1
		c0.9-3.7,1.9-7.3,3-10.9c1.1-3.6,2.3-7.2,3.6-10.8c1.3-3.6,2.6-7.1,4.1-10.6c1.4-3.5,3-7,4.6-10.4s3.3-6.8,5.1-10.1
		c1.8-3.3,3.6-6.6,5.6-9.9c1.9-3.2,4-6.4,6.1-9.6s4.3-6.2,6.5-9.3s4.6-6,7-8.9c2.4-2.9,4.9-5.8,7.4-8.6c2.5-2.8,5.1-5.5,7.8-8.2
		c2.7-2.7,5.4-5.3,8.2-7.8c2.8-2.5,5.7-5,8.6-7.4c2.9-2.4,5.9-4.7,8.9-7c3-2.3,6.1-4.4,9.3-6.5s6.3-4.1,9.6-6.1
		c3.2-1.9,6.5-3.8,9.9-5.6c3.3-1.8,6.7-3.5,10.1-5.1c3.4-1.6,6.9-3.1,10.4-4.6c3.5-1.4,7-2.8,10.6-4.1s7.2-2.5,10.8-3.6
		c3.6-1.1,7.3-2.1,10.9-3c3.7-0.9,7.4-1.7,11.1-2.5c3.7-0.7,7.4-1.4,11.2-1.9s7.5-1,11.3-1.4c3.8-0.4,7.5-0.6,11.3-0.8
		c3.8-0.2,7.6-0.3,11.3-0.3s7.6,0.1,11.3,0.3c3.8,0.2,7.6,0.5,11.3,0.8c3.8,0.4,7.5,0.8,11.3,1.4c3.7,0.6,7.5,1.2,11.2,1.9
		c3.7,0.7,7.4,1.6,11.1,2.5c3.7,0.9,7.3,1.9,10.9,3c3.6,1.1,7.2,2.3,10.8,3.6s7.1,2.6,10.6,4.1c3.5,1.4,6.9,3,10.4,4.6
		c3.4,1.6,6.8,3.3,10.1,5.1c3.3,1.8,6.6,3.6,9.9,5.6c3.2,1.9,6.4,4,9.6,6.1s6.2,4.3,9.3,6.5c3,2.3,6,4.6,8.9,7
		c2.9,2.4,5.8,4.9,8.6,7.4c2.8,2.5,5.5,5.1,8.2,7.8c2.7,2.7,5.3,5.4,7.8,8.2c2.5,2.8,5,5.7,7.4,8.6c2.4,2.9,4.7,5.9,7,8.9
		s4.4,6.1,6.5,9.3s4.1,6.3,6.1,9.6c1.9,3.2,3.8,6.5,5.6,9.9s3.5,6.7,5.1,10.1s3.1,6.9,4.6,10.4c1.4,3.5,2.8,7,4.1,10.6
		c1.3,3.6,2.5,7.2,3.6,10.8c1.1,3.6,2.1,7.3,3,10.9c0.9,3.7,1.7,7.4,2.5,11.1s1.4,7.4,1.9,11.2s1,7.5,1.4,11.3
		c0.4,3.8,0.6,7.5,0.8,11.3C618.7,391.3,618.8,395,618.8,398.8z"/>
	<path class="st1" d="M594.5,398.8c0,3.4-0.1,6.8-0.3,10.1c-0.2,3.4-0.4,6.8-0.7,10.1s-0.7,6.7-1.2,10.1s-1.1,6.7-1.7,10
		s-1.4,6.6-2.2,9.9c-0.8,3.3-1.7,6.5-2.7,9.8c-1,3.2-2,6.5-3.2,9.6c-1.1,3.2-2.4,6.3-3.7,9.5c-1.3,3.1-2.7,6.2-4.1,9.3
		c-1.4,3.1-3,6.1-4.6,9.1c-1.6,3-3.3,5.9-5,8.8c-1.7,2.9-3.6,5.8-5.4,8.6c-1.9,2.8-3.8,5.6-5.8,8.3c-2,2.7-4.1,5.4-6.2,8
		c-2.1,2.6-4.4,5.2-6.6,7.7s-4.6,5-7,7.4c-2.4,2.4-4.8,4.7-7.4,7c-2.5,2.3-5.1,4.5-7.7,6.6c-2.6,2.1-5.3,4.2-8,6.2s-5.5,4-8.3,5.8
		c-2.8,1.9-5.7,3.7-8.6,5.4s-5.8,3.4-8.8,5c-3,1.6-6,3.1-9.1,4.6c-3.1,1.4-6.2,2.8-9.3,4.1c-3.1,1.3-6.3,2.5-9.5,3.7
		s-6.4,2.2-9.6,3.2c-3.2,1-6.5,1.9-9.8,2.7c-3.3,0.8-6.6,1.6-9.9,2.2c-3.3,0.7-6.7,1.2-10,1.7c-3.3,0.5-6.7,0.9-10.1,1.2
		s-6.7,0.6-10.1,0.7c-3.4,0.2-6.8,0.3-10.1,0.3s-6.8-0.1-10.1-0.3c-3.4-0.2-6.8-0.4-10.1-0.7s-6.7-0.7-10.1-1.2
		c-3.3-0.5-6.7-1.1-10-1.7c-3.3-0.7-6.6-1.4-9.9-2.2c-3.3-0.8-6.5-1.7-9.8-2.7c-3.2-1-6.4-2-9.6-3.2s-6.3-2.4-9.5-3.7
		c-3.1-1.3-6.2-2.7-9.3-4.1c-3.1-1.4-6.1-3-9.1-4.6c-3-1.6-5.9-3.3-8.8-5s-5.8-3.6-8.6-5.4c-2.8-1.9-5.6-3.8-8.3-5.8
		c-2.7-2-5.4-4.1-8-6.2c-2.6-2.1-5.2-4.4-7.7-6.6s-5-4.6-7.4-7c-2.4-2.4-4.7-4.8-7-7.4s-4.5-5.1-6.6-7.7c-2.1-2.6-4.2-5.3-6.2-8
		c-2-2.7-4-5.5-5.8-8.3c-1.9-2.8-3.7-5.7-5.4-8.6c-1.7-2.9-3.4-5.8-5-8.8c-1.6-3-3.1-6-4.6-9.1c-1.4-3.1-2.8-6.2-4.1-9.3
		c-1.3-3.1-2.5-6.3-3.7-9.5c-1.1-3.2-2.2-6.4-3.2-9.6c-1-3.2-1.9-6.5-2.7-9.8c-0.8-3.3-1.6-6.6-2.2-9.9s-1.2-6.7-1.7-10
		s-0.9-6.7-1.2-10.1s-0.6-6.7-0.7-10.1c-0.2-3.4-0.3-6.8-0.3-10.1c0-3.4,0.1-6.8,0.3-10.1c0.2-3.4,0.4-6.8,0.7-10.1
		c0.3-3.4,0.7-6.7,1.2-10.1s1.1-6.7,1.7-10s1.4-6.6,2.2-9.9c0.8-3.3,1.7-6.5,2.7-9.8c1-3.2,2-6.5,3.2-9.6c1.1-3.2,2.4-6.3,3.7-9.5
		c1.3-3.1,2.7-6.2,4.1-9.3c1.4-3.1,3-6.1,4.6-9.1c1.6-3,3.3-5.9,5-8.8c1.7-2.9,3.6-5.8,5.4-8.6c1.9-2.8,3.8-5.6,5.8-8.3
		c2-2.7,4.1-5.4,6.2-8c2.1-2.6,4.4-5.2,6.6-7.7s4.6-5,7-7.4c2.4-2.4,4.8-4.7,7.4-7c2.5-2.3,5.1-4.5,7.7-6.6c2.6-2.1,5.3-4.2,8-6.2
		c2.7-2,5.5-4,8.3-5.8c2.8-1.9,5.7-3.7,8.6-5.4c2.9-1.7,5.8-3.4,8.8-5s6-3.1,9.1-4.6c3.1-1.4,6.2-2.8,9.3-4.1
		c3.1-1.3,6.3-2.5,9.5-3.7s6.4-2.2,9.6-3.2c3.2-1,6.5-1.9,9.8-2.7c3.3-0.8,6.6-1.6,9.9-2.2c3.3-0.7,6.7-1.2,10-1.7s6.7-0.9,10.1-1.2
		s6.7-0.6,10.1-0.7c3.4-0.2,6.8-0.3,10.1-0.3s6.8,0.1,10.1,0.3c3.4,0.2,6.8,0.4,10.1,0.7s6.7,0.7,10.1,1.2s6.7,1.1,10,1.7
		c3.3,0.7,6.6,1.4,9.9,2.2c3.3,0.8,6.5,1.7,9.8,2.7c3.2,1,6.4,2,9.6,3.2s6.3,2.4,9.5,3.7c3.1,1.3,6.2,2.7,9.3,4.1
		c3.1,1.4,6.1,3,9.1,4.6c3,1.6,5.9,3.3,8.8,5c2.9,1.7,5.8,3.5,8.6,5.4c2.8,1.9,5.6,3.8,8.3,5.8s5.4,4.1,8,6.2
		c2.6,2.1,5.2,4.4,7.7,6.6c2.5,2.3,5,4.6,7.4,7c2.4,2.4,4.7,4.8,7,7.4s4.5,5.1,6.6,7.7c2.1,2.6,4.2,5.3,6.2,8c2,2.7,4,5.5,5.8,8.3
		c1.9,2.8,3.7,5.7,5.4,8.6c1.7,2.9,3.4,5.8,5,8.8c1.6,3,3.1,6,4.6,9.1c1.4,3.1,2.8,6.2,4.1,9.3c1.3,3.1,2.5,6.3,3.7,9.5
		c1.1,3.2,2.2,6.4,3.2,9.6c1,3.2,1.9,6.5,2.7,9.8c0.8,3.3,1.6,6.6,2.2,9.9s1.2,6.7,1.7,10s0.9,6.7,1.2,10.1
		c0.3,3.4,0.6,6.7,0.7,10.1C594.4,392,594.5,395.4,594.5,398.8z"/>
	<path class="st2" d="M494.9,336.3c-2.7-0.7-5.3-1.5-7.9-2.5c-2.6-1-5.1-2.2-7.5-3.6c-2.4-1.4-4.7-2.9-7-4.6
		c-2.2-1.7-4.3-3.5-6.3-5.5s-3.8-4.1-5.5-6.3c-1.7-2.2-3.2-4.5-4.6-7c-1.4-2.4-2.5-4.9-3.6-7.5s-1.8-5.2-2.5-7.9
		c-0.5-2-0.8-3.9-1.1-5.9c-0.3-2.1-0.8-4.1-1.3-6.1s-1.1-4-1.8-6c-0.7-2-1.5-3.9-2.4-5.8c-0.9-1.9-1.8-3.7-2.9-5.5
		c-1-1.8-2.2-3.5-3.4-5.2c-1.2-1.7-2.5-3.3-3.8-4.9c-1.4-1.6-2.8-3.1-4.3-4.5c-1.5-1.4-3.1-2.8-4.7-4.1c-1.6-1.3-3.3-2.5-5-3.7
		c-1.7-1.1-3.5-2.2-5.4-3.2c-1.8-1-3.7-1.9-5.6-2.7c-1.9-0.8-3.9-1.5-5.8-2.2c-2-0.6-4-1.2-6-1.6s-4.1-0.8-6.1-1.1
		c-2.1-0.3-4.1-0.4-6.2-0.5s-4.2,0-6.2,0.1c-7.8,0.4-15.6,1.4-23.3,2.9c-2.5,0.5-5,1-7.5,1.6c-2.5,0.6-5,1.3-7.4,2
		c-2.5,0.7-4.9,1.5-7.3,2.3c-2.4,0.8-4.8,1.7-7.2,2.6c-2.4,0.9-4.7,1.9-7.1,3s-4.6,2.1-6.9,3.3s-4.5,2.3-6.8,3.6s-4.4,2.5-6.6,3.9
		c-2.2,1.3-4.3,2.7-6.4,4.2c-2.1,1.4-4.2,2.9-6.2,4.5c-2,1.5-4.1,3.1-6,4.7c-2,1.6-3.9,3.3-5.8,5c-1.9,1.7-3.8,3.5-5.6,5.3
		c-1.8,1.8-3.6,3.6-5.3,5.5c-1.7,1.9-3.4,3.8-5.1,5.8s-3.3,3.9-4.8,6c-1.6,2-3.1,4.1-4.5,6.2c-1.5,2.1-2.9,4.2-4.3,6.4
		c-1.4,2.2-2.7,4.3-4,6.6c-1.3,2.2-2.5,4.5-3.7,6.7c-1.2,2.3-2.3,4.6-3.4,6.9c-1.1,2.3-2.1,4.7-3,7c-1,2.4-1.9,4.8-2.7,7.2
		c-0.9,2.4-1.7,4.8-2.4,7.3c-0.7,2.4-1.4,4.9-2.1,7.4c-0.6,2.5-1.2,5-1.7,7.5c-0.5,2.5-1,5-1.4,7.5c-0.4,2.5-0.8,5.1-1.1,7.6
		c-0.3,2.5-0.5,5.1-0.7,7.6c-0.2,2.6-0.3,5.1-0.4,7.7c-0.1,2.6-0.1,5.1,0,7.7c0.1,2.6,0.2,5.1,0.3,7.7c0.2,2.6,0.4,5.1,0.7,7.6
		c0.3,2.5,0.6,5.1,1,7.6s0.8,5,1.4,7.5c0.5,2.5,1.1,5,1.7,7.5s1.3,4.9,2,7.4c0.7,2.4,1.5,4.9,2.4,7.3c0.8,2.4,1.7,4.8,2.7,7.2
		s1.9,4.7,3,7.1s2.2,4.6,3.3,6.9c1.2,2.3,2.4,4.5,3.6,6.8c1.3,2.2,2.6,4.4,3.9,6.6c1.4,2.2,2.8,4.3,4.2,6.4c1.5,2.1,3,4.2,4.5,6.2
		c1.5,2,3.1,4,4.8,6c1.6,2,3.3,3.9,5,5.8c1.7,1.9,3.5,3.7,5.3,5.5c1.8,1.8,3.7,3.6,5.5,5.3c1.9,1.7,3.8,3.4,5.8,5c2,1.6,4,3.2,6,4.8
		c2,1.5,4.1,3,6.2,4.5c2.1,1.5,4.2,2.9,6.4,4.2c2.2,1.4,4.4,2.7,6.6,3.9c2.2,1.3,4.5,2.5,6.8,3.6c2.3,1.2,4.6,2.3,6.9,3.3
		c2.3,1.1,4.7,2.1,7.1,3c2.4,0.9,4.8,1.8,7.2,2.7c2.4,0.8,4.8,1.6,7.3,2.4s4.9,1.4,7.4,2c2.5,0.6,5,1.2,7.5,1.7c2.5,0.5,5,1,7.6,1.4
		s5.1,0.7,7.6,1c2.5,0.3,5.1,0.5,7.6,0.7c2.6,0.2,5.1,0.3,7.7,0.3c2.6,0.1,5.1,0,7.7,0c2.6-0.1,5.1-0.2,7.7-0.4s5.1-0.4,7.6-0.7
		c2.5-0.3,5.1-0.6,7.6-1.1c2.5-0.4,5-0.9,7.5-1.4c2.5-0.5,5-1.1,7.5-1.7c2.5-0.6,4.9-1.3,7.4-2.1c2.4-0.7,4.9-1.5,7.3-2.4
		c2.4-0.9,4.8-1.8,7.2-2.7c2.4-1,4.7-2,7-3c2.3-1.1,4.6-2.2,6.9-3.4s4.5-2.4,6.7-3.7s4.4-2.6,6.6-4c2.2-1.4,4.3-2.8,6.4-4.3
		c2.1-1.5,4.2-3,6.2-4.5s4-3.2,6-4.8c2-1.6,3.9-3.3,5.7-5.1c1.9-1.7,3.7-3.5,5.5-5.3c1.8-1.8,3.6-3.7,5.3-5.6c1.7-1.9,3.4-3.8,5-5.8
		c1.6-2,3.2-4,4.7-6c1.5-2,3-4.1,4.5-6.2c1.4-2.1,2.8-4.3,4.2-6.4c1.3-2.2,2.6-4.4,3.9-6.6c1.2-2.2,2.4-4.5,3.6-6.8s2.2-4.6,3.3-6.9
		c1-2.3,2-4.7,3-7.1c0.9-2.4,1.8-4.8,2.6-7.2s1.6-4.9,2.3-7.3c0.7-2.5,1.4-4.9,2-7.4s1.2-5,1.7-7.5c1.5-7.7,2.4-15.5,2.9-23.3
		c0.1-2.1,0.2-4.2,0.1-6.2c-0.1-2.1-0.2-4.1-0.5-6.2c-0.3-2.1-0.6-4.1-1.1-6.1c-0.4-2-1-4-1.6-6c-0.6-2-1.4-3.9-2.2-5.8
		c-0.8-1.9-1.7-3.8-2.7-5.6c-1-1.8-2-3.6-3.2-5.3s-2.4-3.4-3.7-5s-2.7-3.2-4.1-4.7s-3-2.9-4.5-4.3c-1.6-1.4-3.2-2.6-4.9-3.8
		c-1.7-1.2-3.4-2.3-5.2-3.4s-3.6-2-5.5-2.9c-1.9-0.9-3.8-1.7-5.8-2.4c-2-0.7-3.9-1.3-6-1.8c-2-0.5-4-0.9-6.1-1.3
		C498.8,337.1,496.9,336.8,494.9,336.3z"/>
	<path class="st3" d="M375.5,415c0,1.2,0,2.4-0.1,3.6s-0.1,2.4-0.3,3.6c-0.1,1.2-0.3,2.4-0.4,3.6c-0.2,1.2-0.4,2.4-0.6,3.5
		s-0.5,2.3-0.8,3.5s-0.6,2.3-1,3.5c-0.3,1.1-0.7,2.3-1.1,3.4s-0.8,2.2-1.3,3.3c-0.5,1.1-0.9,2.2-1.5,3.3c-0.5,1.1-1,2.1-1.6,3.2
		c-0.6,1.1-1.2,2.1-1.8,3.1c-0.6,1-1.3,2-1.9,3c-0.7,1-1.4,2-2.1,2.9c-0.7,1-1.4,1.9-2.2,2.8s-1.5,1.8-2.3,2.7
		c-0.8,0.9-1.6,1.8-2.5,2.6c-0.8,0.8-1.7,1.7-2.6,2.5c-0.9,0.8-1.8,1.6-2.7,2.3c-0.9,0.8-1.9,1.5-2.8,2.2c-1,0.7-1.9,1.4-2.9,2.1
		c-1,0.7-2,1.3-3,1.9c-1,0.6-2.1,1.2-3.1,1.8c-1.1,0.6-2.1,1.1-3.2,1.6c-1.1,0.5-2.2,1-3.3,1.5c-1.1,0.5-2.2,0.9-3.3,1.3
		s-2.3,0.8-3.4,1.1c-1.1,0.3-2.3,0.7-3.5,1c-1.2,0.3-2.3,0.6-3.5,0.8s-2.3,0.4-3.5,0.6c-1.2,0.2-2.4,0.3-3.6,0.4
		c-1.2,0.1-2.4,0.2-3.6,0.3c-1.2,0.1-2.4,0.1-3.6,0.1c-1.2,0-2.4,0-3.6-0.1c-1.2-0.1-2.4-0.1-3.6-0.3s-2.4-0.3-3.6-0.4
		c-1.2-0.2-2.4-0.4-3.5-0.6s-2.3-0.5-3.5-0.8c-1.2-0.3-2.3-0.6-3.5-1c-1.1-0.3-2.3-0.7-3.4-1.1s-2.2-0.8-3.3-1.3
		c-1.1-0.5-2.2-0.9-3.3-1.5s-2.1-1-3.2-1.6s-2.1-1.2-3.1-1.8s-2-1.3-3-1.9c-1-0.7-2-1.4-2.9-2.1c-1-0.7-1.9-1.4-2.8-2.2
		c-0.9-0.8-1.8-1.5-2.7-2.3c-0.9-0.8-1.8-1.6-2.6-2.5c-0.8-0.8-1.7-1.7-2.5-2.6c-0.8-0.9-1.6-1.8-2.3-2.7s-1.5-1.9-2.2-2.8
		c-0.7-1-1.4-1.9-2.1-2.9c-0.7-1-1.3-2-1.9-3c-0.6-1-1.2-2.1-1.8-3.1c-0.6-1.1-1.1-2.1-1.6-3.2c-0.5-1.1-1-2.2-1.5-3.3
		c-0.5-1.1-0.9-2.2-1.3-3.3s-0.8-2.3-1.1-3.4c-0.3-1.1-0.7-2.3-1-3.5c-0.3-1.2-0.6-2.3-0.8-3.5c-0.2-1.2-0.4-2.3-0.6-3.5
		c-0.2-1.2-0.3-2.4-0.4-3.6c-0.1-1.2-0.2-2.4-0.3-3.6s-0.1-2.4-0.1-3.6c0-1.2,0-2.4,0.1-3.6c0.1-1.2,0.1-2.4,0.3-3.6
		s0.3-2.4,0.4-3.6c0.2-1.2,0.4-2.4,0.6-3.5c0.2-1.2,0.5-2.3,0.8-3.5c0.3-1.2,0.6-2.3,1-3.5c0.3-1.1,0.7-2.3,1.1-3.4s0.8-2.2,1.3-3.3
		c0.5-1.1,0.9-2.2,1.5-3.3c0.5-1.1,1-2.1,1.6-3.2s1.2-2.1,1.8-3.1s1.3-2,1.9-3c0.7-1,1.4-2,2.1-2.9c0.7-1,1.4-1.9,2.2-2.8
		c0.8-0.9,1.5-1.8,2.3-2.7c0.8-0.9,1.6-1.8,2.5-2.6s1.7-1.7,2.6-2.5c0.9-0.8,1.8-1.6,2.7-2.3c0.9-0.8,1.9-1.5,2.8-2.2
		c1-0.7,1.9-1.4,2.9-2.1c1-0.7,2-1.3,3-1.9s2.1-1.2,3.1-1.8s2.1-1.1,3.2-1.6c1.1-0.5,2.2-1,3.3-1.4c1.1-0.5,2.2-0.9,3.3-1.3
		s2.3-0.8,3.4-1.1c1.1-0.3,2.3-0.7,3.5-1c1.2-0.3,2.3-0.6,3.5-0.8c1.2-0.2,2.3-0.4,3.5-0.6c1.2-0.2,2.4-0.3,3.6-0.4s2.4-0.2,3.6-0.3
		c1.2-0.1,2.4-0.1,3.6-0.1c1.2,0,2.4,0,3.6,0.1c1.2,0.1,2.4,0.1,3.6,0.3c1.2,0.1,2.4,0.3,3.6,0.4c1.2,0.2,2.4,0.4,3.5,0.6
		c1.2,0.2,2.3,0.5,3.5,0.8c1.2,0.3,2.3,0.6,3.5,1s2.3,0.7,3.4,1.1s2.2,0.8,3.3,1.3c1.1,0.5,2.2,0.9,3.3,1.4c1.1,0.5,2.1,1.1,3.2,1.6
		c1.1,0.6,2.1,1.2,3.1,1.8c1,0.6,2,1.3,3,1.9c1,0.7,2,1.4,2.9,2.1c1,0.7,1.9,1.4,2.8,2.2c0.9,0.8,1.8,1.5,2.7,2.3
		c0.9,0.8,1.8,1.6,2.6,2.5s1.7,1.7,2.5,2.6c0.8,0.9,1.6,1.8,2.3,2.7c0.8,0.9,1.5,1.9,2.2,2.8c0.7,1,1.4,1.9,2.1,2.9s1.3,2,1.9,3
		s1.2,2.1,1.8,3.1s1.1,2.1,1.6,3.2c0.5,1.1,1,2.2,1.5,3.3c0.5,1.1,0.9,2.2,1.3,3.3s0.8,2.3,1.1,3.4c0.3,1.1,0.7,2.3,1,3.5
		c0.3,1.2,0.6,2.3,0.8,3.5s0.4,2.3,0.6,3.5c0.2,1.2,0.3,2.4,0.4,3.6s0.2,2.4,0.3,3.6C375.5,412.6,375.5,413.8,375.5,415z"/>
	<path class="st0" d="M351.2,398.8c0,1.6-0.1,3.2-0.2,4.8s-0.4,3.2-0.7,4.7c-0.3,1.6-0.7,3.1-1.2,4.6c-0.5,1.5-1,3-1.6,4.5
		s-1.3,2.9-2,4.3c-0.8,1.4-1.6,2.8-2.5,4.1c-0.9,1.3-1.8,2.6-2.8,3.8c-1,1.2-2.1,2.4-3.2,3.5s-2.3,2.2-3.5,3.2c-1.2,1-2.5,2-3.8,2.8
		c-1.3,0.9-2.7,1.7-4.1,2.5c-1.4,0.8-2.8,1.4-4.3,2s-3,1.1-4.5,1.6c-1.5,0.5-3.1,0.8-4.6,1.2c-1.6,0.3-3.1,0.5-4.7,0.7
		s-3.2,0.2-4.8,0.2s-3.2-0.1-4.8-0.2c-1.6-0.2-3.2-0.4-4.7-0.7c-1.6-0.3-3.1-0.7-4.6-1.2c-1.5-0.5-3-1-4.5-1.6s-2.9-1.3-4.3-2
		c-1.4-0.8-2.8-1.6-4.1-2.5c-1.3-0.9-2.6-1.8-3.8-2.8c-1.2-1-2.4-2.1-3.5-3.2c-1.1-1.1-2.2-2.3-3.2-3.5c-1-1.2-2-2.5-2.8-3.8
		c-0.9-1.3-1.7-2.7-2.5-4.1c-0.8-1.4-1.4-2.8-2-4.3s-1.1-3-1.6-4.5s-0.8-3.1-1.2-4.6s-0.5-3.1-0.7-4.7s-0.2-3.2-0.2-4.8
		s0.1-3.2,0.2-4.8c0.2-1.6,0.4-3.2,0.7-4.7s0.7-3.1,1.2-4.6c0.5-1.5,1-3,1.6-4.5s1.3-2.9,2-4.3c0.8-1.4,1.6-2.8,2.5-4.1
		c0.9-1.3,1.8-2.6,2.8-3.8c1-1.2,2.1-2.4,3.2-3.5c1.1-1.1,2.3-2.2,3.5-3.2c1.2-1,2.5-2,3.8-2.8c1.3-0.9,2.7-1.7,4.1-2.5
		c1.4-0.8,2.8-1.4,4.3-2s3-1.1,4.5-1.6c1.5-0.5,3.1-0.8,4.6-1.2s3.1-0.5,4.7-0.7c1.6-0.2,3.2-0.2,4.8-0.2s3.2,0.1,4.8,0.2
		s3.2,0.4,4.7,0.7c1.6,0.3,3.1,0.7,4.6,1.2c1.5,0.5,3,1,4.5,1.6s2.9,1.3,4.3,2c1.4,0.8,2.8,1.6,4.1,2.5c1.3,0.9,2.6,1.8,3.8,2.8
		c1.2,1,2.4,2.1,3.5,3.2c1.1,1.1,2.2,2.3,3.2,3.5c1,1.2,2,2.5,2.8,3.8s1.7,2.7,2.5,4.1c0.8,1.4,1.4,2.8,2,4.3s1.1,3,1.6,4.5
		c0.5,1.5,0.8,3.1,1.2,4.6c0.3,1.6,0.5,3.1,0.7,4.7C351.1,395.6,351.2,397.2,351.2,398.8z"/>
	<path class="st3" d="M464.2,520.5c0,0.9-0.1,1.7-0.3,2.6c-0.2,0.9-0.5,1.7-0.9,2.6c-0.4,0.8-0.9,1.7-1.4,2.5
		c-0.6,0.8-1.2,1.6-2,2.4c-0.8,0.8-1.6,1.6-2.5,2.3c-0.9,0.8-2,1.5-3.1,2.2s-2.3,1.4-3.5,2.1s-2.6,1.3-4,1.9
		c-1.4,0.6-2.9,1.2-4.4,1.7c-1.5,0.5-3.1,1.1-4.8,1.5c-1.7,0.5-3.3,0.9-5.1,1.3s-3.5,0.8-5.4,1.1c-1.8,0.3-3.7,0.6-5.6,0.9
		s-3.8,0.5-5.8,0.6s-3.9,0.3-5.9,0.4c-2,0.1-3.9,0.1-5.9,0.1c-2,0-4,0-5.9-0.1c-2-0.1-3.9-0.2-5.9-0.4s-3.9-0.4-5.8-0.6
		c-1.9-0.3-3.8-0.5-5.6-0.9c-1.8-0.3-3.6-0.7-5.4-1.1c-1.7-0.4-3.4-0.9-5.1-1.3c-1.6-0.5-3.2-1-4.8-1.5c-1.5-0.5-3-1.1-4.4-1.7
		c-1.4-0.6-2.7-1.2-4-1.9s-2.4-1.4-3.5-2.1s-2.1-1.5-3.1-2.2s-1.8-1.5-2.5-2.3s-1.4-1.6-2-2.4c-0.6-0.8-1.1-1.7-1.4-2.5
		c-0.4-0.8-0.7-1.7-0.9-2.6c-0.2-0.9-0.3-1.7-0.3-2.6s0.1-1.7,0.3-2.6c0.2-0.9,0.5-1.7,0.9-2.6c0.4-0.8,0.9-1.7,1.4-2.5
		c0.6-0.8,1.2-1.6,2-2.4c0.8-0.8,1.6-1.6,2.5-2.3s2-1.5,3.1-2.2s2.3-1.4,3.5-2.1s2.6-1.3,4-1.9c1.4-0.6,2.9-1.2,4.4-1.7
		c1.5-0.6,3.1-1.1,4.8-1.5s3.3-0.9,5.1-1.3c1.8-0.4,3.5-0.8,5.4-1.1c1.8-0.3,3.7-0.6,5.6-0.9c1.9-0.3,3.8-0.5,5.8-0.6
		s3.9-0.3,5.9-0.4c2-0.1,4-0.1,5.9-0.1c2,0,4,0,5.9,0.1c2,0.1,3.9,0.2,5.9,0.4s3.9,0.4,5.8,0.6c1.9,0.3,3.8,0.5,5.6,0.9
		c1.8,0.3,3.6,0.7,5.4,1.1s3.4,0.8,5.1,1.3c1.6,0.5,3.2,1,4.8,1.5c1.5,0.5,3,1.1,4.4,1.7c1.4,0.6,2.7,1.3,4,1.9s2.4,1.4,3.5,2.1
		s2.1,1.5,3.1,2.2c0.9,0.8,1.8,1.5,2.5,2.3c0.8,0.8,1.4,1.6,2,2.4c0.6,0.8,1.1,1.7,1.4,2.5c0.4,0.8,0.7,1.7,0.9,2.6
		C464.1,518.7,464.2,519.6,464.2,520.5z"/>
	<path class="st4" d="M317.5,412.2c0,1-0.1,2-0.3,2.9s-0.5,1.9-0.9,2.8c-0.4,0.9-0.8,1.8-1.4,2.6c-0.5,0.8-1.2,1.6-1.9,2.3
		s-1.5,1.3-2.3,1.9c-0.8,0.5-1.7,1-2.6,1.4c-0.9,0.4-1.8,0.7-2.8,0.9s-1.9,0.3-2.9,0.3s-2-0.1-2.9-0.3s-1.9-0.5-2.8-0.9
		c-0.9-0.4-1.8-0.8-2.6-1.4s-1.6-1.2-2.3-1.9s-1.3-1.5-1.9-2.3c-0.5-0.8-1-1.7-1.4-2.6c-0.4-0.9-0.7-1.8-0.9-2.8s-0.3-1.9-0.3-2.9
		s0.1-2,0.3-2.9s0.5-1.9,0.9-2.8s0.8-1.8,1.4-2.6c0.5-0.8,1.2-1.6,1.9-2.3c0.7-0.7,1.5-1.3,2.3-1.9s1.7-1,2.6-1.4
		c0.9-0.4,1.8-0.7,2.8-0.9c1-0.2,1.9-0.3,2.9-0.3s2,0.1,2.9,0.3c1,0.2,1.9,0.5,2.8,0.9c0.9,0.4,1.8,0.8,2.6,1.4
		c0.8,0.5,1.6,1.2,2.3,1.9c0.7,0.7,1.3,1.5,1.9,2.3c0.5,0.8,1,1.7,1.4,2.6c0.4,0.9,0.7,1.8,0.9,2.8S317.5,411.3,317.5,412.2z"/>
	<path class="st4" d="M334.9,397.3c0,0.5,0,0.9-0.1,1.4c-0.1,0.5-0.2,0.9-0.4,1.3c-0.2,0.4-0.4,0.8-0.7,1.2s-0.6,0.7-0.9,1.1
		c-0.3,0.3-0.7,0.6-1.1,0.9c-0.4,0.3-0.8,0.5-1.2,0.7s-0.9,0.3-1.3,0.4c-0.5,0.1-0.9,0.1-1.4,0.1s-0.9,0-1.4-0.1
		c-0.5-0.1-0.9-0.2-1.3-0.4s-0.8-0.4-1.2-0.7c-0.4-0.3-0.7-0.6-1.1-0.9c-0.3-0.3-0.6-0.7-0.9-1.1s-0.5-0.8-0.7-1.2
		c-0.2-0.4-0.3-0.9-0.4-1.3c-0.1-0.5-0.1-0.9-0.1-1.4c0-0.5,0-0.9,0.1-1.4c0.1-0.5,0.2-0.9,0.4-1.3s0.4-0.8,0.7-1.2
		c0.3-0.4,0.6-0.7,0.9-1.1c0.3-0.3,0.7-0.6,1.1-0.9c0.4-0.3,0.8-0.5,1.2-0.7c0.4-0.2,0.9-0.3,1.3-0.4s0.9-0.1,1.4-0.1s0.9,0,1.4,0.1
		s0.9,0.2,1.3,0.4c0.4,0.2,0.8,0.4,1.2,0.7c0.4,0.3,0.8,0.6,1.1,0.9c0.3,0.3,0.6,0.7,0.9,1.1c0.3,0.4,0.5,0.8,0.7,1.2
		s0.3,0.9,0.4,1.3C334.8,396.3,334.9,396.8,334.9,397.3z"/>
	<g>
		<defs>
			<rect id="SVGID_1_" x="423.9" y="33.9" width="328.6" height="365.1"/>
		</defs>
		<clipPath id="SVGID_2_">
			<use xlink:href="#SVGID_1_"  style="overflow:visible;"/>
		</clipPath>
		<g class="st5">
			<path class="st6" d="M716.1,33.9L424.2,325.8v73L752.6,70.4L716.1,33.9z"/>
		</g>
	</g>
	<path class="st4" d="M412,289.3c0,0.8,0,1.6-0.1,2.4s-0.2,1.6-0.4,2.4s-0.3,1.6-0.6,2.3s-0.5,1.5-0.8,2.2c-0.3,0.7-0.6,1.5-1,2.2
		c-0.4,0.7-0.8,1.4-1.2,2c-0.4,0.7-0.9,1.3-1.4,1.9c-0.5,0.6-1,1.2-1.6,1.8c-0.6,0.6-1.2,1.1-1.8,1.6s-1.3,1-1.9,1.4s-1.3,0.9-2,1.2
		c-0.7,0.4-1.4,0.7-2.2,1c-0.7,0.3-1.5,0.6-2.2,0.8c-0.8,0.2-1.5,0.4-2.3,0.6s-1.6,0.3-2.4,0.4c-0.8,0.1-1.6,0.1-2.4,0.1
		s-1.6,0-2.4-0.1s-1.6-0.2-2.4-0.4s-1.6-0.3-2.3-0.6c-0.8-0.2-1.5-0.5-2.2-0.8c-0.7-0.3-1.5-0.6-2.2-1c-0.7-0.4-1.4-0.8-2-1.2
		s-1.3-0.9-1.9-1.4s-1.2-1-1.8-1.6c-0.6-0.6-1.1-1.2-1.6-1.8c-0.5-0.6-1-1.3-1.4-1.9c-0.4-0.7-0.9-1.3-1.2-2c-0.4-0.7-0.7-1.4-1-2.2
		c-0.3-0.7-0.6-1.5-0.8-2.2c-0.2-0.8-0.4-1.5-0.6-2.3s-0.3-1.6-0.4-2.4s-0.1-1.6-0.1-2.4s0-1.6,0.1-2.4s0.2-1.6,0.4-2.4
		s0.3-1.6,0.6-2.3c0.2-0.8,0.5-1.5,0.8-2.2c0.3-0.7,0.6-1.5,1-2.2c0.4-0.7,0.8-1.4,1.2-2c0.4-0.7,0.9-1.3,1.4-1.9
		c0.5-0.6,1-1.2,1.6-1.8s1.2-1.1,1.8-1.6c0.6-0.5,1.3-1,1.9-1.4c0.7-0.4,1.3-0.9,2-1.2s1.4-0.7,2.2-1c0.7-0.3,1.5-0.6,2.2-0.8
		s1.5-0.4,2.3-0.6c0.8-0.2,1.6-0.3,2.4-0.4s1.6-0.1,2.4-0.1s1.6,0,2.4,0.1c0.8,0.1,1.6,0.2,2.4,0.4c0.8,0.2,1.6,0.3,2.3,0.6
		s1.5,0.5,2.2,0.8c0.7,0.3,1.5,0.6,2.2,1s1.4,0.8,2,1.2c0.7,0.4,1.3,0.9,1.9,1.4c0.6,0.5,1.2,1,1.8,1.6s1.1,1.2,1.6,1.8
		c0.5,0.6,1,1.3,1.4,1.9c0.4,0.7,0.9,1.3,1.2,2c0.4,0.7,0.7,1.4,1,2.2c0.3,0.7,0.6,1.5,0.8,2.2s0.4,1.5,0.6,2.3s0.3,1.6,0.4,2.4
		S412,288.5,412,289.3z"/>
	<path class="st4" d="M363.3,277.2c0,0.8-0.1,1.6-0.2,2.4c-0.2,0.8-0.4,1.5-0.7,2.3c-0.3,0.7-0.7,1.4-1.1,2.1
		c-0.4,0.7-0.9,1.3-1.5,1.8c-0.6,0.6-1.2,1.1-1.8,1.5s-1.4,0.8-2.1,1.1s-1.5,0.5-2.3,0.7c-0.8,0.2-1.6,0.2-2.4,0.2
		c-0.8,0-1.6-0.1-2.4-0.2c-0.8-0.2-1.5-0.4-2.3-0.7c-0.7-0.3-1.4-0.7-2.1-1.1s-1.3-0.9-1.8-1.5c-0.6-0.6-1.1-1.2-1.5-1.8
		s-0.8-1.4-1.1-2.1c-0.3-0.7-0.5-1.5-0.7-2.3c-0.2-0.8-0.2-1.6-0.2-2.4c0-0.8,0.1-1.6,0.2-2.4c0.2-0.8,0.4-1.5,0.7-2.3
		c0.3-0.7,0.7-1.4,1.1-2.1s0.9-1.3,1.5-1.8c0.6-0.6,1.2-1.1,1.8-1.5c0.7-0.4,1.4-0.8,2.1-1.1c0.7-0.3,1.5-0.5,2.3-0.7
		c0.8-0.2,1.6-0.2,2.4-0.2c0.8,0,1.6,0.1,2.4,0.2c0.8,0.2,1.5,0.4,2.3,0.7s1.4,0.7,2.1,1.1c0.7,0.4,1.3,0.9,1.8,1.5
		c0.6,0.6,1.1,1.2,1.5,1.8c0.4,0.7,0.8,1.4,1.1,2.1s0.5,1.5,0.7,2.3C363.3,275.6,363.3,276.4,363.3,277.2z"/>
	<g>
		<defs>
			<rect id="SVGID_3_" x="22.8" y="520" width="244.1" height="243.6"/>
		</defs>
		<clipPath id="SVGID_4_">
			<use xlink:href="#SVGID_3_"  style="overflow:visible;"/>
		</clipPath>
		<g class="st7">
			<path class="st2" d="M198.4,520.5h-67.6L22.8,628.6l135.2,135.2L266,655.6V588L198.4,520.5z"/>
		</g>
	</g>
	<path class="st6" d="M225.5,547.5L144.4,588l-81.1,81.1l54.1,54.1l81.1-81.1L239,561L225.5,547.5z"/>
	<path class="st8" d="M302.5,435.3c-1.5,0-2.9-0.1-4.4-0.2c-1.5-0.1-2.9-0.3-4.3-0.6s-2.9-0.6-4.3-1c-1.4-0.4-2.8-0.9-4.2-1.4
		s-2.7-1.1-4-1.7s-2.6-1.3-3.8-2.1s-2.5-1.6-3.6-2.4c-1.2-0.9-2.3-1.8-3.4-2.8c-1.1-1-2.1-2-3.1-3.1c-1-1.1-2-2.2-2.9-3.3
		c-0.9-1.1-1.8-2.3-2.5-3.6c-0.8-1.2-1.5-2.5-2.2-3.8c-0.7-1.3-1.3-2.6-1.9-4c-0.6-1.4-1.1-2.7-1.5-4.1c-0.4-1.4-0.8-2.8-1.1-4.2
		s-0.6-2.9-0.7-4.3c-0.3,2-0.5,4-0.6,6.1c0,1.6,0.1,3.2,0.2,4.8s0.4,3.2,0.7,4.7s0.7,3.1,1.2,4.6s1,3,1.6,4.5s1.3,2.9,2,4.3
		c0.8,1.4,1.6,2.8,2.5,4.1c0.9,1.3,1.8,2.6,2.8,3.8c1,1.2,2.1,2.4,3.2,3.5c1.1,1.1,2.3,2.2,3.5,3.2c1.2,1,2.5,2,3.8,2.8
		c1.3,0.9,2.7,1.7,4.1,2.5c1.4,0.8,2.8,1.4,4.3,2s3,1.1,4.5,1.6c1.5,0.5,3.1,0.8,4.6,1.2c1.6,0.3,3.1,0.5,4.7,0.7
		c1.6,0.2,3.2,0.2,4.8,0.2s3.2-0.1,4.8-0.2s3.2-0.4,4.7-0.7c1.6-0.3,3.1-0.7,4.6-1.2c1.5-0.5,3-1,4.5-1.6s2.9-1.3,4.3-2
		c1.4-0.8,2.8-1.6,4.1-2.5c1.3-0.9,2.6-1.8,3.8-2.8c1.2-1,2.4-2.1,3.5-3.2s2.2-2.3,3.2-3.5c1-1.2,2-2.5,2.8-3.8
		c0.9-1.3,1.7-2.7,2.5-4.1c0.8-1.4,1.4-2.8,2-4.3s1.1-3,1.6-4.5c0.5-1.5,0.8-3.1,1.2-4.6c0.3-1.6,0.5-3.1,0.7-4.7s0.2-3.2,0.2-4.8
		c-0.1-2-0.3-4.1-0.6-6.1c-0.2,1.5-0.4,2.9-0.7,4.3s-0.7,2.8-1.1,4.2c-0.4,1.4-0.9,2.8-1.5,4.1c-0.6,1.4-1.2,2.7-1.9,4
		c-0.7,1.3-1.4,2.6-2.2,3.8c-0.8,1.2-1.6,2.4-2.5,3.6c-0.9,1.2-1.9,2.3-2.9,3.3c-1,1.1-2.1,2.1-3.1,3.1c-1.1,1-2.2,1.9-3.4,2.8
		c-1.2,0.9-2.4,1.7-3.6,2.4s-2.5,1.5-3.8,2.1c-1.3,0.6-2.7,1.2-4,1.7s-2.8,1-4.2,1.4c-1.4,0.4-2.8,0.7-4.3,1
		c-1.4,0.3-2.9,0.5-4.3,0.6C305.4,435.2,304,435.3,302.5,435.3z"/>
	<path class="st4" d="M729.5,47.3l-162,161.9c-0.6,0.6-1.1,1.2-1.5,1.8c-0.4,0.6-0.8,1.3-1.1,2.1c-0.3,0.7-0.5,1.5-0.7,2.2
		c-0.2,0.8-0.2,1.5-0.2,2.3s0.1,1.6,0.2,2.3s0.4,1.5,0.7,2.2c0.3,0.7,0.7,1.4,1.1,2.1c0.4,0.6,0.9,1.3,1.5,1.8
		c0.6,0.6,1.2,1,1.8,1.5s1.3,0.8,2.1,1.1c0.7,0.3,1.5,0.5,2.2,0.7s1.5,0.2,2.3,0.2s1.6-0.1,2.3-0.2s1.5-0.4,2.2-0.7
		c0.7-0.3,1.4-0.7,2.1-1.1s1.3-0.9,1.8-1.5l162-162L729.5,47.3z"/>
	<path class="st9" d="M521.5,386.6c-0.8,0-1.6,0.1-2.4,0.2s-1.5,0.4-2.3,0.7c-0.7,0.3-1.4,0.7-2.1,1.1c-0.7,0.4-1.3,0.9-1.8,1.5
		c-0.6,0.6-1.1,1.2-1.5,1.8c-0.4,0.7-0.8,1.4-1.1,2.1c-0.3,0.7-0.5,1.5-0.7,2.3c-0.2,0.8-0.2,1.6-0.2,2.4v24.3
		c0,0.8-0.1,1.6-0.2,2.4c-0.2,0.8-0.4,1.5-0.7,2.3c-0.3,0.7-0.7,1.4-1.1,2.1c-0.4,0.7-0.9,1.3-1.5,1.8c-0.6,0.6-1.2,1.1-1.8,1.5
		c-0.7,0.4-1.4,0.8-2.1,1.1s-1.5,0.5-2.3,0.7c-0.8,0.2-1.6,0.2-2.4,0.2c-1.2,0-2.4,0.1-3.6,0.2c-1.2,0.1-2.4,0.3-3.5,0.5
		c-1.2,0.2-2.3,0.5-3.5,0.9c-1.1,0.3-2.3,0.7-3.4,1.2c-1.1,0.5-2.2,1-3.2,1.5c-1.1,0.6-2.1,1.2-3.1,1.8c-1,0.7-2,1.4-2.9,2.1
		c-0.9,0.8-1.8,1.6-2.7,2.4c-0.8,0.8-1.6,1.7-2.4,2.7c-0.8,0.9-1.5,1.9-2.1,2.9s-1.3,2-1.8,3.1c-0.6,1.1-1.1,2.1-1.5,3.2
		s-0.9,2.2-1.2,3.4c-0.3,1.1-0.6,2.3-0.9,3.5c-0.2,1.2-0.4,2.4-0.5,3.5c-0.1,1.2-0.2,2.4-0.2,3.6c0,0.8-0.1,1.6-0.2,2.4
		c-0.2,0.8-0.4,1.5-0.7,2.3c-0.3,0.7-0.7,1.4-1.1,2.1s-0.9,1.3-1.5,1.8c-0.6,0.6-1.2,1.1-1.8,1.5c-0.7,0.4-1.4,0.8-2.1,1.1
		c-0.7,0.3-1.5,0.5-2.3,0.7c-0.8,0.2-1.6,0.2-2.4,0.2h-48.7c-1.7,0-3.4,0.4-5,1.1c-1.7-1.6-3.6-2.9-5.6-4.1c-2-1.2-4.1-2.2-6.3-3
		c-2.2-0.8-4.4-1.4-6.7-1.7s-4.6-0.5-6.9-0.4c-16.8,0-30.4,9.1-30.4,20.3s13.6,20.3,30.4,20.3c2.3,0.1,4.6,0,6.9-0.4
		s4.5-0.9,6.7-1.7c2.2-0.8,4.3-1.8,6.3-3c2-1.2,3.8-2.6,5.6-4.1c1.6,0.7,3.2,1.1,5,1.1h48.7c1.2,0,2.4-0.1,3.6-0.2
		c1.2-0.1,2.4-0.3,3.5-0.5c1.2-0.2,2.3-0.5,3.5-0.9c1.1-0.3,2.3-0.8,3.4-1.2c1.1-0.5,2.2-1,3.2-1.5c1.1-0.6,2.1-1.2,3.1-1.8
		c1-0.7,2-1.4,2.9-2.1c0.9-0.8,1.8-1.6,2.7-2.4c0.8-0.8,1.6-1.7,2.4-2.7c0.8-0.9,1.5-1.9,2.1-2.9c0.7-1,1.3-2,1.8-3.1
		c0.6-1.1,1.1-2.1,1.5-3.2c0.5-1.1,0.9-2.2,1.2-3.4c0.3-1.1,0.6-2.3,0.9-3.5s0.4-2.4,0.5-3.5c0.1-1.2,0.2-2.4,0.2-3.6
		c0-0.8,0.1-1.6,0.2-2.4c0.2-0.8,0.4-1.5,0.7-2.3c0.3-0.7,0.7-1.4,1.1-2.1c0.4-0.7,0.9-1.3,1.5-1.8c0.6-0.6,1.2-1.1,1.8-1.5
		s1.4-0.8,2.1-1.1s1.5-0.5,2.3-0.7c0.8-0.2,1.6-0.2,2.4-0.2c1.2,0,2.4-0.1,3.6-0.2c1.2-0.1,2.4-0.3,3.5-0.5c1.2-0.2,2.3-0.5,3.5-0.9
		c1.1-0.3,2.3-0.8,3.4-1.2c1.1-0.5,2.2-1,3.2-1.5s2.1-1.2,3.1-1.8c1-0.7,2-1.4,2.9-2.1c0.9-0.8,1.8-1.6,2.7-2.4
		c0.8-0.8,1.6-1.7,2.4-2.7c0.8-0.9,1.5-1.9,2.1-2.9c0.7-1,1.3-2,1.8-3.1c0.6-1.1,1.1-2.1,1.5-3.2c0.5-1.1,0.9-2.2,1.2-3.4
		s0.6-2.3,0.9-3.5s0.4-2.4,0.5-3.5c0.1-1.2,0.2-2.4,0.2-3.6v-24.3c0-0.8-0.1-1.6-0.2-2.4c-0.2-0.8-0.4-1.5-0.7-2.3
		c-0.3-0.7-0.7-1.4-1.1-2.1c-0.4-0.7-0.9-1.3-1.5-1.8c-0.6-0.6-1.2-1.1-1.8-1.5c-0.7-0.4-1.4-0.8-2.1-1.1c-0.7-0.3-1.5-0.5-2.3-0.7
		S522.3,386.6,521.5,386.6z"/>
	<path class="st10" d="M497.1,447.5c-0.8,0-1.6,0.1-2.4,0.2c-0.8,0.2-1.5,0.4-2.3,0.7s-1.4,0.7-2.1,1.1s-1.3,0.9-1.8,1.5
		c-0.6,0.6-1.1,1.2-1.5,1.8c-0.4,0.7-0.8,1.4-1.1,2.1c-0.3,0.7-0.5,1.5-0.7,2.3c-0.2,0.8-0.2,1.6-0.2,2.4c0,1.2-0.1,2.4-0.2,3.6
		c-0.1,1.2-0.3,2.4-0.5,3.5s-0.5,2.3-0.9,3.5c-0.3,1.1-0.7,2.3-1.2,3.4c-0.5,1.1-1,2.2-1.5,3.2c-0.6,1.1-1.2,2.1-1.8,3.1
		c-0.7,1-1.4,2-2.1,2.9c-0.8,0.9-1.6,1.8-2.4,2.7c-0.8,0.8-1.7,1.6-2.7,2.4c-0.9,0.8-1.9,1.5-2.9,2.1c-1,0.7-2,1.3-3.1,1.8
		c-1.1,0.6-2.1,1.1-3.2,1.5c-1.1,0.5-2.2,0.9-3.4,1.2c-1.1,0.3-2.3,0.6-3.5,0.9c-1.2,0.2-2.4,0.4-3.5,0.5c-1.2,0.1-2.4,0.2-3.6,0.2
		h-48.7c-1.7,0-3.4-0.4-5-1.1c-1.7,1.6-3.6,2.9-5.6,4.1c-2,1.2-4.1,2.2-6.3,3c-2.2,0.8-4.4,1.4-6.7,1.7s-4.6,0.5-6.9,0.4
		c-1.4,0.1-2.8,0.1-4.2,0.1c-1.4-0.1-2.8-0.3-4.2-0.5c-1.4-0.3-2.7-0.6-4.1-1.1c-1.3-0.4-2.6-1-3.9-1.6c-1.3-0.6-2.5-1.3-3.7-2.1
		c-1.2-0.8-2.3-1.6-3.3-2.6s-2-1.9-3-3c-0.9-1.1-1.8-2.2-2.5-3.4c-1,1.9-1.5,3.9-1.5,6.1c0,11.2,13.6,20.3,30.4,20.3
		c2.3,0.1,4.6,0,6.9-0.4s4.5-0.9,6.7-1.7c2.2-0.8,4.3-1.8,6.3-3c2-1.2,3.8-2.6,5.6-4.1c1.6,0.7,3.2,1.1,5,1.1h48.7
		c1.2,0,2.4-0.1,3.6-0.2c1.2-0.1,2.4-0.3,3.5-0.5c1.2-0.2,2.3-0.5,3.5-0.9c1.1-0.3,2.3-0.8,3.4-1.2c1.1-0.5,2.2-1,3.2-1.5
		c1.1-0.6,2.1-1.2,3.1-1.8c1-0.7,2-1.4,2.9-2.1c0.9-0.8,1.8-1.6,2.7-2.4c0.8-0.8,1.6-1.7,2.4-2.7c0.8-0.9,1.5-1.9,2.1-2.9
		c0.7-1,1.3-2,1.8-3.1c0.6-1.1,1.1-2.1,1.5-3.2c0.5-1.1,0.9-2.2,1.2-3.4c0.3-1.1,0.6-2.3,0.9-3.5s0.4-2.4,0.5-3.5
		c0.1-1.2,0.2-2.4,0.2-3.6c0-0.8,0.1-1.6,0.2-2.4c0.2-0.8,0.4-1.5,0.7-2.3c0.3-0.7,0.7-1.4,1.1-2.1c0.4-0.7,0.9-1.3,1.5-1.8
		c0.6-0.6,1.2-1.1,1.8-1.5s1.4-0.8,2.1-1.1s1.5-0.5,2.3-0.7c0.8-0.2,1.6-0.2,2.4-0.2c1.2,0,2.4-0.1,3.6-0.2c1.2-0.1,2.4-0.3,3.5-0.5
		c1.2-0.2,2.3-0.5,3.5-0.9c1.1-0.3,2.3-0.8,3.4-1.2c1.1-0.5,2.2-1,3.2-1.5s2.1-1.2,3.1-1.8c1-0.7,2-1.4,2.9-2.1
		c0.9-0.8,1.8-1.6,2.7-2.4c0.8-0.8,1.6-1.7,2.4-2.7c0.8-0.9,1.5-1.9,2.1-2.9c0.7-1,1.3-2,1.8-3.1c0.6-1.1,1.1-2.1,1.5-3.2
		c0.5-1.1,0.9-2.2,1.2-3.4s0.6-2.3,0.9-3.5s0.4-2.4,0.5-3.5c0.1-1.2,0.2-2.4,0.2-3.6V411c0,1.2-0.1,2.4-0.2,3.6s-0.3,2.4-0.5,3.5
		s-0.5,2.3-0.9,3.5s-0.8,2.3-1.2,3.4c-0.5,1.1-1,2.2-1.5,3.2c-0.6,1.1-1.2,2.1-1.8,3.1c-0.7,1-1.4,2-2.1,2.9
		c-0.8,0.9-1.6,1.8-2.4,2.7c-0.8,0.8-1.7,1.6-2.7,2.4c-0.9,0.8-1.9,1.5-2.9,2.1c-1,0.7-2,1.3-3.1,1.8s-2.1,1.1-3.2,1.5
		c-1.1,0.5-2.2,0.9-3.4,1.2c-1.1,0.3-2.3,0.6-3.5,0.9c-1.2,0.2-2.4,0.4-3.5,0.5C499.5,447.4,498.3,447.5,497.1,447.5z"/>
</g>
</svg>
