<?xml version="1.0" encoding="utf-8"?>
<!-- Generator: Adobe Illustrator 21.0.0, SVG Export Plug-In . SVG Version: 6.00 Build 0)  -->
<svg version="1.1" id="Layer_1" xmlns="http://www.w3.org/2000/svg" xmlns:xlink="http://www.w3.org/1999/xlink" x="0px" y="0px"
	 viewBox="0 0 810 810" style="enable-background:new 0 0 810 810;" xml:space="preserve">
<style type="text/css">
	.st0{fill:#ECAB39;}
	.st1{clip-path:url(#SVGID_2_);fill:#FFBD5C;}
</style>
<path className="st0" d="M391.1,293.1c0,1.8-0.1,3.5-0.3,5.3c-0.2,1.8-0.4,3.5-0.8,5.2c-0.3,1.7-0.8,3.4-1.3,5.1c-0.5,1.7-1.1,3.4-1.8,5
	c-0.7,1.6-1.4,3.2-2.3,4.8c-0.8,1.6-1.7,3.1-2.7,4.5c-1,1.5-2,2.9-3.2,4.3s-2.3,2.7-3.6,3.9s-2.6,2.4-3.9,3.6s-2.8,2.2-4.3,3.2
	c-1.5,1-3,1.9-4.5,2.7c-1.6,0.8-3.2,1.6-4.8,2.3s-3.3,1.3-5,1.8c-1.7,0.5-3.4,0.9-5.1,1.3c-1.7,0.3-3.5,0.6-5.2,0.8
	c-1.8,0.2-3.5,0.3-5.3,0.3s-3.5-0.1-5.3-0.3c-1.8-0.2-3.5-0.4-5.2-0.8c-1.7-0.3-3.4-0.8-5.1-1.3c-1.7-0.5-3.4-1.1-5-1.8
	c-1.6-0.7-3.2-1.4-4.8-2.3c-1.6-0.8-3.1-1.7-4.5-2.7c-1.5-1-2.9-2-4.3-3.2s-2.7-2.3-3.9-3.6s-2.4-2.6-3.6-3.9s-2.2-2.8-3.2-4.3
	c-1-1.5-1.9-3-2.7-4.5c-0.8-1.6-1.6-3.2-2.3-4.8c-0.7-1.6-1.3-3.3-1.8-5c-0.5-1.7-0.9-3.4-1.3-5.1c-0.3-1.7-0.6-3.5-0.8-5.2
	c-0.2-1.8-0.3-3.5-0.3-5.3s0.1-3.5,0.3-5.3c0.2-1.8,0.4-3.5,0.8-5.2c0.3-1.7,0.8-3.4,1.3-5.1c0.5-1.7,1.1-3.4,1.8-5
	c0.7-1.6,1.4-3.2,2.3-4.8c0.8-1.6,1.7-3.1,2.7-4.5c1-1.5,2-2.9,3.2-4.3s2.3-2.7,3.6-3.9c1.3-1.3,2.6-2.4,3.9-3.6s2.8-2.2,4.3-3.2
	c1.5-1,3-1.9,4.5-2.7c1.6-0.8,3.2-1.6,4.8-2.3c1.6-0.7,3.3-1.3,5-1.8c1.7-0.5,3.4-0.9,5.1-1.3c1.7-0.3,3.5-0.6,5.2-0.8
	c1.8-0.2,3.5-0.3,5.3-0.3s3.5,0.1,5.3,0.3c1.8,0.2,3.5,0.4,5.2,0.8c1.7,0.3,3.4,0.8,5.1,1.3c1.7,0.5,3.4,1.1,5,1.8
	c1.6,0.7,3.2,1.4,4.8,2.3c1.6,0.8,3.1,1.7,4.5,2.7c1.5,1,2.9,2,4.3,3.2s2.7,2.3,3.9,3.6c1.3,1.3,2.4,2.6,3.6,3.9s2.2,2.8,3.2,4.3
	c1,1.5,1.9,3,2.7,4.5c0.8,1.6,1.6,3.2,2.3,4.8c0.7,1.6,1.3,3.3,1.8,5c0.5,1.7,0.9,3.4,1.3,5.1c0.3,1.7,0.6,3.5,0.8,5.2
	C391,289.6,391.1,291.3,391.1,293.1z"/>
<path className="st0" d="M391.1,360.6h-108c-20.1,0-37.4,11.1-46.7,27.4c21.9,32.3,58.9,53.6,100.7,53.6S416,420.3,437.8,388
	C428.5,371.7,411.2,360.6,391.1,360.6z"/>
<g>
	<defs>
		<rect id="SVGID_1_" x="175.1" y="158.1" width="324" height="324"/>
	</defs>
	<clipPath id="SVGID_2_">
		<use xlink:href="#SVGID_1_"  style="overflow:visible;"/>
	</clipPath>
	<path className="st1" d="M337.1,158.1c-89.5,0-162,72.5-162,162s72.5,162,162,162s162-72.5,162-162S426.6,158.1,337.1,158.1z
		 M337.1,455.1c-74.4,0-135-60.6-135-135s60.6-135,135-135s135,60.6,135,135S411.5,455.1,337.1,455.1z"/>
</g>
</svg>
